<?xml version="1.0" encoding="UTF-8" standalone="no"?>
<!-- This is a Stata 14.2 generated SVG file (http://www.stata.com) -->

<svg version="1.1" width="5.50in" height="4.00in" viewBox="0 0 3960 2880" xmlns="http://www.w3.org/2000/svg">
	<desc>Stata Graph - Graph</desc>
	<rect x="0.00" y="0.00" width="3959.88" height="2880.00" style="fill:#FFFFFF;stroke:#EAF2F3;stroke-width:5.76"/>
	<rect x="390.68" y="261.37" width="3468.34" height="2227.94" style="fill:#FFFFFF;stroke:#FFFFFF;stroke-width:5.76"/>
	<line x1="390.68" y1="2425.95" x2="3859.02" y2="2425.95" style="stroke:#EAF2F3;stroke-width:8.64"/>
	<line x1="390.68" y1="1900.61" x2="3859.02" y2="1900.61" style="stroke:#EAF2F3;stroke-width:8.64"/>
	<line x1="390.68" y1="1375.40" x2="3859.02" y2="1375.40" style="stroke:#EAF2F3;stroke-width:8.64"/>
	<line x1="390.68" y1="850.07" x2="3859.02" y2="850.07" style="stroke:#EAF2F3;stroke-width:8.64"/>
	<line x1="390.68" y1="324.73" x2="3859.02" y2="324.73" style="stroke:#EAF2F3;stroke-width:8.64"/>
	<line x1="454.04" y1="1627.49" x2="454.04" y2="633.74" style="stroke:#000000;stroke-width:8.64"/>
	<line x1="432.13" y1="633.74" x2="476.07" y2="633.74" stroke-linecap="round" style="stroke:#000000;stroke-width:8.64"/>
	<line x1="432.13" y1="1627.49" x2="476.07" y2="1627.49" stroke-linecap="round" style="stroke:#000000;stroke-width:8.64"/>
	<line x1="3795.66" y1="2133.02" x2="3795.66" y2="1036.31" style="stroke:#000000;stroke-width:8.64"/>
	<line x1="3773.76" y1="1036.31" x2="3817.69" y2="1036.31" stroke-linecap="round" style="stroke:#000000;stroke-width:8.64"/>
	<line x1="3773.76" y1="2133.02" x2="3817.69" y2="2133.02" stroke-linecap="round" style="stroke:#000000;stroke-width:8.64"/>
	<line x1="454.04" y1="1130.62" x2="3795.66" y2="1584.67" stroke-linecap="round" style="stroke:#000000;stroke-width:8.64"/>
	<circle cx="454.04" cy="1130.62" r="21.90" style="fill:#000000;stroke:#000000;stroke-width:8.64"/>
	<circle cx="3795.66" cy="1584.67" r="21.90" style="fill:#000000;stroke:#000000;stroke-width:8.64"/>
	<line x1="390.68" y1="2489.31" x2="390.68" y2="261.37" style="stroke:#000000;stroke-width:5.76"/>
	<line x1="390.68" y1="2425.95" x2="350.71" y2="2425.95" style="stroke:#000000;stroke-width:5.76"/>
	<text x="300.72" y="2425.95" style="font-family:'Helvetica';font-size:99.99px;fill:#000000" transform="rotate(-90 300.72,2425.95)" text-anchor="middle">.7</text>
	<line x1="390.68" y1="1900.61" x2="350.71" y2="1900.61" style="stroke:#000000;stroke-width:5.76"/>
	<text x="300.72" y="1900.61" style="font-family:'Helvetica';font-size:99.99px;fill:#000000" transform="rotate(-90 300.72,1900.61)" text-anchor="middle">.75</text>
	<line x1="390.68" y1="1375.40" x2="350.71" y2="1375.40" style="stroke:#000000;stroke-width:5.76"/>
	<text x="300.72" y="1375.40" style="font-family:'Helvetica';font-size:99.99px;fill:#000000" transform="rotate(-90 300.72,1375.40)" text-anchor="middle">.8</text>
	<line x1="390.68" y1="850.07" x2="350.71" y2="850.07" style="stroke:#000000;stroke-width:5.76"/>
	<text x="300.72" y="850.07" style="font-family:'Helvetica';font-size:99.99px;fill:#000000" transform="rotate(-90 300.72,850.07)" text-anchor="middle">.85</text>
	<line x1="390.68" y1="324.73" x2="350.71" y2="324.73" style="stroke:#000000;stroke-width:5.76"/>
	<text x="300.72" y="324.73" style="font-family:'Helvetica';font-size:99.99px;fill:#000000" transform="rotate(-90 300.72,324.73)" text-anchor="middle">.9</text>
	<text x="190.71" y="1375.40" style="font-family:'Helvetica';font-size:99.99px;fill:#000000" transform="rotate(-90 190.71,1375.40)" text-anchor="middle">Risk of relapse</text>
	<line x1="390.68" y1="2489.31" x2="3859.02" y2="2489.31" style="stroke:#000000;stroke-width:5.76"/>
	<line x1="454.04" y1="2489.31" x2="454.04" y2="2529.28" style="stroke:#000000;stroke-width:5.76"/>
	<text x="454.04" y="2619.14" style="font-family:'Helvetica';font-size:99.99px;fill:#000000" text-anchor="middle">short</text>
	<line x1="3795.66" y1="2489.31" x2="3795.66" y2="2529.28" style="stroke:#000000;stroke-width:5.76"/>
	<text x="3795.66" y="2619.14" style="font-family:'Helvetica';font-size:99.99px;fill:#000000" text-anchor="middle">long</text>
	<text x="2124.91" y="2729.16" style="font-family:'Helvetica';font-size:99.99px;fill:#000000" text-anchor="middle">Treatment duration</text>
	<text x="1979.88" y="206.31" style="font-family:'Helvetica';font-size:125.98px;fill:#000000" text-anchor="middle">Predictive Margins of treatment duration with 95% CIs</text>
</svg>
