<?xml version="1.0" encoding="UTF-8" standalone="no"?>
<svg
   xmlns:dc="http://purl.org/dc/elements/1.1/"
   xmlns:cc="http://creativecommons.org/ns#"
   xmlns:rdf="http://www.w3.org/1999/02/22-rdf-syntax-ns#"
   xmlns:svg="http://www.w3.org/2000/svg"
   xmlns="http://www.w3.org/2000/svg"
   xmlns:sodipodi="http://sodipodi.sourceforge.net/DTD/sodipodi-0.dtd"
   xmlns:inkscape="http://www.inkscape.org/namespaces/inkscape"
   viewBox="0 0 720 638"
   id="svg2"
   version="1.1"
   inkscape:version="0.91 r13725"
   sodipodi:docname="3-compare-kernel.svg"
   width="720"
   height="638">
  <metadata
     id="metadata114">
    <rdf:RDF>
      <cc:Work
         rdf:about="">
        <dc:format>image/svg+xml</dc:format>
        <dc:type
           rdf:resource="http://purl.org/dc/dcmitype/StillImage" />
        <dc:title />
      </cc:Work>
    </rdf:RDF>
  </metadata>
  <sodipodi:namedview
     pagecolor="#ffffff"
     bordercolor="#666666"
     borderopacity="1"
     objecttolerance="10"
     gridtolerance="10"
     guidetolerance="10"
     inkscape:pageopacity="1"
     inkscape:pageshadow="2"
     inkscape:window-width="1154"
     inkscape:window-height="648"
     id="namedview112"
     showgrid="false"
     inkscape:zoom="0.62"
     inkscape:cx="300.35934"
     inkscape:cy="340.63158"
     inkscape:window-x="0"
     inkscape:window-y="0"
     inkscape:window-maximized="0"
     inkscape:current-layer="svg2" />
  <defs
     id="defs4">
    <style
       type="text/css"
       id="style6"><![CDATA[
    line, polyline, path, rect, circle {
      fill: none;
      stroke: #000000;
      stroke-linecap: round;
      stroke-linejoin: round;
      stroke-miterlimit: 10.00;
    }
  ]]></style>
  </defs>
  <rect
     width="720"
     height="576"
     style="fill:#ffffff;stroke:none;stroke-linecap:round;stroke-linejoin:round;stroke-miterlimit:10"
     id="rect8"
     x="0"
     y="62" />
  <rect
     x="0"
     y="62"
     width="720"
     height="576"
     style="fill:#ffffff;stroke:#ffffff;stroke-width:1.07000005;stroke-linecap:round;stroke-linejoin:round;stroke-miterlimit:10"
     id="rect10" />
  <defs
     id="defs12">
    <clipPath
       id="cpNDMuODEzM3w2MzMuMzkzfDU0NS42NTZ8NS40Nzk0NQ==">
      <rect
         x="43.810001"
         y="5.48"
         width="589.58002"
         height="540.17999"
         id="rect15"
         style="fill:none;stroke:#000000;stroke-linecap:round;stroke-linejoin:round;stroke-miterlimit:10" />
    </clipPath>
  </defs>
  <rect
     x="43.810001"
     y="5.48"
     width="589.58002"
     height="540.17999"
     style="fill:#ffffff;stroke:none;stroke-width:1.07000005;stroke-linecap:round;stroke-linejoin:round;stroke-miterlimit:10"
     clip-path="url(#cpNDMuODEzM3w2MzMuMzkzfDU0NS42NTZ8NS40Nzk0NQ==)"
     id="rect17"
     transform="translate(0,24.068966)" />
  <g
     id="g3367"
     transform="matrix(1.0010801,0,0,0.65302381,-0.36572158,210.42117)">
    <polyline
       transform="translate(0,24.068966)"
       id="polyline19"
       clip-path="url(#cpNDMuODEzM3w2MzMuMzkzfDU0NS42NTZ8NS40Nzk0NQ==)"
       style="fill:none;stroke:#1a476f;stroke-width:3;stroke-linecap:round;stroke-linejoin:round;stroke-miterlimit:10"
       points="70.61,415.92 71.66,410.72 72.71,405.51 73.76,400.29 74.81,395.06 75.86,389.87 76.91,384.71 77.95,379.59 79.00,374.53 80.05,369.54 81.10,364.65 82.15,359.86 83.20,355.16 84.25,350.57 85.30,346.09 86.35,341.77 87.39,337.56 88.44,333.49 89.49,329.53 90.54,325.72 91.59,322.07 92.64,318.54 93.69,315.14 94.74,311.87 95.79,308.73 96.83,305.74 97.88,302.85 98.93,300.08 99.98,297.42 101.03,294.88 102.08,292.45 103.13,290.12 104.18,287.89 105.23,285.74 106.27,283.71 107.32,281.78 108.37,279.93 109.42,278.18 110.47,276.51 111.52,274.97 112.57,273.52 113.62,272.17 114.67,270.92 115.71,269.77 116.76,268.77 117.81,267.88 118.86,267.10 119.91,266.44 120.96,265.91 122.01,265.54 123.06,265.30 124.11,265.20 125.15,265.22 126.20,265.40 127.25,265.74 128.30,266.22 129.35,266.83 130.40,267.58 131.45,268.48 132.50,269.53 133.55,270.70 134.59,271.99 135.64,273.39 136.69,274.93 137.74,276.59 138.79,278.33 139.84,280.17 140.89,282.09 141.94,284.10 142.99,286.18 144.03,288.32 145.08,290.50 146.13,292.73 147.18,295.00 148.23,297.28 149.28,299.58 150.33,301.88 151.38,304.19 152.43,306.47 153.47,308.73 154.52,310.97 155.57,313.17 156.62,315.32 157.67,317.42 158.72,319.47 159.77,321.46 160.82,323.39 161.87,325.25 162.91,327.03 163.96,328.75 165.01,330.40 166.06,331.99 167.11,333.50 168.16,334.94 169.21,336.33 170.26,337.67 171.31,338.96 172.35,340.19 173.40,341.38 174.45,342.54 175.50,343.68 176.55,344.80 177.60,345.90 178.65,346.99 179.70,348.08 180.75,349.17 181.79,350.27 182.84,351.39 183.89,352.53 184.94,353.69 185.99,354.86 187.04,356.07 188.09,357.31 189.14,358.58 190.19,359.87 191.23,361.18 192.28,362.53 193.33,363.90 194.38,365.28 195.43,366.69 196.48,368.10 197.53,369.52 198.58,370.94 199.63,372.36 200.67,373.77 201.72,375.17 202.77,376.54 203.82,377.88 204.87,379.19 205.92,380.47 206.97,381.70 208.02,382.88 209.07,384.01 210.11,385.09 211.16,386.12 212.21,387.09 213.26,388.00 214.31,388.85 215.36,389.65 216.41,390.41 217.46,391.11 218.51,391.77 219.55,392.39 220.60,392.98 221.65,393.55 222.70,394.10 223.75,394.64 224.80,395.18 225.85,395.73 226.90,396.28 227.95,396.86 228.99,397.47 230.04,398.12 231.09,398.80 232.14,399.52 233.19,400.31 234.24,401.15 235.29,402.05 236.34,403.01 237.39,404.03 238.43,405.13 239.48,406.29 240.53,407.51 241.58,408.80 242.63,410.15 243.68,411.57 244.73,413.06 245.78,414.60 246.83,416.20 247.87,417.85 248.92,419.57 249.97,421.34 251.02,423.15 252.07,425.01 253.12,426.91 254.17,428.86 255.22,430.85 256.27,432.87 257.31,434.92 258.36,437.01 259.41,439.12 260.46,441.26 261.51,443.41 262.56,445.58 263.61,447.76 264.66,449.95 265.71,452.14 266.75,454.33 267.80,456.50 268.85,458.66 269.90,460.80 270.95,462.92 272.00,465.00 273.05,467.05 274.10,469.05 275.15,470.99 276.19,472.89 277.24,474.73 278.29,476.50 279.34,478.19 280.39,479.81 281.44,481.36 282.49,482.83 283.54,484.21 284.59,485.49 285.63,486.69 286.68,487.81 287.73,488.85 288.78,489.77 289.83,490.62 290.88,491.38 291.93,492.06 292.98,492.67 294.03,493.18 295.07,493.63 296.12,494.01 297.17,494.33 298.22,494.60 299.27,494.80 300.32,494.95 301.37,495.07 302.42,495.16 303.47,495.21 304.51,495.23 305.56,495.24 306.61,495.23 307.66,495.22 308.71,495.20 309.76,495.18 310.81,495.16 311.86,495.16 312.91,495.16 313.95,495.18 315.00,495.21 316.05,495.27 317.10,495.34 318.15,495.43 319.20,495.56 320.25,495.70 321.30,495.88 322.35,496.07 323.39,496.29 324.44,496.55 325.49,496.83 326.54,497.14 327.59,497.47 328.64,497.83 329.69,498.22 330.74,498.63 331.79,499.07 332.83,499.53 333.88,500.02 334.93,500.53 335.98,501.06 337.03,501.60 338.08,502.17 339.13,502.74 340.18,503.34 341.23,503.94 342.27,504.55 343.32,505.16 344.37,505.78 345.42,506.39 346.47,507.00 347.52,507.60 348.57,508.19 349.62,508.77 350.67,509.32 351.71,509.86 352.76,510.37 353.81,510.86 354.86,511.32 355.91,511.74 356.96,512.14 358.01,512.50 359.06,512.83 360.11,513.11 361.15,513.36 362.20,513.58 363.25,513.76 364.30,513.91 365.35,514.02 366.40,514.09 367.45,514.14 368.50,514.16 369.55,514.15 370.59,514.12 371.64,514.06 372.69,513.99 373.74,513.90 374.79,513.80 375.84,513.69 376.89,513.58 377.94,513.46 378.99,513.35 380.03,513.24 381.08,513.13 382.13,513.03 383.18,512.95 384.23,512.87 385.28,512.82 386.33,512.78 387.38,512.77 388.43,512.77 389.47,512.79 390.52,512.83 391.57,512.90 392.62,512.99 393.67,513.10 394.72,513.23 395.77,513.38 396.82,513.56 397.87,513.74 398.91,513.95 399.96,514.17 401.01,514.41 402.06,514.65 403.11,514.91 404.16,515.17 405.21,515.44 406.26,515.72 407.31,516.00 408.35,516.27 409.40,516.55 410.45,516.83 411.50,517.10 412.55,517.36 413.60,517.62 414.65,517.87 415.70,518.11 416.75,518.35 417.79,518.57 418.84,518.78 419.89,518.98 420.94,519.17 421.99,519.35 423.04,519.51 424.09,519.67 425.14,519.82 426.19,519.95 427.23,520.07 428.28,520.18 429.33,520.29 430.38,520.38 431.43,520.46 432.48,520.54 433.53,520.61 434.58,520.67 435.63,520.73 436.67,520.78 437.72,520.82 438.77,520.86 439.82,520.89 440.87,520.92 441.92,520.95 442.97,520.97 444.02,520.99 445.07,521.01 446.11,521.02 447.16,521.04 448.21,521.05 449.26,521.06 450.31,521.06 451.36,521.07 452.41,521.08 453.46,521.08 454.51,521.08 455.55,521.09 456.60,521.09 457.65,521.09 458.70,521.09 459.75,521.10 460.80,521.10 461.85,521.10 462.90,521.10 463.95,521.10 464.99,521.10 466.04,521.10 467.09,521.10 468.14,521.10 469.19,521.10 470.24,521.10 471.29,521.10 472.34,521.10 473.39,521.10 474.43,521.10 475.48,521.10 476.53,521.10 477.58,521.10 478.63,521.10 479.68,521.10 480.73,521.10 481.78,521.10 482.83,521.10 483.87,521.10 484.92,521.10 485.97,521.10 487.02,521.10 488.07,521.10 489.12,521.10 490.17,521.10 491.22,521.09 492.27,521.09 493.31,521.09 494.36,521.09 495.41,521.08 496.46,521.08 497.51,521.08 498.56,521.07 499.61,521.07 500.66,521.06 501.71,521.05 502.75,521.04 503.80,521.03 504.85,521.02 505.90,521.01 506.95,520.99 508.00,520.98 509.05,520.96 510.10,520.94 511.15,520.92 512.19,520.89 513.24,520.86 514.29,520.83 515.34,520.80 516.39,520.77 517.44,520.73 518.49,520.69 519.54,520.64 520.59,520.60 521.63,520.55 522.68,520.50 523.73,520.44 524.78,520.39 525.83,520.33 526.88,520.27 527.93,520.20 528.98,520.14 530.03,520.08 531.07,520.01 532.12,519.95 533.17,519.89 534.22,519.82 535.27,519.76 536.32,519.71 537.37,519.65 538.42,519.60 539.47,519.55 540.51,519.50 541.56,519.46 542.61,519.42 543.66,519.39 544.71,519.37 545.76,519.35 546.81,519.33 547.86,519.32 548.91,519.32 549.95,519.32 551.00,519.33 552.05,519.34 553.10,519.36 554.15,519.38 555.20,519.40 556.25,519.43 557.30,519.46 558.35,519.49 559.39,519.52 560.44,519.55 561.49,519.59 562.54,519.62 563.59,519.65 564.64,519.67 565.69,519.70 566.74,519.72 567.79,519.73 568.83,519.74 569.88,519.74 570.93,519.73 571.98,519.72 573.03,519.70 574.08,519.67 575.13,519.64 576.18,519.59 577.23,519.54 578.27,519.48 579.32,519.42 580.37,519.34 581.42,519.26 582.47,519.18 583.52,519.08 584.57,518.99 585.62,518.89 586.67,518.79 587.71,518.68 588.76,518.58 589.81,518.47 590.86,518.37 591.91,518.27 592.96,518.17 594.01,518.08 595.06,517.99 596.11,517.91 597.15,517.84 598.20,517.78 599.25,517.72 600.30,517.68 601.35,517.65 602.40,517.63 603.45,517.62 604.50,517.62 605.55,517.64 606.59,517.66 606.59,521.10" />
    <polyline
       points="70.61,280.77 71.66,260.32 72.71,239.93 73.76,219.79 74.81,200.08 75.86,180.96 76.91,162.57 77.95,145.03 79.00,128.47 80.05,113.07 81.10,98.96 82.15,86.08 83.20,74.47 84.25,64.17 85.30,55.20 86.35,47.56 87.39,41.26 88.44,36.46 89.49,33.04 90.54,30.91 91.59,30.03 92.64,30.36 93.69,31.84 94.74,34.41 95.79,38.00 96.83,42.65 97.88,48.08 98.93,54.20 99.98,60.88 101.03,68.00 102.08,75.47 103.13,83.15 104.18,90.95 105.23,98.75 106.27,106.45 107.32,113.99 108.37,121.32 109.42,128.40 110.47,135.21 111.52,141.74 112.57,147.95 113.62,153.86 114.67,159.51 115.71,164.92 116.76,170.10 117.81,175.07 118.86,179.83 119.91,184.41 120.96,188.78 122.01,192.95 123.06,196.95 124.11,200.78 125.15,204.43 126.20,207.92 127.25,211.26 128.30,214.48 129.35,217.60 130.40,220.71 131.45,223.84 132.50,227.07 133.55,230.46 134.59,234.09 135.64,238.03 136.69,242.38 137.74,247.26 138.79,252.66 139.84,258.62 140.89,265.18 141.94,272.34 142.99,280.08 144.03,288.39 145.08,297.26 146.13,306.58 147.18,316.22 148.23,326.08 149.28,336.05 150.33,346.02 151.38,355.86 152.43,365.45 153.47,374.60 154.52,383.24 155.57,391.30 156.62,398.70 157.67,405.38 158.72,411.31 159.77,416.47 160.82,420.82 161.87,424.32 162.91,427.11 163.96,429.23 165.01,430.76 166.06,431.77 167.11,432.32 168.16,432.50 169.21,432.38 170.26,432.09 171.31,431.72 172.35,431.36 173.40,431.09 174.45,430.97 175.50,431.07 176.55,431.43 177.60,432.16 178.65,433.23 179.70,434.66 180.75,436.44 181.79,438.54 182.84,440.95 183.89,443.62 184.94,446.52 185.99,449.60 187.04,452.76 188.09,455.96 189.14,459.13 190.19,462.23 191.23,465.21 192.28,468.04 193.33,470.65 194.38,473.02 195.43,475.14 196.48,477.02 197.53,478.65 198.58,480.03 199.63,481.17 200.67,482.07 201.72,482.72 202.77,483.15 203.82,483.39 204.87,483.44 205.92,483.33 206.97,483.08 208.02,482.70 209.07,482.22 210.11,481.66 211.16,481.07 212.21,480.47 213.26,479.92 214.31,479.43 215.36,479.04 216.41,478.78 217.46,478.69 218.51,478.81 219.55,479.13 220.60,479.65 221.65,480.37 222.70,481.28 223.75,482.37 224.80,483.62 225.85,485.01 226.90,486.49 227.95,488.04 228.99,489.62 230.04,491.20 231.09,492.75 232.14,494.24 233.19,495.67 234.24,496.98 235.29,498.17 236.34,499.23 237.39,500.16 238.43,500.94 239.48,501.58 240.53,502.06 241.58,502.39 242.63,502.55 243.68,502.57 244.73,502.45 245.78,502.21 246.83,501.86 247.87,501.42 248.92,500.91 249.97,500.36 251.02,499.78 252.07,499.21 253.12,498.67 254.17,498.19 255.22,497.79 256.27,497.48 257.31,497.28 258.36,497.20 259.41,497.26 260.46,497.43 261.51,497.71 262.56,498.09 263.61,498.54 264.66,499.06 265.71,499.61 266.75,500.18 267.80,500.74 268.85,501.26 269.90,501.73 270.95,502.13 272.00,502.45 273.05,502.68 274.10,502.81 275.15,502.82 276.19,502.73 277.24,502.55 278.29,502.29 279.34,501.95 280.39,501.56 281.44,501.12 282.49,500.66 283.54,500.20 284.59,499.76 285.63,499.37 286.68,499.04 287.73,498.78 288.78,498.62 289.83,498.57 290.88,498.65 291.93,498.85 292.98,499.19 294.03,499.64 295.07,500.21 296.12,500.88 297.17,501.65 298.22,502.49 299.27,503.40 300.32,504.33 301.37,505.27 302.42,506.20 303.47,507.10 304.51,507.94 305.56,508.71 306.61,509.38 307.66,509.95 308.71,510.39 309.76,510.71 310.81,510.90 311.86,510.96 312.91,510.88 313.95,510.68 315.00,510.33 316.05,509.87 317.10,509.31 318.15,508.67 319.20,507.97 320.25,507.22 321.30,506.46 322.35,505.70 323.39,504.98 324.44,504.33 325.49,503.76 326.54,503.31 327.59,502.98 328.64,502.78 329.69,502.74 330.74,502.85 331.79,503.14 332.83,503.57 333.88,504.13 334.93,504.81 335.98,505.58 337.03,506.42 338.08,507.31 339.13,508.23 340.18,509.15 341.23,510.04 342.27,510.90 343.32,511.70 344.37,512.44 345.42,513.10 346.47,513.69 347.52,514.18 348.57,514.61 349.62,514.96 350.67,515.24 351.71,515.48 352.76,515.66 353.81,515.80 354.86,515.91 355.91,515.99 356.96,516.06 358.01,516.12 359.06,516.18 360.11,516.23 361.15,516.29 362.20,516.36 363.25,516.44 364.30,516.54 365.35,516.65 366.40,516.79 367.45,516.93 368.50,517.10 369.55,517.28 370.59,517.47 371.64,517.68 372.69,517.90 373.74,518.12 374.79,518.34 375.84,518.56 376.89,518.76 377.94,518.96 378.99,519.13 380.03,519.27 381.08,519.39 382.13,519.46 383.18,519.50 384.23,519.49 385.28,519.44 386.33,519.34 387.38,519.19 388.43,518.98 389.47,518.71 390.52,518.40 391.57,518.04 392.62,517.63 393.67,517.19 394.72,516.72 395.77,516.22 396.82,515.71 397.87,515.20 398.91,514.70 399.96,514.23 401.01,513.78 402.06,513.39 403.11,513.04 404.16,512.77 405.21,512.58 406.26,512.46 407.31,512.43 408.35,512.47 409.40,512.60 410.45,512.80 411.50,513.08 412.55,513.42 413.60,513.82 414.65,514.27 415.70,514.74 416.75,515.24 417.79,515.75 418.84,516.27 419.89,516.77 420.94,517.26 421.99,517.72 423.04,518.16 424.09,518.56 425.14,518.93 426.19,519.27 427.23,519.57 428.28,519.83 429.33,520.05 430.38,520.25 431.43,520.41 432.48,520.55 433.53,520.67 434.58,520.76 435.63,520.84 436.67,520.90 437.72,520.95 438.77,520.99 439.82,521.02 440.87,521.04 441.92,521.06 442.97,521.07 444.02,521.08 445.07,521.09 446.11,521.09 447.16,521.09 448.21,521.10 449.26,521.10 450.31,521.10 451.36,521.10 452.41,521.10 453.46,521.10 454.51,521.10 455.55,521.10 456.60,521.10 457.65,521.10 458.70,521.10 459.75,521.10 460.80,521.10 461.85,521.10 462.90,521.10 463.95,521.10 464.99,521.10 466.04,521.10 467.09,521.10 468.14,521.10 469.19,521.10 470.24,521.10 471.29,521.10 472.34,521.10 473.39,521.10 474.43,521.10 475.48,521.10 476.53,521.10 477.58,521.10 478.63,521.10 479.68,521.10 480.73,521.10 481.78,521.10 482.83,521.10 483.87,521.10 484.92,521.10 485.97,521.10 487.02,521.10 488.07,521.10 489.12,521.10 490.17,521.10 491.22,521.10 492.27,521.10 493.31,521.10 494.36,521.10 495.41,521.10 496.46,521.10 497.51,521.10 498.56,521.10 499.61,521.10 500.66,521.10 501.71,521.10 502.75,521.10 503.80,521.10 504.85,521.10 505.90,521.10 506.95,521.10 508.00,521.10 509.05,521.10 510.10,521.10 511.15,521.10 512.19,521.10 513.24,521.10 514.29,521.10 515.34,521.10 516.39,521.10 517.44,521.10 518.49,521.10 519.54,521.10 520.59,521.10 521.63,521.10 522.68,521.10 523.73,521.10 524.78,521.10 525.83,521.10 526.88,521.10 527.93,521.10 528.98,521.10 530.03,521.10 531.07,521.10 532.12,521.10 533.17,521.10 534.22,521.10 535.27,521.10 536.32,521.10 537.37,521.10 538.42,521.10 539.47,521.10 540.51,521.10 541.56,521.10 542.61,521.10 543.66,521.10 544.71,521.10 545.76,521.10 546.81,521.10 547.86,521.10 548.91,521.10 549.95,521.10 551.00,521.10 552.05,521.10 553.10,521.10 554.15,521.10 555.20,521.10 556.25,521.10 557.30,521.10 558.35,521.10 559.39,521.10 560.44,521.10 561.49,521.10 562.54,521.10 563.59,521.10 564.64,521.10 565.69,521.10 566.74,521.10 567.79,521.10 568.83,521.10 569.88,521.10 570.93,521.10 571.98,521.10 573.03,521.10 574.08,521.10 575.13,521.10 576.18,521.10 577.23,521.10 578.27,521.10 579.32,521.10 580.37,521.10 581.42,521.10 582.47,521.10 583.52,521.10 584.57,521.10 585.62,521.10 586.67,521.10 587.71,521.10 588.76,521.10 589.81,521.10 590.86,521.10 591.91,521.10 592.96,521.10 594.01,521.10 595.06,521.10 596.11,521.10 597.15,521.10 598.20,521.10 599.25,521.10 600.30,521.10 601.35,521.10 602.40,521.10 603.45,521.10 604.50,521.10 605.55,521.10 606.59,521.10"
       style="fill:none;stroke:#e37e00;stroke-width:3;stroke-linecap:round;stroke-linejoin:round;stroke-miterlimit:10"
       clip-path="url(#cpNDMuODEzM3w2MzMuMzkzfDU0NS42NTZ8NS40Nzk0NQ==)"
       id="polyline21"
       transform="translate(0,24.068966)" />
  </g>
  <defs
     id="defs23">
    <clipPath
       id="cpMHw3MjB8NTc2fDA=">
      <rect
         x="0"
         y="0"
         width="720"
         height="576"
         id="rect26"
         style="fill:none;stroke:#000000;stroke-linecap:round;stroke-linejoin:round;stroke-miterlimit:10" />
    </clipPath>
  </defs>
  <polyline
     points="70.61,545.66 70.61,5.48 "
     style="fill:none;stroke:#000000;stroke-width:1.07000005;stroke-linecap:butt;stroke-linejoin:round;stroke-miterlimit:10"
     clip-path="url(#cpMHw3MjB8NTc2fDA=)"
     id="polyline28"
     transform="matrix(1,0,0,0.68051271,0,198.4004)" />
  <polyline
     points="70.61,545.66 633.39,545.66 "
     style="fill:none;stroke:#000000;stroke-width:1.07000005;stroke-linecap:butt;stroke-linejoin:round;stroke-miterlimit:10"
     clip-path="url(#cpMHw3MjB8NTc2fDA=)"
     id="polyline54"
     transform="translate(0,24.068966)" />
  <polyline
     points="70.61,548.40 70.61,545.66 "
     style="fill:none;stroke:#333333;stroke-width:1.07000005;stroke-linecap:butt;stroke-linejoin:round;stroke-miterlimit:10"
     clip-path="url(#cpMHw3MjB8NTc2fDA=)"
     id="polyline56"
     transform="translate(0,24.068966)" />
  <polyline
     points="203.28,548.40 203.28,545.66 "
     style="fill:none;stroke:#333333;stroke-width:1.07000005;stroke-linecap:butt;stroke-linejoin:round;stroke-miterlimit:10"
     clip-path="url(#cpMHw3MjB8NTc2fDA=)"
     id="polyline58"
     transform="translate(0,24.068966)" />
  <polyline
     points="335.95,548.40 335.95,545.66 "
     style="fill:none;stroke:#333333;stroke-width:1.07000005;stroke-linecap:butt;stroke-linejoin:round;stroke-miterlimit:10"
     clip-path="url(#cpMHw3MjB8NTc2fDA=)"
     id="polyline60"
     transform="translate(0,24.068966)" />
  <polyline
     points="468.62,548.40 468.62,545.66 "
     style="fill:none;stroke:#333333;stroke-width:1.07000005;stroke-linecap:butt;stroke-linejoin:round;stroke-miterlimit:10"
     clip-path="url(#cpMHw3MjB8NTc2fDA=)"
     id="polyline62"
     transform="translate(0,24.068966)" />
  <polyline
     points="601.29,548.40 601.29,545.66 "
     style="fill:none;stroke:#333333;stroke-width:1.07000005;stroke-linecap:butt;stroke-linejoin:round;stroke-miterlimit:10"
     clip-path="url(#cpMHw3MjB8NTc2fDA=)"
     id="polyline64"
     transform="translate(0,24.068966)" />
  <g
     clip-path="url(#cpMHw3MjB8NTc2fDA=)"
     id="g66"
     transform="translate(0,24.068966)">
    <text
       x="66.110001"
       y="567.03003"
       style="font-size:18px;font-family:Arial;fill:#4d4d4d"
       id="text68">0</text>
  </g>
  <g
     clip-path="url(#cpMHw3MjB8NTc2fDA=)"
     id="g70"
     transform="translate(0,24.068966)">
    <text
       x="196.28"
       y="567.03003"
       style="font-size:18px;font-family:Arial;fill:#4d4d4d"
       id="text72">25</text>
  </g>
  <g
     clip-path="url(#cpMHw3MjB8NTc2fDA=)"
     id="g74"
     transform="translate(0,24.068966)">
    <text
       x="328.94"
       y="567.03003"
       style="font-size:18px;font-family:Arial;fill:#4d4d4d"
       id="text76">50</text>
  </g>
  <g
     clip-path="url(#cpMHw3MjB8NTc2fDA=)"
     id="g78"
     transform="translate(0,24.068966)">
    <text
       x="461.60999"
       y="567.03003"
       style="font-size:18px;font-family:Arial;fill:#4d4d4d"
       id="text80">75</text>
  </g>
  <g
     clip-path="url(#cpMHw3MjB8NTc2fDA=)"
     id="g82"
     transform="translate(0,24.068966)">
    <text
       x="591.78003"
       y="567.03003"
       style="font-size:18px;font-family:Arial;fill:#4d4d4d"
       id="text84">100</text>
  </g>
  <g
     id="g86"
     transform="translate(0,24.068966)">
    <text
       x="307.20001"
       y="590.38"
       style="font-size:18px;font-family:Arial"
       id="text88">Distance</text>
  </g>
  <g
     id="g104"
     transform="translate(-461.12055,183.83128)">
    <text
       x="669.84003"
       y="276.23999"
       style="font-size:18px;font-family:Arial;fill:#1a476f"
       id="text106">Atlanta</text>
  </g>
  <g
     id="g108"
     transform="translate(-548.55687,23.771857)">
    <text
       x="669.84003"
       y="293.51999"
       style="font-size:18px;font-family:Arial;fill:#e37e00"
       id="text110">New York</text>
  </g>
</svg>
