<?xml version="1.0" encoding="UTF-8" standalone="no"?>
<!-- Ch2-bars -->

<svg version="1.1" viewBox="0 0 3000 1000" xmlns="http://www.w3.org/2000/svg">
	<desc></desc>
	<rect x="0.00" y="0.00" width="1490" height="990" style="fill: #FFFFFF; stroke: #000000; stroke-width: 5"/>
	<rect x="100" y="210" width="300" height="80" style="fill: #999999; stroke: #000000; stroke-width: 15"/>
	<rect x="400" y="210" width="1000" height="80" style="fill: #ffffff; stroke: #000000; stroke-width: 15"/>
	<rect x="100" y="460" width="900" height="80" style="fill: #999999; stroke: #000000; stroke-width: 15"/>
	<rect x="1000" y="460" width="400" height="80" style="fill: #ffffff; stroke: #000000; stroke-width: 15"/>
	<rect x="100" y="710" width="600" height="80" style="fill: #999999; stroke: #000000; stroke-width: 15"/>
	<rect x="700" y="710" width="700" height="80" style="fill: #ffffff; stroke: #000000; stroke-width: 15"/>

	<rect x="1500" y="0" width="1490" height="990" style="fill: #FFFFFF; stroke: #000000; stroke-width: 5"/>
	<line x1="1600" y1="250" x2="1900" y2="250" style="stroke: #000000; stroke-width: 15"/>
	<line x1="1900" y1="250" x2="2900" y2="250" style="stroke: #666666; stroke-width: 5"/>
	<circle cx="1900" cy="250" r="40" style="stroke: #000000; stroke-width: 5; fill: #000000;"/>
	<line x1="1600" y1="500" x2="2500" y2="500" style="stroke: #000000; stroke-width: 15"/>
	<line x1="2500" y1="500" x2="2900" y2="500" style="stroke: #666666; stroke-width: 5"/>
	<circle cx="2500" cy="500" r="40" style="stroke: #000000; stroke-width: 5; fill: #000000;"/>
	<line x1="1600" y1="750" x2="2200" y2="750" style="stroke: #000000; stroke-width: 15"/>
	<line x1="2200" y1="750" x2="2900" y2="750" style="stroke: #666666; stroke-width: 5"/>
	<circle cx="2200" cy="750" r="40" style="stroke: #000000; stroke-width: 5; fill: #000000;"/>

</svg>
