<?xml version="1.0" encoding="UTF-8" standalone="no"?>
<!-- Ch2-different-lines -->

<svg version="1.1" viewBox="0 0 3000 1000" xmlns="http://www.w3.org/2000/svg">
	<desc></desc>
	<rect x="0.00" y="0.00" width="2990" height="990" style="fill: #FFFFFF; stroke: #000000; stroke-width: 5"/>
	<rect x="100" y="210" width="150" height="80" style="fill: #999999; stroke: #000000; stroke-width: 15"/>
	<rect x="100" y="460" width="450" height="80" style="fill: #999999; stroke: #000000; stroke-width: 15"/>
	<rect x="100" y="710" width="300" height="80" style="fill: #999999; stroke: #000000; stroke-width: 15"/>

	<rect x="1200" y="210" width="150" height="80" style="fill: #999999; stroke: #000000; stroke-width: 15"/>
	<rect x="1100" y="460" width="450" height="80" style="fill: #999999; stroke: #000000; stroke-width: 15"/>
	<rect x="1350" y="710" width="300" height="80" style="fill: #999999; stroke: #000000; stroke-width: 15"/>

	<rect x="2200" y="210" width="150" height="80" style="fill: #999999; stroke: #000000; stroke-width: 15" transform="rotate(30 2200 250)"/>
	<rect x="2400" y="720" width="450" height="20" style="fill: #999999; stroke: #000000; stroke-width: 15" transform="rotate(-45 2100 500)"/>
	<rect x="2350" y="410" width="300" height="140" style="fill: #999999; stroke: #000000; stroke-width: 15" transform="rotate(70 2350 750)"/>

	<!--
	<line x1="100" y1="900" x2="2800" y2="900" style="stroke: #000000; stroke-width: 15"/>
	<line x1="2720" y1="820" x2="2800" y2="905" style="stroke: #000000; stroke-width: 15"/>
	<line x1="2720" y1="980" x2="2800" y2="895" style="stroke: #000000; stroke-width: 15"/>
	-->
</svg>
