<?xml version="1.0" encoding="UTF-8" standalone="no"?>
<!-- Ch2-icons -->

<!-- train icon vectorized by Wikimedia user Sgt bilko, drawn by Wikimedia user Eschweiler, CC BY-SA 3.0, https://commons.wikimedia.org/w/index.php?curid=1158450-->

<svg version="1.1" viewBox="0 0 10000 5000" xmlns="http://www.w3.org/2000/svg">
	<desc></desc>
	<rect x="0.00" y="0.00" width="9990" height="4990" style="fill: #FFFFFF; stroke: #000000; stroke-width: 5"/>

	<defs>
		<g id="iconCustom">
			<path style= "fill:black;fill-opacity:1;fill-rule:evenodd;stroke:none;stroke-width:0.2;stroke-linecap:butt;stroke-linejoin:miter;stroke-miterlimit:4;stroke-dasharray:none;stroke-opacity:1"
			       d="M 244.49897,496.91443 L 244.7515,489.21202 C 248.0345,485.92902 253.50824,465.0235 253.3378,463.95821 C 252.32764,457.64475 252.20138,448.17456 251.69631,446.02799 C 251.69631,446.02799 249.42346,442.3662 247.40316,441.10351 C 247.40316,441.10351 242.65386,441.27299 242.47866,441.1035 C 246.62177,437.37471 246.49581,430.60939 250.32705,424.32361 C 251.95436,421.65376 252.02572,420.86644 251.57004,418.6276 C 257.63095,414.83134 256.41542,412.1664 257.86612,411.70089 C 258.64577,411.45072 261.97329,410.72865 263.69186,407.26339 C 296.01674,412.06161 305.10812,416.35476 305.10812,416.35476 C 338.56942,405.24308 353.09036,395.64663 353.09036,395.64663 C 353.09036,395.64663 380.24797,410.78522 400.94634,414.46073 C 419.76043,409.66251 439.45841,401.20247 439.45841,401.20247 C 449.18113,409.53623 471.47382,410.20661 481.37974,414.08192 C 496.05452,409.19123 504.62831,401.95429 510.08076,394.57172 C 512.90189,390.75192 514.15862,386.54315 515.31285,382.54178 C 516.24603,379.30669 517.3746,376.33837 517.15515,372.794 C 516.693,365.32992 517.8281,357.75562 514.75757,352.57247 C 510.15211,344.79832 504.87294,339.00579 499.20267,334.54098 C 493.44004,330.00344 487.25272,326.84966 478.34928,325.94611 C 478.34928,325.94611 473.905,324.77701 469.91504,327.24222 C 464.25066,330.74198 454.06917,332.09594 445.14051,335.16375 C 439.83106,334.1197 435.27279,331.40376 424.01,326.04724 C 416.92399,322.67717 407.94414,320.48713 402.58784,317.35981 C 391.85497,319.88519 378.36384,323.38822 367.73758,326.45119 C 360.67326,328.10977 346.05323,321.37637 343.2732,318.82562 C 334.28755,310.58104 325.60459,305.61677 319.25025,303.21768 C 319.25025,303.21768 310.8997,301.37741 292.98629,303.59649 C 285.78895,304.98545 264.32321,309.53113 254.60049,338.95183 C 254.60049,338.95183 251.19123,360.16503 246.64554,369.00386 C 246.64554,369.00386 228.51772,379.88989 216.76935,415.98886 C 215.24714,420.66613 215.28588,433.2963 211.16393,442.11365 C 211.16393,442.11365 208.45601,441.45771 205.60809,445.14411 C 206.3657,451.7101 202.44378,466.38716 204.59794,471.91315 C 207.50213,475.19615 209.90124,487.69679 212.55289,491.23232 L 212.55289,497.16697 C 211.98468,497.10383 211.16486,496.37999 210.34411,498.90537 L 187.61542,498.91849 L 187.67617,500.08023 L 183.69617,500.08321 L 183.6462,498.88359 C 181.12082,499.19926 181.40776,498.01386 179.63999,497.76133 L 148.29726,543.09827 L 173.45915,579.10662 L 173.57907,583.02993 L 158.636,583.02993 L 158.67453,581.78256 L 153.78956,581.9255 C 153.78956,581.9255 152.28323,585.2252 149.69394,585.13591 L 149.63392,617.90821 L 141.8637,617.87374 C 139.72084,617.07017 138.07881,615.76952 134.71884,615.26552 C 131.7801,616.19078 127.92684,618.42419 128.04213,623.82409 C 128.15431,629.16675 126.34215,634.0692 134.92543,635.85374 L 137.62938,635.85636 L 137.59775,634.7622 L 144.6418,634.87422 C 144.6418,634.87422 144.76696,640.82855 144.75471,640.84844 C 144.74907,640.85759 143.78386,640.79038 143.77423,640.83002 C 141.11093,651.80159 147.98875,662.82072 150.2309,664.5538 C 162.98408,674.90786 168.60928,674.06055 171.26291,674.95382 C 179.84921,674.70127 191.64781,665.94929 196.39045,657.52868 C 202.83017,646.54328 196.26418,638.96713 196.26418,638.96713 C 197.65314,637.07309 197.92855,635.0485 197.92855,635.0485 L 210.65888,635.05182 L 210.65882,632.77949 C 214.69943,632.65322 214.69946,635.05279 214.69946,635.05279 C 215.07827,659.17018 236.92282,669.14544 236.92282,669.14544 C 259.77752,680.00458 275.43488,669.65052 275.43488,669.65052 C 292.10511,661.98895 295.74848,648.29932 298.66913,641.46537 C 298.69221,641.41138 298.79466,634.80025 298.79466,634.80025 L 304.60305,634.92652 C 304.60305,634.92652 305.73161,635.44085 305.86866,643.76329 C 311.92958,666.49172 330.10939,671.92336 330.10939,671.92336 C 346.14556,680.38338 363.19189,673.43859 363.19189,673.43859 C 385.54152,664.34722 387.94063,647.42716 387.94063,647.42716 C 389.13277,646.79603 389.16474,641.09673 389.90848,637.06422 C 390.36288,634.60052 390.97108,635.05279 390.97108,635.05279 L 396.52692,634.92652 C 396.52692,634.92652 398.79154,637.02015 398.68266,641.42439 C 399.44027,655.18771 411.62281,667.06335 415.71982,670.40813 C 429.60942,679.1207 440.7211,678.11054 440.7211,678.11054 C 458.52503,677.10039 465.97491,669.52425 470.26806,665.35737 C 477.69368,658.15015 480.19025,652.18077 481.54893,645.41765 C 481.56278,645.3487 481.75854,638.08325 481.75854,638.08325 C 483.27377,638.20952 482.6384,635.02874 482.6384,635.02874 L 499.81502,635.05279 C 499.81502,635.05279 502.29301,638.20432 497.54218,645.40685 C 501.33025,662.57944 507.76997,666.49379 507.76997,666.49379 C 516.60881,674.95382 527.97307,675.08009 527.97307,675.08009 C 543.88297,671.79709 548.93367,663.5896 548.93367,663.5896 C 554.36327,657.78122 555.87847,646.29073 555.87847,646.29073 C 554.30017,644.83864 553.72047,640.48452 553.72047,640.48452 L 553.60567,635.99981 C 554.99457,636.12608 554.80517,635.05279 555.18617,634.8009 L 581.70047,634.98966 C 581.97897,635.23665 581.42157,635.75291 581.74487,635.8465 C 586.89157,637.33634 590.89997,632.52767 591.73887,631.70666 L 591.69207,630.00053 L 590.65207,630.0606 L 590.47617,617.8802 C 590.47617,617.8802 589.21357,615.60735 586.49877,614.91287 L 554.61577,614.97601 C 555.94167,613.90272 551.58537,612.89256 551.58537,612.89256 L 551.53077,612.07617 L 552.52707,612.05085 L 552.72177,608.97822 L 551.64847,608.91509 L 551.64847,553.98805 C 550.70147,547.67459 543.63037,548.93728 543.63037,548.93728 L 543.75557,549.97904 L 518.88165,549.12669 C 519.00792,547.864 516.60881,547.29579 516.60881,547.29579 L 516.73508,509.22566 C 518.62912,509.4782 519.26046,507.77357 519.26046,507.77357 L 567.49527,508.02611 C 567.49527,508.02611 567.43207,509.60447 569.76807,510.23582 C 573.70457,508.88185 576.64977,504.80625 576.64977,504.80625 L 576.63497,500.95721 L 575.63957,500.8919 L 575.70277,489.9065 C 574.25067,486.6235 571.53587,485.86588 571.53587,485.86588 L 454.6107,485.86589 C 454.6107,485.86589 451.01203,487.57052 451.64337,493.82084 L 452.5085,494.01553 L 452.59039,497.16697 C 444.13036,501.52325 437.62751,496.85129 437.62751,496.85129 L 437.69064,490.97978 L 436.68869,490.8467 C 437.13063,488.13192 433.39749,485.80275 433.39749,485.80275 L 429.67256,485.99215 L 429.67255,486.93917 L 317.60876,486.93917 C 316.14111,486.70602 314.01009,489.40142 313.56815,490.22217 L 313.50501,495.77801 C 313.50501,495.77801 311.67411,495.96741 311.4847,498.93473 L 248.91838,498.80846 C 248.35017,497.16696 244.49897,496.91443 244.49897,496.91443 z" />
		</g>
	</defs>
	<g>
		<text x="50" y="400" style="font-family:Helvetica,Arial,sans-serif; font-size:300px; line-height:300px;">1/2004</text>
		<use href="#iconCustom" x="1000" y="-200"></use>
		<use href="#iconCustom" x="1600" y="-200"></use>
		<use href="#iconCustom" x="2200" y="-200"></use>
		<use href="#iconCustom" x="2800" y="-200"></use>
		<rect x="3150" y="50" width="1500" height="500" style="fill: #ffffff; stroke: #ffffff;"/>
	</g>
	<g>
		<text x="50" y="900" style="font-family:Helvetica,Arial,sans-serif; font-size:300px; line-height:300px;">2/2004</text>
		<use href="#iconCustom" x="1000" y="300"></use>
		<use href="#iconCustom" x="1600" y="300"></use>
		<use href="#iconCustom" x="2200" y="300"></use>
		<use href="#iconCustom" x="2800" y="300"></use>
		<rect x="3150" y="550" width="1500" height="500" style="fill: #ffffff; stroke: #ffffff;"/>
	</g>
	<g>
		<text x="50" y="1400" style="font-family:Helvetica,Arial,sans-serif; font-size:300px; line-height:300px;">3/2004</text>
		<use href="#iconCustom" x="1000" y="800"></use>
		<use href="#iconCustom" x="1600" y="800"></use>
		<use href="#iconCustom" x="2200" y="800"></use>
	</g>
	<g>
		<text x="50" y="1900" style="font-family:Helvetica,Arial,sans-serif; font-size:300px; line-height:300px;">4/2004</text>
		<use href="#iconCustom" x="1000" y="1300"></use>
		<use href="#iconCustom" x="1600" y="1300"></use>
		<use href="#iconCustom" x="2200" y="1300"></use>
		<rect x="2730" y="1550" width="1500" height="500" style="fill: #ffffff; stroke: #ffffff;"/>
	</g>
	<g>
		<text x="50" y="2400" style="font-family:Helvetica,Arial,sans-serif; font-size:300px; line-height:300px;">5/2004</text>
		<use href="#iconCustom" x="1000" y="1800"></use>
		<use href="#iconCustom" x="1600" y="1800"></use>
		<use href="#iconCustom" x="2200" y="1800"></use>
		<use href="#iconCustom" x="2800" y="1800"></use>
		<rect x="3250" y="2050" width="1500" height="500" style="fill: #ffffff; stroke: #ffffff;"/>
	</g>
	<g>
		<text x="50" y="2900" style="font-family:Helvetica,Arial,sans-serif; font-size:300px; line-height:300px;">6/2004</text>
		<use href="#iconCustom" x="1000" y="2300"></use>
		<use href="#iconCustom" x="1600" y="2300"></use>
		<use href="#iconCustom" x="2200" y="2300"></use>
		<use href="#iconCustom" x="2800" y="2300"></use>
		<use href="#iconCustom" x="3400" y="2300"></use>
		<rect x="3750" y="2550" width="1500" height="500" style="fill: #ffffff; stroke: #ffffff;"/>
	</g>
	<text x="50" y="3520" style="font-family:Helvetica,Arial,sans-serif; font-size:200px; line-height:200px;">Each icon represents 1% of trains cancelled or delayed.</text>

<!--  3.5 3.5 3.0 2.9 3.7 4.4  -->
	<!--
	<line x1="100" y1="900" x2="2800" y2="900" style="stroke: #000000; stroke-width: 15"/>
	<line x1="2720" y1="820" x2="2800" y2="905" style="stroke: #000000; stroke-width: 15"/>
	<line x1="2720" y1="980" x2="2800" y2="895" style="stroke: #000000; stroke-width: 15"/>
	-->
</svg>
