<?xml version="1.0" encoding="UTF-8" standalone="no"?>
<!-- Ch2-table1-features -->

<svg version="1.1" viewBox="0 0 3000 1000" xmlns="http://www.w3.org/2000/svg">
	<desc></desc>
	<rect x="0.00" y="0.00" width="2990" height="990" style="fill: #FFFFFF; stroke: #000000; stroke-width: 5"/>

	<path d="M 900,500 L 900,400 M 900,500 L 986.6,550 M 900,500 L 813.4,550" style="fill: #ffffff; stroke: #000000; stroke-width: 15"/>
	<path d="M 1300,500 L 1300,400
						 	  M 1300,500 L 1364.3,423.4
								 M 1300,500 L 1398.5,482.6
								 M 1300,500 L 1386.6,550
								 M 1300,500 L 1334.2,594
								 M 1300,500 L 1265.8,594
								 M 1300,500 L 1213.4,550
								 M 1300,500 L 1201.5,482.6
								 M 1300,500 L 1235.7,423.4
								  " style="fill: #ffffff; stroke: #000000; stroke-width: 15"/>
	<path d="M 1700,500 L 1700,400
						 	  M 1700,500 L 1786.6,450
								 M 1700,500 L 1786.6,550
								 M 1700,500 L 1700,600
								 M 1700,500 L 1613.4,550
								 M 1700,500 L 1613.4,450
								  " style="fill: #ffffff; stroke: #000000; stroke-width: 15"/>

	<!--
	<line x1="100" y1="900" x2="2800" y2="900" style="stroke: #000000; stroke-width: 15"/>
	<line x1="2720" y1="820" x2="2800" y2="905" style="stroke: #000000; stroke-width: 15"/>
	<line x1="2720" y1="980" x2="2800" y2="895" style="stroke: #000000; stroke-width: 15"/>
-->

</svg>
