<?xml version="1.0" encoding="UTF-8" standalone="no"?>
<!-- Ch2-table1-volume -->

<svg version="1.1" viewBox="0 0 3000 1000" xmlns="http://www.w3.org/2000/svg">
	<desc></desc>
	<rect x="0.00" y="0.00" width="2990" height="990" style="fill: #FFFFFF; stroke: #000000; stroke-width: 5"/>
	<path d="M 600 , 400 L 600 , 600 L 800 , 600 L 800 , 400 Z"   style="fill: #999999; stroke: #000000; stroke-width: 15; stroke-linecap: round"/>
	<path d="M 600 , 400 L 700 , 300 L 900 , 300 L 800 , 400 Z" style="fill: #999999; stroke: #000000; stroke-width: 15; stroke-linecap: round"/>
	<path d="M 800 , 600 L 800,400 L 900,300  L 900,500 Z"  style="fill: #999999; stroke: #000000; stroke-width: 15; stroke-linecap: round"/>

	<path d="M 1200 , 400 L 1200 , 688.449914061482 L 1488.44991406148 , 688.449914061482 L 1488.44991406148 , 400 Z"    style="fill: #999999; stroke: #000000; stroke-width: 15"/>
	<path d="M 1200 , 400 L 1344.22495703074 , 255.775042969259 L 1632.67487109222 , 255.775042969259 L 1488.44991406148 , 400 Z"  style="fill: #999999; stroke: #000000; stroke-width: 15"/>
	<path d="M 1488.44991406148 , 688.449914061482 L 1488.44991406148 400 L 1632.67487109222 , 255.775042969259 L 1632.67487109222 , 544.224957030741 Z"  style="fill: #999999; stroke: #000000; stroke-width: 15"/>

	<path d="M 1800 , 400 L 1800 , 651.984209978975 L 2051.98420997897 , 651.984209978975 L 2051.98420997897 , 400 Z"    style="fill: #999999; stroke: #000000; stroke-width: 15"/>
	<path d="M 1800 , 400 L 1925.99210498949 , 274.007895010513 L 2177.97631496846 , 274.007895010513 L 2051.98420997897 , 400 Z" style="fill: #999999; stroke: #000000; stroke-width: 15"/>
	<path d="M 2051.98420997897 , 651.984209978975 L 2051.98420997897 400 L 2177.97631496846 , 274.007895010513 L 2177.97631496846 , 525.992104989487 Z" style="fill: #999999; stroke: #000000; stroke-width: 15"/>

	<!--
	<line x1="100" y1="900" x2="2800" y2="900" style="stroke: #000000; stroke-width: 15"/>
	<line x1="2720" y1="820" x2="2800" y2="905" style="stroke: #000000; stroke-width: 15"/>
	<line x1="2720" y1="980" x2="2800" y2="895" style="stroke: #000000; stroke-width: 15"/>
	-->
</svg>
