<?xml version="1.0" encoding="UTF-8" standalone="no"?>
<!-- Ch2-table1-area -->

<svg version="1.1" viewBox="0 0 3000 1000" xmlns="http://www.w3.org/2000/svg">
	<desc></desc>
	<rect x="0.00" y="0.00" width="2990" height="990" style="fill: #FFFFFF; stroke: #000000; stroke-width: 5"/>
	<circle cx="200" cy="500" r="100" style="fill: #999999; stroke: #000000; stroke-width: 15"/>
	<circle cx="550" cy="500" r="173.21" style="fill: #999999; stroke: #000000; stroke-width: 15"/>
	<circle cx="950" cy="500" r="141.42" style="fill: #999999; stroke: #000000; stroke-width: 15"/>

	<path d="M 1400,500 L 1800,500 A 400 400 0 0 0 1775.88,363.19 Z" style="fill: #999999; stroke: #000000; stroke-width: 15" transform="rotate(10 1400 500)"/>
	<path d="M 1900,500 L 2300,500 A 400 400 0 0 0 2100,153.59 Z" style="fill: #999999; stroke: #000000; stroke-width: 15" transform="rotate(30 1900 500)"/>
	<path d="M 2400,500 L 2800,500 A 400 400 0 0 0 2706.42,242.89 Z" style="fill: #999999; stroke: #000000; stroke-width: 15" transform="rotate(20 2400 500)"/>

	<!--<line x1="100" y1="900" x2="2800" y2="900" style="stroke: #000000; stroke-width: 15"/>
	<line x1="2720" y1="820" x2="2800" y2="905" style="stroke: #000000; stroke-width: 15"/>
	<line x1="2720" y1="980" x2="2800" y2="895" style="stroke: #000000; stroke-width: 15"/>-->
</svg>
