<?xml version="1.0" encoding="UTF-8" standalone="no"?>
<svg
   xmlns:dc="http://purl.org/dc/elements/1.1/"
   xmlns:cc="http://creativecommons.org/ns#"
   xmlns:rdf="http://www.w3.org/1999/02/22-rdf-syntax-ns#"
   xmlns:svg="http://www.w3.org/2000/svg"
   xmlns="http://www.w3.org/2000/svg"
   xmlns:sodipodi="http://sodipodi.sourceforge.net/DTD/sodipodi-0.dtd"
   xmlns:inkscape="http://www.inkscape.org/namespaces/inkscape"
   viewBox="0 0 720.00 576.00"
   id="svg2"
   version="1.1"
   inkscape:version="0.91 r13725"
   sodipodi:docname="8-hurricane3.svg"
   inkscape:export-filename="/Users/robert/Dropbox/Books/Dataviz CRC-ASA/images/8-hurricane3.png"
   inkscape:export-xdpi="300"
   inkscape:export-ydpi="300">
  <metadata
     id="metadata80">
    <rdf:RDF>
      <cc:Work
         rdf:about="">
        <dc:format>image/svg+xml</dc:format>
        <dc:type
           rdf:resource="http://purl.org/dc/dcmitype/StillImage" />
      </cc:Work>
    </rdf:RDF>
  </metadata>
  <sodipodi:namedview
     pagecolor="#ffffff"
     bordercolor="#666666"
     borderopacity="1"
     objecttolerance="10"
     gridtolerance="10"
     guidetolerance="10"
     inkscape:pageopacity="0"
     inkscape:pageshadow="2"
     inkscape:window-width="1129"
     inkscape:window-height="704"
     id="namedview78"
     showgrid="false"
     inkscape:zoom="0.40972222"
     inkscape:cx="35.389831"
     inkscape:cy="288"
     inkscape:window-x="0"
     inkscape:window-y="0"
     inkscape:window-maximized="0"
     inkscape:current-layer="svg2" />
  <defs
     id="defs4">
    <style
       type="text/css"
       id="style6"><![CDATA[
    line, polyline, path, rect, circle {
      fill: none;
      stroke: #000000;
      stroke-linecap: round;
      stroke-linejoin: round;
      stroke-miterlimit: 10.00;
    }
  ]]></style>
  </defs>
  <rect
     width="100%"
     height="100%"
     style="stroke: none; fill: #FFFFFF;"
     id="rect8" />
  <defs
     id="defs10">
    <clipPath
       id="cpMi43Mzk3M3w2NTIuNzA0fDU3My4yNnww">
      <rect
         x="2.74"
         y="0.00"
         width="649.96"
         height="573.26"
         id="rect13" />
    </clipPath>
  </defs>
  <polyline
     points="32.28,506.56 38.89,504.34 40.45,503.55 48.62,500.19 56.79,497.88 64.96,496.12 66.63,495.76 73.13,493.29 81.30,490.68 89.47,488.51 94.84,487.19 97.64,485.97 105.81,482.65 113.98,480.00 118.59,478.62 122.14,476.85 130.31,473.19 138.48,470.30 139.17,470.04 146.65,465.86 154.82,462.30 156.77,461.47 162.99,457.63 171.16,453.56 172.49,452.90 179.33,448.27 186.51,444.32 187.50,443.59 195.67,437.80 198.93,435.75 203.84,431.86 210.61,427.18 212.01,425.98 220.17,419.45 221.30,418.60 228.34,412.31 231.19,410.03 236.51,405.02 240.69,401.46 244.68,397.54 249.87,392.88 252.85,389.85 258.68,384.31 261.02,381.82 267.03,375.73 269.19,373.30 274.82,367.16 277.36,364.11 282.06,358.59 285.53,354.16 288.85,350.01 293.70,343.60 295.35,341.44 301.72,332.87 301.87,332.66 307.70,324.29 310.03,321.02 313.64,315.72 318.20,309.28 319.59,307.15 325.27,298.57 326.37,296.92 330.43,290.00 334.54,283.37 335.60,281.43 340.17,272.85 342.71,268.24 344.64,264.28 348.81,255.71 350.88,251.53 352.84,247.13 356.70,238.56 359.05,233.69 360.68,229.99 364.70,221.41 367.22,216.56 368.95,212.84 373.01,204.27 375.39,199.32 376.92,195.69 380.36,187.12 383.56,179.35 383.87,178.55 387.09,169.97 390.54,161.40 391.73,158.52 394.19,152.83 398.04,144.25 399.90,140.26 402.54,135.68 407.87,127.11 408.06,126.81 416.12,118.53 416.23,118.42 424.40,113.31 431.41,109.96 432.57,109.37 440.74,103.98 443.48,101.39 448.91,95.76 451.09,92.81 457.08,84.55 457.28,84.24 463.01,75.67 465.25,72.76 469.57,67.09 473.42,62.38 476.82,58.52 481.59,52.61 484.18,49.95 489.76,42.61 491.15,41.37 497.89,32.80 497.93,32.74 506.09,26.06 514.26,32.42 514.37,32.80 517.27,41.37 520.93,49.95 522.43,52.63 526.05,58.52 530.60,63.76 537.17,67.09 538.77,67.66 546.94,67.50 549.00,67.09 555.11,65.63 563.28,63.68 571.45,63.81 575.89,67.09 579.62,70.94 581.86,75.67 586.29,84.24 587.79,86.35 592.96,92.81 595.96,95.24 604.12,100.81 604.94,101.39 612.29,106.52 615.98,109.96 620.46,116.51 621.52,118.53 623.16,127.11 622.55,135.68 620.59,144.25 620.46,144.64 617.97,152.83 615.07,161.40 612.29,169.21 612.02,169.97 609.23,178.55 606.20,187.12 604.12,192.38 602.87,195.69 599.38,204.27 595.96,211.66 595.49,212.84 593.47,221.41 594.18,229.99 595.96,233.26 598.15,238.56 599.21,247.13 597.65,255.71 595.96,259.76 594.17,264.28 589.66,272.85 587.79,275.71 584.28,281.43 579.62,288.19 578.41,290.00 572.07,298.57 571.45,299.35 565.22,307.15 563.28,309.51 558.03,315.72 555.11,319.20 550.62,324.29 546.94,328.57 543.01,332.87 538.77,337.64 535.15,341.44 530.60,346.43 527.09,350.01 522.43,355.08 518.94,358.59 514.26,363.75 510.90,367.16 506.09,372.74 503.30,375.73 497.93,382.63 496.53,384.31 491.16,392.88 489.76,396.26 487.53,401.46 484.91,410.03 481.59,417.32 481.06,418.60 474.24,427.18 473.42,427.77 465.25,434.74 464.23,435.75 457.08,440.54 451.98,444.32 448.91,446.09 440.74,451.11 438.02,452.90 432.57,455.94 424.40,460.50 422.75,461.47 416.23,464.97 408.06,469.17 406.42,470.04 399.90,473.38 391.73,477.28 388.91,478.62 383.56,481.17 375.39,484.78 369.63,487.19 367.22,488.25 359.05,491.67 350.88,494.75 348.14,495.76 342.71,497.95 334.54,501.01 326.37,503.79 324.79,504.34 318.20,506.95 310.03,509.90 301.87,512.50 300.59,512.91 293.70,515.63 285.53,518.47 277.36,520.90 275.39,521.48 269.19,523.91 261.02,526.75 252.85,529.16 249.69,530.06 244.68,532.06 236.51,535.00 228.34,537.41 223.82,538.63 220.17,540.10 212.01,543.11 203.84,545.51 197.01,547.20 "
     style="stroke-width: 1.07; stroke: none; fill: #EFF3FF;"
     clip-path="url(#cpMi43Mzk3M3w2NTIuNzA0fDU3My4yNnww)"
     id="polyline15" />
  <polyline
     points="32.28,514.09 34.86,512.91 40.45,509.91 48.62,506.88 56.79,504.74 58.52,504.34 64.96,502.00 73.13,499.52 81.30,497.40 88.14,495.76 89.47,495.25 97.64,492.13 105.81,489.50 113.92,487.19 113.98,487.17 122.14,483.50 130.31,480.46 135.69,478.62 138.48,477.21 146.65,473.35 154.82,470.12 155.02,470.04 162.99,465.55 171.16,461.80 171.86,461.47 179.33,456.84 186.96,452.90 187.50,452.53 195.67,447.12 200.47,444.32 203.84,441.87 212.01,436.51 213.21,435.75 220.17,430.42 224.96,427.18 228.34,424.42 236.39,418.60 236.51,418.50 244.68,411.84 247.15,410.03 252.85,405.16 257.63,401.46 261.02,398.44 267.78,392.88 269.19,391.57 277.36,384.39 277.46,384.31 285.53,376.60 286.47,375.73 293.70,368.42 294.98,367.16 301.87,359.79 303.01,358.59 310.03,350.65 310.59,350.01 317.69,341.44 318.20,340.79 324.26,332.87 326.37,330.04 330.53,324.29 334.54,318.67 336.60,315.72 342.44,307.15 342.71,306.74 347.93,298.57 350.88,293.84 353.32,290.00 358.55,281.43 359.05,280.57 363.68,272.85 367.22,266.70 368.70,264.28 373.56,255.71 375.39,252.23 378.26,247.13 382.76,238.56 383.56,236.95 387.29,229.99 391.56,221.41 391.73,221.05 396.02,212.84 399.90,204.56 400.06,204.27 404.79,195.69 408.06,189.56 409.89,187.12 416.23,178.91 416.63,178.55 424.40,171.90 426.96,169.97 432.57,165.97 437.93,161.40 440.74,159.13 446.82,152.83 448.91,150.76 454.65,144.25 457.08,141.59 462.75,135.68 465.25,133.06 472.85,127.11 473.42,126.61 481.59,123.85 489.76,126.50 490.49,127.11 497.93,132.60 502.52,135.68 506.09,137.72 514.26,140.75 522.43,142.98 526.50,144.25 530.60,145.79 538.77,149.97 543.97,152.83 546.94,154.37 555.11,157.55 563.28,161.05 563.73,161.40 569.87,169.97 571.03,178.55 569.98,187.12 567.82,195.69 564.98,204.27 563.28,208.26 561.36,212.84 557.32,221.41 555.11,225.55 552.79,229.99 547.96,238.56 546.94,240.23 542.79,247.13 538.77,253.35 537.28,255.71 531.66,264.28 530.60,265.85 526.15,272.85 522.43,278.36 520.52,281.43 515.00,290.00 514.26,291.16 509.99,298.57 506.09,304.89 504.80,307.15 500.07,315.72 497.93,319.46 495.36,324.29 490.24,332.87 489.76,333.61 485.15,341.44 481.59,346.44 479.23,350.01 473.42,357.61 472.71,358.59 465.85,367.16 465.25,367.86 458.68,375.73 457.08,377.57 451.15,384.31 448.91,386.85 443.39,392.88 440.74,395.93 435.67,401.46 432.57,405.25 428.41,410.03 424.40,415.49 421.96,418.60 416.23,427.06 416.15,427.18 410.18,435.75 408.06,438.03 402.40,444.32 399.90,446.31 392.11,452.90 391.73,453.14 383.56,458.61 379.59,461.47 375.39,463.85 367.22,468.78 365.25,470.04 359.05,473.34 350.88,477.77 349.39,478.62 342.71,481.97 334.54,485.98 332.13,487.19 326.37,489.93 318.20,493.70 313.58,495.76 310.03,497.38 301.87,501.03 293.70,504.25 293.49,504.34 285.53,507.87 277.36,511.02 272.07,512.91 269.19,514.12 261.02,517.43 252.85,520.29 249.32,521.48 244.68,523.43 236.51,526.58 228.34,529.26 225.84,530.06 220.17,532.41 212.01,535.39 203.84,537.87 201.24,538.63 195.67,540.87 187.50,543.72 179.33,546.08 175.07,547.20 "
     style="stroke-width: 1.07; stroke: none; fill: #DEE9F8;"
     clip-path="url(#cpMi43Mzk3M3w2NTIuNzA0fDU3My4yNnww)"
     id="polyline17" />
  <polyline
     points="32.28,519.19 40.45,514.80 45.54,512.91 48.62,511.51 56.79,508.57 64.96,506.32 73.13,504.39 73.37,504.34 81.30,501.58 89.47,499.10 97.64,496.85 101.57,495.76 105.81,494.08 113.98,491.06 122.14,488.39 125.83,487.19 130.31,485.16 138.48,481.77 146.65,478.76 147.03,478.62 154.82,474.66 162.99,471.09 165.41,470.04 171.16,466.81 179.33,462.74 181.91,461.47 187.50,458.03 195.67,453.56 196.89,452.90 203.84,448.30 210.61,444.32 212.01,443.33 220.17,437.82 223.51,435.75 228.34,432.18 235.96,427.18 236.51,426.74 244.68,420.75 247.91,418.60 252.85,414.76 259.56,410.03 261.02,408.84 269.19,402.57 270.69,401.46 277.36,395.90 281.16,392.88 285.53,389.02 291.08,384.31 293.70,381.85 300.43,375.73 301.87,374.30 309.20,367.16 310.03,366.28 317.42,358.59 318.20,357.71 325.14,350.01 326.37,348.55 332.43,341.44 334.54,338.81 339.43,332.87 342.71,328.62 346.23,324.29 350.88,318.19 352.91,315.72 359.05,307.67 359.49,307.15 366.06,298.57 367.22,296.95 372.70,290.00 375.39,286.34 379.39,281.43 383.56,275.91 386.12,272.85 391.73,265.55 392.83,264.28 399.65,255.71 399.90,255.37 406.95,247.13 408.06,245.74 414.97,238.56 416.23,237.16 423.97,229.99 424.40,229.56 432.57,222.48 433.89,221.41 440.74,215.54 444.14,212.84 448.91,208.79 455.04,204.27 457.08,202.65 465.25,197.70 470.32,195.69 473.42,194.39 481.59,192.51 489.76,192.14 497.93,193.80 501.32,195.69 506.09,199.04 510.65,204.27 514.26,209.73 516.29,212.84 520.35,221.41 521.78,229.99 520.53,238.56 517.72,247.13 514.26,255.49 514.19,255.71 510.05,264.28 506.09,271.83 505.61,272.85 500.81,281.43 497.93,286.12 495.64,290.00 490.20,298.57 489.76,299.25 484.64,307.15 481.59,311.71 478.92,315.72 473.42,323.74 473.04,324.29 467.20,332.87 465.25,335.61 461.19,341.44 457.08,347.01 454.92,350.01 448.91,357.83 448.35,358.59 441.52,367.16 440.74,368.07 434.31,375.73 432.57,377.65 426.64,384.31 424.40,386.66 418.62,392.88 416.23,395.36 410.44,401.46 408.06,403.94 402.23,410.03 399.90,412.52 394.04,418.60 391.73,421.10 385.85,427.18 383.56,429.64 377.59,435.75 375.39,438.05 369.13,444.32 367.22,446.19 360.12,452.90 359.05,453.83 350.88,460.90 350.22,461.47 342.71,467.35 339.09,470.04 334.54,473.10 326.37,478.31 325.90,478.62 318.20,483.27 311.10,487.19 310.03,487.76 301.87,492.17 294.40,495.76 293.70,496.11 285.53,500.13 277.36,503.66 275.79,504.34 269.19,507.37 261.02,510.75 255.42,512.91 252.85,514.03 244.68,517.49 236.51,520.52 233.89,521.48 228.34,523.87 220.17,527.03 212.01,529.77 211.15,530.06 203.84,533.08 195.67,535.95 187.50,538.43 186.84,538.63 179.33,541.58 171.16,544.26 162.99,546.56 160.63,547.20 "
     style="stroke-width: 1.07; stroke: none; fill: #CDDFF2;"
     clip-path="url(#cpMi43Mzk3M3w2NTIuNzA0fDU3My4yNnww)"
     id="polyline19" />
  <polyline
     points="32.28,523.86 35.70,521.48 40.45,518.59 48.62,515.06 55.47,512.91 56.79,512.39 64.96,509.62 73.13,507.33 81.30,505.25 84.83,504.34 89.47,502.72 97.64,500.04 105.81,497.58 111.94,495.76 113.98,494.95 122.14,491.77 130.31,488.91 135.27,487.19 138.48,485.73 146.65,482.21 154.82,479.01 155.79,478.62 162.99,474.98 171.16,471.28 173.88,470.04 179.33,467.01 187.50,462.84 190.23,461.47 195.67,458.17 203.84,453.65 205.21,452.90 212.01,448.52 219.19,444.32 220.17,443.64 228.34,438.30 232.57,435.75 236.51,432.98 244.68,427.76 245.63,427.18 252.85,422.12 258.29,418.60 261.02,416.58 269.19,410.89 270.45,410.03 277.36,404.75 281.83,401.46 285.53,398.43 292.55,392.88 293.70,391.88 301.87,384.92 302.59,384.31 310.03,377.49 312.01,375.73 318.20,369.72 320.93,367.16 326.37,361.59 329.44,358.59 334.54,353.12 337.63,350.01 342.71,344.40 345.63,341.44 350.88,335.56 353.57,332.87 359.05,326.80 361.61,324.29 367.22,318.22 369.85,315.72 375.39,309.87 378.33,307.15 383.56,301.79 387.14,298.57 391.73,294.05 396.45,290.00 399.90,286.75 406.45,281.43 408.06,280.00 416.23,273.78 417.59,272.85 424.40,267.89 429.68,264.28 432.57,262.20 440.74,256.50 441.94,255.71 448.91,250.91 455.31,247.13 457.08,246.03 465.25,242.52 473.42,241.45 481.59,245.41 482.85,247.13 486.35,255.71 486.88,264.28 485.28,272.85 482.29,281.43 481.59,282.81 477.97,290.00 473.42,298.22 473.22,298.57 467.88,307.15 465.25,311.20 462.37,315.72 457.08,323.74 456.73,324.29 450.92,332.87 448.91,335.70 444.98,341.44 440.74,347.32 438.87,350.01 432.57,358.50 432.51,358.59 425.95,367.16 424.40,369.01 419.01,375.73 416.23,378.90 411.70,384.31 408.06,388.30 404.06,392.88 399.90,397.35 396.17,401.46 391.73,406.12 388.06,410.03 383.56,414.67 379.75,418.60 375.39,423.04 371.28,427.18 367.22,431.26 362.66,435.75 359.05,439.33 353.85,444.32 350.88,447.16 344.65,452.90 342.71,454.63 334.66,461.47 334.54,461.57 326.37,468.12 323.83,470.04 318.20,474.04 311.30,478.62 310.03,479.41 301.87,484.47 297.19,487.19 293.70,489.14 285.53,493.50 281.08,495.76 277.36,497.64 269.19,501.55 262.94,504.34 261.02,505.23 252.85,508.96 244.68,512.31 243.26,512.91 236.51,515.94 228.34,519.25 222.46,521.48 220.17,522.47 212.01,525.84 203.84,528.78 200.17,530.06 195.67,531.89 187.50,534.92 179.33,537.56 175.89,538.63 171.16,540.44 162.99,543.25 154.82,545.67 149.24,547.20 "
     style="stroke-width: 1.07; stroke: none; fill: #BCD7EB;"
     clip-path="url(#cpMi43Mzk3M3w2NTIuNzA0fDU3My4yNnww)"
     id="polyline21" />
  <polyline
     points="32.28,528.18 40.45,522.27 41.91,521.48 48.62,518.13 56.79,515.22 64.96,512.91 64.98,512.91 73.13,510.26 81.30,507.93 89.47,505.72 94.49,504.34 97.64,503.23 105.81,500.45 113.98,497.86 120.63,495.76 122.14,495.15 130.31,491.93 138.48,488.96 143.30,487.19 146.65,485.67 154.82,482.13 162.99,478.80 163.42,478.62 171.16,474.74 179.33,470.98 181.34,470.04 187.50,466.66 195.67,462.49 197.66,461.47 203.84,457.82 212.01,453.33 212.80,452.90 220.17,448.34 227.19,444.32 228.34,443.56 236.51,438.49 241.21,435.75 244.68,433.45 252.85,428.41 254.93,427.18 261.02,423.12 268.13,418.60 269.19,417.85 277.36,412.20 280.54,410.03 285.53,406.28 292.07,401.46 293.70,400.14 301.87,393.67 302.87,392.88 310.03,386.81 313.06,384.31 318.20,379.69 322.78,375.73 326.37,372.35 332.17,367.16 334.54,364.84 341.41,358.59 342.71,357.28 350.68,350.01 350.88,349.81 359.05,342.53 360.46,341.44 367.22,335.61 370.90,332.87 375.39,329.12 382.02,324.29 383.56,323.05 391.73,317.29 394.24,315.72 399.90,311.85 407.50,307.15 408.06,306.77 416.23,302.16 423.18,298.57 424.40,297.90 432.57,294.57 440.74,292.68 447.77,298.57 446.35,307.15 443.27,315.72 440.74,321.11 439.28,324.29 434.65,332.87 432.57,336.33 429.61,341.44 424.41,350.01 424.40,350.03 418.72,358.59 416.23,362.02 412.73,367.16 408.06,373.34 406.36,375.73 399.90,383.87 399.57,384.31 392.38,392.88 391.73,393.60 384.83,401.46 383.56,402.81 376.94,410.03 375.39,411.64 368.75,418.60 367.22,420.15 360.29,427.18 359.05,428.41 351.60,435.75 350.88,436.45 342.71,444.25 342.64,444.32 334.54,451.82 333.36,452.90 326.37,458.98 323.41,461.47 318.20,465.62 312.38,470.04 310.03,471.72 301.87,477.35 300.00,478.62 293.70,482.61 285.98,487.19 285.53,487.45 277.36,492.02 270.17,495.76 269.19,496.26 261.02,500.37 252.85,504.16 252.48,504.34 244.68,508.03 236.51,511.59 233.50,512.91 228.34,515.23 220.17,518.67 213.02,521.48 212.01,521.92 203.84,525.34 195.67,528.36 190.89,530.06 187.50,531.42 179.33,534.47 171.16,537.16 166.49,538.63 162.99,539.94 154.82,542.73 146.65,545.18 139.39,547.20 "
     style="stroke-width: 1.07; stroke: none; fill: #ACD0E6;"
     clip-path="url(#cpMi43Mzk3M3w2NTIuNzA0fDU3My4yNnww)"
     id="polyline23" />
  <polyline
     points="32.28,533.36 34.72,530.06 40.45,525.61 48.06,521.48 48.62,521.20 56.79,517.89 64.96,515.36 73.13,513.14 73.96,512.91 81.30,510.61 89.47,508.22 97.64,505.90 102.95,504.34 105.81,503.33 113.98,500.52 122.14,497.83 128.31,495.76 130.31,494.96 138.48,491.75 146.65,488.69 150.52,487.19 154.82,485.25 162.99,481.74 170.35,478.62 171.16,478.21 179.33,474.23 187.50,470.41 188.27,470.04 195.67,466.09 203.84,461.91 204.71,461.47 212.01,457.32 220.17,452.90 220.17,452.89 228.34,448.13 235.19,444.32 236.51,443.49 244.68,438.73 249.96,435.75 252.85,433.94 261.02,429.11 264.32,427.18 269.19,424.07 277.36,418.92 277.86,418.60 285.53,413.40 290.44,410.03 293.70,407.62 301.87,401.60 302.07,401.46 310.03,395.29 313.18,392.88 318.20,388.76 323.81,384.31 326.37,382.11 334.20,375.73 334.54,375.43 342.71,368.89 345.12,367.16 350.88,362.61 356.67,358.59 359.05,356.75 367.22,351.49 370.02,350.01 375.39,346.87 383.56,342.96 387.86,341.44 391.73,339.93 399.90,338.79 405.00,341.44 405.70,350.01 402.86,358.59 399.90,364.69 398.78,367.16 393.64,375.73 391.73,378.40 387.73,384.31 383.56,389.70 381.24,392.88 375.39,399.96 374.22,401.46 367.22,409.44 366.73,410.03 359.05,418.35 358.83,418.60 350.88,426.83 350.56,427.18 342.71,435.00 341.98,435.75 334.54,442.89 333.07,444.32 326.37,450.44 323.69,452.90 318.20,457.59 313.60,461.47 310.03,464.27 302.50,470.04 301.87,470.49 293.70,476.22 290.25,478.62 285.53,481.60 277.36,486.59 276.39,487.19 269.19,491.24 261.02,495.63 260.79,495.76 252.85,499.81 244.68,503.78 243.57,504.34 236.51,507.70 228.34,511.39 225.00,512.91 220.17,515.09 212.01,518.56 204.79,521.48 203.84,521.89 195.67,525.26 187.50,528.31 182.68,530.06 179.33,531.37 171.16,534.35 162.99,537.05 158.04,538.63 154.82,539.79 146.65,542.51 138.48,544.94 130.47,547.20 "
     style="stroke-width: 1.07; stroke: none; fill: #9AC8E0;"
     clip-path="url(#cpMi43Mzk3M3w2NTIuNzA0fDU3My4yNnww)"
     id="polyline25" />
  <polyline
     points="32.28,543.96 32.65,538.63 39.03,530.06 40.45,528.95 48.62,524.07 54.54,521.48 56.79,520.56 64.96,517.81 73.13,515.48 81.30,513.23 82.43,512.91 89.47,510.73 97.64,508.30 105.81,505.87 110.69,504.34 113.98,503.18 122.14,500.36 130.31,497.59 135.44,495.76 138.48,494.55 146.65,491.37 154.82,488.21 157.33,487.19 162.99,484.68 171.16,481.18 177.01,478.62 179.33,477.48 187.50,473.62 195.00,470.04 195.67,469.68 203.84,465.50 211.73,461.47 212.01,461.31 220.17,456.94 227.81,452.90 228.34,452.58 236.51,448.16 243.66,444.32 244.68,443.73 252.85,439.29 259.30,435.75 261.02,434.74 269.19,430.15 274.30,427.18 277.36,425.30 285.53,420.28 288.18,418.60 293.70,414.97 300.91,410.03 301.87,409.34 310.03,403.67 313.20,401.46 318.20,397.80 325.03,392.88 326.37,391.85 334.54,386.20 337.54,384.31 342.71,380.85 350.88,375.90 351.27,375.73 359.05,372.30 367.22,370.14 375.39,374.39 375.79,375.73 375.39,376.92 373.09,384.31 368.55,392.88 367.22,394.69 362.60,401.46 359.05,405.86 355.94,410.03 350.88,415.85 348.65,418.60 342.71,425.01 340.82,427.18 334.54,433.58 332.52,435.75 326.37,441.68 323.74,444.32 318.20,449.35 314.40,452.90 310.03,456.58 304.34,461.47 301.87,463.39 293.70,469.76 293.34,470.04 285.53,475.52 281.22,478.62 277.36,481.05 269.19,486.16 267.60,487.19 261.02,490.89 252.85,495.45 252.31,495.76 244.68,499.68 236.51,503.80 235.50,504.34 228.34,507.76 220.17,511.54 217.29,512.91 212.01,515.28 203.84,518.75 197.29,521.48 195.67,522.16 187.50,525.44 179.33,528.48 175.08,530.06 171.16,531.55 162.99,534.43 154.82,537.11 150.13,538.63 146.65,539.83 138.48,542.45 130.31,544.85 122.14,547.18 122.08,547.20 "
     style="stroke-width: 1.07; stroke: none; fill: #86BCDC;"
     clip-path="url(#cpMi43Mzk3M3w2NTIuNzA0fDU3My4yNnww)"
     id="polyline27" />
  <polyline
     points="35.97,547.20 36.35,538.63 40.45,533.28 43.54,530.06 48.62,526.91 56.79,523.20 61.41,521.48 64.96,520.25 73.13,517.82 81.30,515.55 89.47,513.22 90.48,512.91 97.64,510.70 105.81,508.24 113.98,505.70 118.03,504.34 122.14,502.89 130.31,500.08 138.48,497.20 142.31,495.76 146.65,494.04 154.82,490.89 162.99,487.60 163.97,487.19 171.16,484.09 179.33,480.59 183.73,478.62 187.50,476.83 195.67,473.07 201.97,470.04 203.84,469.09 212.01,465.11 219.26,461.47 220.17,460.98 228.34,456.94 236.26,452.90 236.51,452.76 244.68,448.75 252.85,444.57 253.36,444.32 261.02,440.56 269.19,436.27 270.18,435.75 277.36,432.06 285.53,427.39 285.90,427.18 293.70,422.91 300.65,418.60 301.87,417.84 310.03,413.17 315.20,410.03 318.20,408.22 326.37,403.93 331.71,401.46 334.54,400.18 342.71,400.03 343.96,401.46 342.71,406.12 341.82,410.03 336.32,418.60 334.54,420.70 329.53,427.18 326.37,430.57 321.95,435.75 318.20,439.47 313.67,444.32 310.03,447.65 304.69,452.90 301.87,455.28 294.96,461.47 293.70,462.44 285.53,468.95 284.26,470.04 277.36,474.90 272.45,478.62 269.19,480.67 261.02,485.93 259.20,487.19 252.85,490.76 244.68,495.54 244.33,495.76 236.51,499.79 228.34,504.11 227.95,504.34 220.17,508.05 212.01,511.93 210.04,512.91 203.84,515.65 195.67,519.11 190.18,521.48 187.50,522.57 179.33,525.75 171.16,528.79 167.81,530.06 162.99,531.82 154.82,534.59 146.65,537.25 142.49,538.63 138.48,539.95 130.31,542.46 122.14,544.82 113.98,547.18 113.91,547.20 "
     style="stroke-width: 1.07; stroke: none; fill: #70B0D7;"
     clip-path="url(#cpMi43Mzk3M3w2NTIuNzA0fDU3My4yNnww)"
     id="polyline29" />
  <polyline
     points="39.90,547.20 40.04,538.63 40.45,538.10 48.14,530.06 48.62,529.76 56.79,525.83 64.96,522.78 68.78,521.48 73.13,520.16 81.30,517.87 89.47,515.60 97.64,513.12 98.27,512.91 105.81,510.61 113.98,508.11 122.14,505.44 125.22,504.34 130.31,502.57 138.48,499.76 146.65,496.75 149.14,495.76 154.82,493.57 162.99,490.43 170.70,487.19 171.16,486.99 179.33,483.62 187.50,480.11 190.80,478.62 195.67,476.43 203.84,472.80 209.64,470.04 212.01,468.91 220.17,465.24 227.97,461.47 228.34,461.29 236.51,457.74 244.68,453.99 247.12,452.90 252.85,450.45 261.02,447.01 266.84,444.32 269.19,443.30 277.36,440.18 285.53,436.44 287.29,435.75 293.70,433.65 301.87,432.27 305.44,435.75 301.87,441.50 300.60,444.32 293.70,452.26 293.27,452.90 285.53,460.25 284.50,461.47 277.36,467.34 274.61,470.04 269.19,473.94 263.51,478.62 261.02,480.19 252.85,485.66 250.83,487.19 244.68,490.68 236.54,495.76 236.51,495.78 228.34,500.01 220.65,504.34 220.17,504.56 212.01,508.44 203.84,512.48 203.02,512.91 195.67,516.08 187.50,519.56 183.20,521.48 179.33,523.01 171.16,526.07 162.99,529.14 160.63,530.06 154.82,532.08 146.65,534.75 138.48,537.41 134.89,538.63 130.31,540.06 122.14,542.46 113.98,544.77 105.81,547.17 105.68,547.20 "
     style="stroke-width: 1.07; stroke: none; fill: #5A9FCE;"
     clip-path="url(#cpMi43Mzk3M3w2NTIuNzA0fDU3My4yNnww)"
     id="polyline31" />
  <polyline
     points="44.73,547.20 44.26,538.63 48.62,534.07 53.50,530.06 56.79,528.47 64.96,525.40 73.13,522.68 76.70,521.48 81.30,520.19 89.47,517.98 97.64,515.66 105.81,512.99 106.03,512.91 113.98,510.53 122.14,508.01 130.31,505.18 132.51,504.34 138.48,502.31 146.65,499.51 154.82,496.34 156.21,495.76 162.99,493.25 171.16,490.15 178.03,487.19 179.33,486.65 187.50,483.49 195.67,480.04 198.84,478.62 203.84,476.56 212.01,473.24 219.00,470.04 220.17,469.54 228.34,466.51 236.51,463.28 241.04,461.47 244.68,460.21 252.85,457.98 261.02,456.18 269.19,457.68 270.27,461.47 269.19,462.49 263.27,470.04 261.02,471.76 253.78,478.62 252.85,479.22 244.68,484.91 242.06,487.19 236.51,490.39 228.61,495.76 228.34,495.90 220.17,500.16 213.28,504.34 212.01,504.94 203.84,508.79 195.99,512.91 195.67,513.05 187.50,516.46 179.33,520.00 176.15,521.48 171.16,523.36 162.99,526.33 154.82,529.46 153.34,530.06 146.65,532.25 138.48,534.83 130.31,537.51 127.11,538.63 122.14,540.09 113.98,542.37 105.81,544.62 97.64,547.02 97.03,547.20 "
     style="stroke-width: 1.07; stroke: none; fill: #428DC3;"
     clip-path="url(#cpMi43Mzk3M3w2NTIuNzA0fDU3My4yNnww)"
     id="polyline33" />
  <polyline
     points="50.39,547.20 48.62,539.27 48.55,538.63 48.62,538.55 56.79,531.92 59.53,530.06 64.96,528.01 73.13,525.45 81.30,522.86 85.26,521.48 89.47,520.36 97.64,518.20 105.81,515.84 113.98,512.96 114.11,512.91 122.14,510.58 130.31,508.06 138.48,505.06 140.26,504.34 146.65,502.26 154.82,499.51 162.99,496.21 164.02,495.76 171.16,493.32 179.33,490.37 186.65,487.19 187.50,486.87 195.67,484.12 203.84,481.10 209.68,478.62 212.01,477.79 220.17,475.47 228.34,473.30 236.51,471.53 241.06,478.62 236.51,482.10 232.01,487.19 228.34,489.37 220.17,495.62 220.03,495.76 212.01,499.96 205.46,504.34 203.84,505.10 195.67,508.92 188.58,512.91 187.50,513.36 179.33,516.64 171.16,520.28 168.73,521.48 162.99,523.52 154.82,526.39 146.65,529.62 145.62,530.06 138.48,532.24 130.31,534.72 122.14,537.42 118.81,538.63 113.98,539.96 105.81,542.08 97.64,544.23 89.47,546.56 87.22,547.20 "
     style="stroke-width: 1.07; stroke: none; fill: #2C7AB7;"
     clip-path="url(#cpMi43Mzk3M3w2NTIuNzA0fDU3My4yNnww)"
     id="polyline35" />
  <polyline
     points="61.41,547.20 56.79,544.34 54.34,538.63 56.79,536.65 64.96,531.30 66.97,530.06 73.13,528.21 81.30,525.98 89.47,523.49 94.73,521.48 97.64,520.74 105.81,518.69 113.98,516.37 122.14,513.33 123.13,512.91 130.31,510.94 138.48,508.54 146.65,505.49 149.27,504.34 154.82,502.67 162.99,500.18 171.16,497.07 174.14,495.76 179.33,494.23 187.50,491.98 195.67,489.40 201.40,487.19 203.84,486.61 212.01,485.97 216.07,487.19 212.01,490.59 209.16,495.76 203.84,498.57 196.54,504.34 195.67,504.74 187.50,508.40 180.29,512.91 179.33,513.29 171.16,516.37 162.99,520.08 160.43,521.48 154.82,523.32 146.65,526.03 138.48,529.35 136.96,530.06 130.31,531.92 122.14,534.23 113.98,536.87 109.42,538.63 105.81,539.54 97.64,541.44 89.47,543.35 81.30,545.34 73.47,547.20 "
     style="stroke-width: 1.07; stroke: none; fill: #1E65AA;"
     clip-path="url(#cpMi43Mzk3M3w2NTIuNzA0fDU3My4yNnww)"
     id="polyline37" />
  <polyline
     points="64.96,540.78 62.30,538.63 64.96,537.02 73.13,532.89 77.39,530.06 81.30,529.10 89.47,527.28 97.64,525.14 105.81,521.65 106.11,521.48 113.98,519.78 122.14,517.84 130.31,515.19 134.84,512.91 138.48,512.02 146.65,510.16 154.82,507.98 162.26,504.34 162.99,504.15 171.16,502.79 179.33,502.40 182.88,504.34 179.33,505.76 171.16,510.35 169.35,512.91 162.99,514.98 154.82,518.20 149.94,521.48 146.65,522.45 138.48,524.72 130.31,527.71 126.08,530.06 122.14,531.04 113.98,532.96 105.81,535.18 97.71,538.63 97.64,538.65 89.47,540.13 81.30,541.41 73.13,542.13 64.96,540.78 "
     style="stroke-width: 1.07; stroke: none; fill: #08519C;"
     clip-path="url(#cpMi43Mzk3M3w2NTIuNzA0fDU3My4yNnww)"
     id="polyline39" />
  <defs
     id="defs41">
    <clipPath
       id="cpMHw3MjB8NTc2fDA=">
      <rect
         x="0.00"
         y="0.00"
         width="720.00"
         height="576.00"
         id="rect44" />
    </clipPath>
  </defs>
</svg>
