<?xml version="1.0" encoding="UTF-8" standalone="no"?>
<svg
   xmlns:dc="http://purl.org/dc/elements/1.1/"
   xmlns:cc="http://creativecommons.org/ns#"
   xmlns:rdf="http://www.w3.org/1999/02/22-rdf-syntax-ns#"
   xmlns:svg="http://www.w3.org/2000/svg"
   xmlns="http://www.w3.org/2000/svg"
   xmlns:sodipodi="http://sodipodi.sourceforge.net/DTD/sodipodi-0.dtd"
   xmlns:inkscape="http://www.inkscape.org/namespaces/inkscape"
   version="1.1"
   id="svg2"
   viewBox="0 0 2290 1090"
   height="1090"
   width="2290"
   inkscape:version="0.91 r13725"
   sodipodi:docname="4-drugs-waffle.svg"
   inkscape:export-filename="/Users/robert/Dropbox/Books/Dataviz CRC-ASA/images/4-drugs-waffle.png"
   inkscape:export-xdpi="90"
   inkscape:export-ydpi="90">
  <metadata
     id="metadata231">
    <rdf:RDF>
      <cc:Work
         rdf:about="">
        <dc:format>image/svg+xml</dc:format>
        <dc:type
           rdf:resource="http://purl.org/dc/dcmitype/StillImage" />
      </cc:Work>
    </rdf:RDF>
  </metadata>
  <defs
     id="defs229" />
  <sodipodi:namedview
     pagecolor="#ffffff"
     bordercolor="#666666"
     borderopacity="1"
     objecttolerance="10"
     gridtolerance="10"
     guidetolerance="10"
     inkscape:pageopacity="0"
     inkscape:pageshadow="2"
     inkscape:window-width="1072"
     inkscape:window-height="571"
     id="namedview227"
     showgrid="false"
     inkscape:zoom="0.13537118"
     inkscape:cx="162.51613"
     inkscape:cy="545"
     inkscape:window-x="0"
     inkscape:window-y="0"
     inkscape:window-maximized="0"
     inkscape:current-layer="svg2" />
  <rect
     x="0"
     y="0"
     height="100"
     width="100"
     style="fill:#1c1c1c;stroke:none;"
     id="rect3" />
  <rect
     x="110"
     y="0"
     height="100"
     width="100"
     style="fill:#1c1c1c;stroke:none;"
     id="rect5" />
  <rect
     x="220"
     y="0"
     height="100"
     width="100"
     style="fill:#1c1c1c;stroke:none;"
     id="rect7" />
  <rect
     x="330"
     y="0"
     height="100"
     width="100"
     style="fill:#1c1c1c;stroke:none;"
     id="rect9" />
  <rect
     x="440"
     y="0"
     height="100"
     width="100"
     style="fill:#1c1c1c;stroke:none;"
     id="rect11" />
  <rect
     x="550"
     y="0"
     height="100"
     width="100"
     style="fill:#1c1c1c;stroke:none;"
     id="rect13" />
  <rect
     x="660"
     y="0"
     height="100"
     width="100"
     style="fill:#1c1c1c;stroke:none;"
     id="rect15" />
  <rect
     x="770"
     y="0"
     height="100"
     width="100"
     style="fill:#1c1c1c;stroke:none;"
     id="rect17" />
  <rect
     x="880"
     y="0"
     height="100"
     width="100"
     style="fill:#1c1c1c;stroke:none;"
     id="rect19" />
  <rect
     x="990"
     y="0"
     height="100"
     width="100"
     style="fill:#1c1c1c;stroke:none;"
     id="rect21" />
  <rect
     x="0"
     y="110"
     height="100"
     width="100"
     style="fill:#1c1c1c;stroke:none;"
     id="rect23" />
  <rect
     x="110"
     y="110"
     height="100"
     width="100"
     style="fill:#1c1c1c;stroke:none;"
     id="rect25" />
  <rect
     x="220"
     y="110"
     height="100"
     width="100"
     style="fill:#1c1c1c;stroke:none;"
     id="rect27" />
  <rect
     x="330"
     y="110"
     height="100"
     width="100"
     style="fill:#1c1c1c;stroke:none;"
     id="rect29" />
  <rect
     x="440"
     y="110"
     height="100"
     width="100"
     style="fill:#1c1c1c;stroke:none;"
     id="rect31" />
  <rect
     x="550"
     y="110"
     height="100"
     width="100"
     style="fill:#1c1c1c;stroke:none;"
     id="rect33" />
  <rect
     x="660"
     y="110"
     height="100"
     width="100"
     style="fill:#1c1c1c;stroke:none;"
     id="rect35" />
  <rect
     x="770"
     y="110"
     height="100"
     width="100"
     style="fill:#1c1c1c;stroke:none;"
     id="rect37" />
  <rect
     x="880"
     y="110"
     height="100"
     width="100"
     style="fill:#1c1c1c;stroke:none;"
     id="rect39" />
  <rect
     x="990"
     y="110"
     height="100"
     width="100"
     style="fill:#1c1c1c;stroke:none;"
     id="rect41" />
  <rect
     x="0"
     y="220"
     height="100"
     width="100"
     style="fill:#1c1c1c;stroke:none;"
     id="rect43" />
  <rect
     x="110"
     y="220"
     height="100"
     width="100"
     style="fill:#1c1c1c;stroke:none;"
     id="rect45" />
  <rect
     x="220"
     y="220"
     height="100"
     width="100"
     style="fill:#1c1c1c;stroke:none;"
     id="rect47" />
  <rect
     x="330"
     y="220"
     height="100"
     width="100"
     style="fill:#1c1c1c;stroke:none;"
     id="rect49" />
  <rect
     x="440"
     y="220"
     height="100"
     width="100"
     style="fill:#1c1c1c;stroke:none;"
     id="rect51" />
  <rect
     x="550"
     y="220"
     height="100"
     width="100"
     style="fill:#1c1c1c;stroke:none;"
     id="rect53" />
  <rect
     x="660"
     y="220"
     height="100"
     width="100"
     style="fill:#1c1c1c;stroke:none;"
     id="rect55" />
  <rect
     x="770"
     y="220"
     height="100"
     width="100"
     style="fill:#1c1c1c;stroke:none;"
     id="rect57" />
  <rect
     x="880"
     y="220"
     height="100"
     width="100"
     style="fill:#1c1c1c;stroke:none;"
     id="rect59" />
  <rect
     x="990"
     y="220"
     height="100"
     width="100"
     style="fill:#1c1c1c;stroke:none;"
     id="rect61" />
  <rect
     x="0"
     y="330"
     height="100"
     width="100"
     style="fill:#1c1c1c;stroke:none;"
     id="rect63" />
  <rect
     x="110"
     y="330"
     height="100"
     width="100"
     style="fill:#1c1c1c;stroke:none;"
     id="rect65" />
  <rect
     x="220"
     y="330"
     height="100"
     width="100"
     style="fill:#1c1c1c;stroke:none;"
     id="rect67" />
  <rect
     x="330"
     y="330"
     height="100"
     width="100"
     style="fill:#1c1c1c;stroke:none;"
     id="rect69" />
  <rect
     x="440"
     y="330"
     height="100"
     width="100"
     style="fill:#1c1c1c;stroke:none;"
     id="rect71" />
  <rect
     x="550"
     y="330"
     height="100"
     width="100"
     style="fill:#1c1c1c;stroke:none;"
     id="rect73" />
  <rect
     x="660"
     y="330"
     height="100"
     width="100"
     style="fill:#1c1c1c;stroke:none;"
     id="rect75" />
  <rect
     x="770"
     y="330"
     height="100"
     width="100"
     style="fill:#1c1c1c;stroke:none;"
     id="rect77" />
  <rect
     x="880"
     y="330"
     height="100"
     width="100"
     style="fill:#1c1c1c;stroke:none;"
     id="rect79" />
  <rect
     x="990"
     y="330"
     height="100"
     width="100"
     style="fill:#1c1c1c;stroke:none;"
     id="rect81" />
  <rect
     x="0"
     y="440"
     height="100"
     width="100"
     style="fill:#1c1c1c;stroke:none;"
     id="rect83" />
  <rect
     x="110"
     y="440"
     height="100"
     width="100"
     style="fill:#1c1c1c;stroke:none;"
     id="rect85" />
  <rect
     x="220"
     y="440"
     height="100"
     width="100"
     style="fill:#1c1c1c;stroke:none;"
     id="rect87" />
  <rect
     x="330"
     y="440"
     height="100"
     width="100"
     style="fill:#1c1c1c;stroke:none;"
     id="rect89" />
  <rect
     x="440"
     y="440"
     height="100"
     width="100"
     style="fill:#1c1c1c;stroke:none;"
     id="rect91" />
  <rect
     x="550"
     y="440"
     height="100"
     width="100"
     style="fill:#1c1c1c;stroke:none;"
     id="rect93" />
  <rect
     x="660"
     y="440"
     height="100"
     width="100"
     style="fill:#1c1c1c;stroke:none;"
     id="rect95" />
  <rect
     x="770"
     y="440"
     height="100"
     width="100"
     style="fill:#414141;stroke:none;"
     id="rect97" />
  <rect
     x="880"
     y="440"
     height="100"
     width="100"
     style="fill:#414141;stroke:none;"
     id="rect99" />
  <rect
     x="990"
     y="440"
     height="100"
     width="100"
     style="fill:#414141;stroke:none;"
     id="rect101" />
  <rect
     x="0"
     y="550"
     height="100"
     width="100"
     style="fill:#414141;stroke:none;"
     id="rect103" />
  <rect
     x="110"
     y="550"
     height="100"
     width="100"
     style="fill:#414141;stroke:none;"
     id="rect105" />
  <rect
     x="220"
     y="550"
     height="100"
     width="100"
     style="fill:#414141;stroke:none;"
     id="rect107" />
  <rect
     x="330"
     y="550"
     height="100"
     width="100"
     style="fill:#414141;stroke:none;"
     id="rect109" />
  <rect
     x="440"
     y="550"
     height="100"
     width="100"
     style="fill:#414141;stroke:none;"
     id="rect111" />
  <rect
     x="550"
     y="550"
     height="100"
     width="100"
     style="fill:#414141;stroke:none;"
     id="rect113" />
  <rect
     x="660"
     y="550"
     height="100"
     width="100"
     style="fill:#414141;stroke:none;"
     id="rect115" />
  <rect
     x="770"
     y="550"
     height="100"
     width="100"
     style="fill:#414141;stroke:none;"
     id="rect117" />
  <rect
     x="880"
     y="550"
     height="100"
     width="100"
     style="fill:#414141;stroke:none;"
     id="rect119" />
  <rect
     x="990"
     y="550"
     height="100"
     width="100"
     style="fill:#414141;stroke:none;"
     id="rect121" />
  <rect
     x="0"
     y="660"
     height="100"
     width="100"
     style="fill:#414141;stroke:none;"
     id="rect123" />
  <rect
     x="110"
     y="660"
     height="100"
     width="100"
     style="fill:#414141;stroke:none;"
     id="rect125" />
  <rect
     x="220"
     y="660"
     height="100"
     width="100"
     style="fill:#414141;stroke:none;"
     id="rect127" />
  <rect
     x="330"
     y="660"
     height="100"
     width="100"
     style="fill:#414141;stroke:none;"
     id="rect129" />
  <rect
     x="440"
     y="660"
     height="100"
     width="100"
     style="fill:#414141;stroke:none;"
     id="rect131" />
  <rect
     x="550"
     y="660"
     height="100"
     width="100"
     style="fill:#414141;stroke:none;"
     id="rect133" />
  <rect
     x="660"
     y="660"
     height="100"
     width="100"
     style="fill:#414141;stroke:none;"
     id="rect135" />
  <rect
     x="770"
     y="660"
     height="100"
     width="100"
     style="fill:#414141;stroke:none;"
     id="rect137" />
  <rect
     x="880"
     y="660"
     height="100"
     width="100"
     style="fill:#414141;stroke:none;"
     id="rect139" />
  <rect
     x="990"
     y="660"
     height="100"
     width="100"
     style="fill:#414141;stroke:none;"
     id="rect141" />
  <rect
     x="0"
     y="770"
     height="100"
     width="100"
     style="fill:#414141;stroke:none;"
     id="rect143" />
  <rect
     x="110"
     y="770"
     height="100"
     width="100"
     style="fill:#747474;stroke:none;"
     id="rect145" />
  <rect
     x="220"
     y="770"
     height="100"
     width="100"
     style="fill:#747474;stroke:none;"
     id="rect147" />
  <rect
     x="330"
     y="770"
     height="100"
     width="100"
     style="fill:#747474;stroke:none;"
     id="rect149" />
  <rect
     x="440"
     y="770"
     height="100"
     width="100"
     style="fill:#9d9d9d;stroke:none;"
     id="rect151" />
  <rect
     x="550"
     y="770"
     height="100"
     width="100"
     style="fill:#9d9d9d;stroke:none;"
     id="rect153" />
  <rect
     x="660"
     y="770"
     height="100"
     width="100"
     style="fill:#9d9d9d;stroke:none;"
     id="rect155" />
  <rect
     x="770"
     y="770"
     height="100"
     width="100"
     style="fill:#9d9d9d;stroke:none;"
     id="rect157" />
  <rect
     x="880"
     y="770"
     height="100"
     width="100"
     style="fill:#9d9d9d;stroke:none;"
     id="rect159" />
  <rect
     x="990"
     y="770"
     height="100"
     width="100"
     style="fill:#9d9d9d;stroke:none;"
     id="rect161" />
  <rect
     x="0"
     y="880"
     height="100"
     width="100"
     style="fill:#9d9d9d;stroke:none;"
     id="rect163" />
  <rect
     x="110"
     y="880"
     height="100"
     width="100"
     style="fill:#7f0608;stroke:none;"
     id="rect165" />
  <rect
     x="220"
     y="880"
     height="100"
     width="100"
     style="fill:#7f0608;stroke:none;"
     id="rect167" />
  <rect
     x="330"
     y="880"
     height="100"
     width="100"
     style="fill:#7f0608;stroke:none;"
     id="rect169" />
  <rect
     x="440"
     y="880"
     height="100"
     width="100"
     style="fill:#7f0608;stroke:none;"
     id="rect171" />
  <rect
     x="550"
     y="880"
     height="100"
     width="100"
     style="fill:#7f0608;stroke:none;"
     id="rect173" />
  <rect
     x="660"
     y="880"
     height="100"
     width="100"
     style="fill:#7f0608;stroke:none;"
     id="rect175" />
  <rect
     x="770"
     y="880"
     height="100"
     width="100"
     style="fill:#cbcbcb;stroke:none;"
     id="rect177" />
  <rect
     x="880"
     y="880"
     height="100"
     width="100"
     style="fill:#cbcbcb;stroke:none;"
     id="rect179" />
  <rect
     x="990"
     y="880"
     height="100"
     width="100"
     style="fill:#cbcbcb;stroke:none;"
     id="rect181" />
  <rect
     x="0"
     y="990"
     height="100"
     width="100"
     style="fill:#cbcbcb;stroke:none;"
     id="rect183" />
  <rect
     x="110"
     y="990"
     height="100"
     width="100"
     style="fill:#cbcbcb;stroke:none;"
     id="rect185" />
  <rect
     x="220"
     y="990"
     height="100"
     width="100"
     style="fill:#cbcbcb;stroke:none;"
     id="rect187" />
  <rect
     x="330"
     y="990"
     height="100"
     width="100"
     style="fill:#cbcbcb;stroke:none;"
     id="rect189" />
  <rect
     x="440"
     y="990"
     height="100"
     width="100"
     style="fill:#cbcbcb;stroke:none;"
     id="rect191" />
  <rect
     x="550"
     y="990"
     height="100"
     width="100"
     style="fill:#cbcbcb;stroke:none;"
     id="rect193" />
  <rect
     x="660"
     y="990"
     height="100"
     width="100"
     style="fill:#cbcbcb;stroke:none;"
     id="rect195" />
  <rect
     x="770"
     y="990"
     height="100"
     width="100"
     style="fill:#cbcbcb;stroke:none;"
     id="rect197" />
  <rect
     x="880"
     y="990"
     height="100"
     width="100"
     style="fill:#cbcbcb;stroke:none;"
     id="rect199" />
  <rect
     x="990"
     y="990"
     height="100"
     width="100"
     style="fill:#cbcbcb;stroke:none;"
     id="rect201" />
  <rect
     x="1200"
     y="70"
     height="100"
     width="100"
     style="fill:#1c1c1c;stroke:none;"
     id="rect203" />
  <text
     x="1340"
     y="150"
     style="fill:#000000;font-size:80px;font-family:Helvetica;"
     id="text205">Alcohol</text>
  <rect
     x="1200"
     y="180"
     height="100"
     width="100"
     style="fill:#414141;stroke:none;"
     id="rect207" />
  <text
     x="1340"
     y="260"
     style="fill:#000000;font-size:80px;font-family:Helvetica;"
     id="text209">Opioids</text>
  <rect
     x="1200"
     y="290"
     height="100"
     width="100"
     style="fill:#747474;stroke:none;"
     id="rect211" />
  <text
     x="1340"
     y="370"
     style="fill:#000000;font-size:80px;font-family:Helvetica;"
     id="text213">Cocaine</text>
  <rect
     x="1200"
     y="400"
     height="100"
     width="100"
     style="fill:#9d9d9d;stroke:none;"
     id="rect215" />
  <text
     x="1340"
     y="480"
     style="fill:#000000;font-size:80px;font-family:Helvetica;"
     id="text217">Amphetamines</text>
  <rect
     x="1200"
     y="510"
     height="100"
     width="100"
     style="fill:#7f0608;stroke:none;"
     id="rect219" />
  <text
     x="1340"
     y="590"
     style="fill:#000000;font-size:80px;font-family:Helvetica;"
     id="text221">Cannabis</text>
  <rect
     x="1200"
     y="620"
     height="100"
     width="100"
     style="fill:#cbcbcb;stroke:none;"
     id="rect223" />
  <text
     x="1340"
     y="700"
     style="fill:#000000;font-size:80px;font-family:Helvetica;"
     id="text225">Other</text>
  <!-- colours:
#1c1c1c','#414141','#747474','#9d9d9d','#7f0608','#cbcbcb' -->
</svg>
