<?xml version="1.0" encoding="UTF-8" standalone="no"?>
<svg
   xmlns:dc="http://purl.org/dc/elements/1.1/"
   xmlns:cc="http://creativecommons.org/ns#"
   xmlns:rdf="http://www.w3.org/1999/02/22-rdf-syntax-ns#"
   xmlns:svg="http://www.w3.org/2000/svg"
   xmlns="http://www.w3.org/2000/svg"
   xmlns:sodipodi="http://sodipodi.sourceforge.net/DTD/sodipodi-0.dtd"
   xmlns:inkscape="http://www.inkscape.org/namespaces/inkscape"
   viewBox="0 0 720.00 576.00"
   id="svg2"
   version="1.1"
   inkscape:version="0.91 r13725"
   sodipodi:docname="4-parallel-sets.svg">
  <metadata
     id="metadata84">
    <rdf:RDF>
      <cc:Work
         rdf:about="">
        <dc:format>image/svg+xml</dc:format>
        <dc:type
           rdf:resource="http://purl.org/dc/dcmitype/StillImage" />
      </cc:Work>
    </rdf:RDF>
  </metadata>
  <sodipodi:namedview
     pagecolor="#ffffff"
     bordercolor="#666666"
     borderopacity="1"
     objecttolerance="10"
     gridtolerance="10"
     guidetolerance="10"
     inkscape:pageopacity="0"
     inkscape:pageshadow="2"
     inkscape:window-width="1093"
     inkscape:window-height="660"
     id="namedview82"
     showgrid="false"
     inkscape:zoom="0.76"
     inkscape:cx="351.1793"
     inkscape:cy="288"
     inkscape:window-x="0"
     inkscape:window-y="0"
     inkscape:window-maximized="0"
     inkscape:current-layer="svg2" />
  <defs
     id="defs4">
    <style
       type="text/css"
       id="style6"><![CDATA[
    line, polyline, path, rect, circle {
      fill: none;
      stroke: #000000;
      stroke-linecap: round;
      stroke-linejoin: round;
      stroke-miterlimit: 10.00;
    }
  ]]></style>
  </defs>
  <rect
     width="100%"
     height="100%"
     style="stroke: none; fill: #FFFFFF;"
     id="rect8" />
  <defs
     id="defs10">
    <clipPath
       id="cpOC4yMTkxOHw3MTQuNTIxfDU1Mi42OTh8NS40Nzk0NQ==">
      <rect
         x="8.22"
         y="5.48"
         width="706.30"
         height="547.22"
         id="rect13" />
    </clipPath>
  </defs>
  <polyline
     points="63.26,338.79 109.12,338.79 109.19,338.78 109.69,338.77 110.95,338.73 113.27,338.65 116.83,338.51 121.73,338.32 127.98,338.04 135.48,337.68 144.05,337.23 153.47,336.69 163.47,336.06 173.79,335.33 184.19,334.52 194.47,333.62 204.46,332.62 214.05,331.54 223.16,330.37 231.76,329.10 239.83,327.73 247.39,326.24 254.47,324.63 261.10,322.89 267.34,320.99 273.24,318.93 278.84,316.69 284.20,314.25 289.37,311.61 294.10,308.94 299.12,305.83 304.05,302.51 308.93,298.96 313.78,295.18 318.62,291.18 323.46,286.97 328.32,282.55 333.20,277.94 338.10,273.16 343.03,268.23 347.99,263.18 352.96,258.04 357.94,252.84 362.92,247.61 367.91,242.40 372.89,237.23 377.84,232.14 382.78,227.16 387.70,222.32 392.59,217.64 397.45,213.15 402.30,208.86 407.14,204.78 411.99,200.92 416.85,197.28 421.76,193.88 426.74,190.69 428.64,189.54 433.66,186.71 438.84,184.08 444.22,181.66 449.84,179.43 455.75,177.38 462.01,175.49 468.67,173.75 475.78,172.15 483.37,170.67 491.47,169.30 500.10,168.04 509.24,166.87 518.86,165.80 528.87,164.81 539.16,163.91 549.56,163.10 559.87,162.38 569.84,161.75 579.21,161.22 587.73,160.78 595.16,160.42 601.33,160.15 606.16,159.96 609.64,159.83 611.89,159.75 613.10,159.71 613.56,159.70 613.62,159.70 659.48,159.70 659.48,139.80 613.62,139.80 613.55,139.80 613.05,139.81 611.79,139.85 609.47,139.93 605.91,140.07 601.01,140.27 594.76,140.54 587.26,140.90 578.68,141.35 569.27,141.89 559.27,142.52 548.95,143.25 538.55,144.06 528.27,144.97 518.28,145.96 508.69,147.04 499.58,148.21 490.98,149.48 482.91,150.86 475.35,152.34 468.27,153.95 461.64,155.70 455.40,157.59 449.50,159.65 443.90,161.90 438.54,164.33 433.37,166.97 428.64,169.65 423.62,172.75 418.69,176.08 413.81,179.63 408.96,183.40 404.12,187.40 399.28,191.61 394.42,196.03 389.54,200.64 384.64,205.42 379.71,210.35 374.75,215.40 369.78,220.55 364.80,225.75 359.81,230.97 354.83,236.18 349.85,241.35 344.90,246.44 339.96,251.42 335.04,256.26 330.15,260.94 325.29,265.43 320.44,269.72 315.60,273.80 310.75,277.66 305.89,281.30 300.98,284.71 296.00,287.89 294.10,289.04 289.07,291.87 283.90,294.50 278.52,296.92 272.90,299.15 266.99,301.21 260.73,303.09 254.07,304.83 246.96,306.43 239.37,307.91 231.27,309.28 222.64,310.54 213.50,311.71 203.88,312.78 193.87,313.77 183.58,314.67 173.18,315.48 162.87,316.20 152.90,316.83 143.53,317.36 135.01,317.81 127.58,318.16 121.41,318.43 116.58,318.63 113.10,318.76 110.85,318.83 109.64,318.87 109.18,318.88 109.12,318.89 63.26,318.89 "
     style="stroke-width: 1.07; stroke: #45AAC4; stroke-opacity: 0.70; fill: #45AAC4; fill-opacity: 0.70;"
     clip-path="url(#cpOC4yMTkxOHw3MTQuNTIxfDU1Mi42OTh8NS40Nzk0NQ==)"
     id="polyline15" />
  <polyline
     points="63.26,139.80 109.12,139.80 109.19,139.80 109.70,139.80 110.99,139.80 113.34,139.80 116.97,139.80 121.95,139.80 128.30,139.80 135.90,139.80 144.58,139.80 154.10,139.80 164.19,139.80 174.59,139.80 185.06,139.80 195.38,139.80 205.40,139.80 215.01,139.80 224.13,139.80 232.72,139.80 240.78,139.80 248.33,139.80 255.39,139.80 262.01,139.80 268.24,139.80 274.12,139.80 279.72,139.80 285.08,139.80 290.26,139.80 294.10,139.80 299.89,139.80 305.58,139.80 311.20,139.80 316.80,139.80 322.40,139.80 328.02,139.80 333.66,139.80 339.34,139.80 345.04,139.80 350.78,139.80 356.54,139.80 362.30,139.80 368.07,139.80 373.82,139.80 379.55,139.80 385.25,139.80 390.91,139.80 396.55,139.80 402.15,139.80 407.75,139.80 413.35,139.80 418.99,139.80 424.71,139.80 428.64,139.80 433.70,139.80 438.91,139.80 444.33,139.80 449.99,139.80 455.95,139.80 462.26,139.80 468.98,139.80 476.16,139.80 483.82,139.80 492.01,139.80 500.73,139.80 509.97,139.80 519.68,139.80 529.79,139.80 540.16,139.80 550.63,139.80 560.98,139.80 570.96,139.80 580.30,139.80 588.75,139.80 596.07,139.80 602.10,139.80 606.76,139.80 610.06,139.80 612.15,139.80 613.22,139.80 613.59,139.80 613.62,139.80 659.48,139.80 659.48,30.35 613.62,30.35 613.54,30.35 613.04,30.35 611.75,30.35 609.40,30.35 605.77,30.35 600.79,30.35 594.44,30.35 586.84,30.35 578.16,30.35 568.64,30.35 558.55,30.35 548.15,30.35 537.68,30.35 527.36,30.35 517.34,30.35 507.73,30.35 498.61,30.35 490.02,30.35 481.96,30.35 474.41,30.35 467.35,30.35 460.73,30.35 454.50,30.35 448.62,30.35 443.02,30.35 437.66,30.35 432.48,30.35 428.64,30.35 422.85,30.35 417.16,30.35 411.54,30.35 405.94,30.35 400.34,30.35 394.72,30.35 389.08,30.35 383.40,30.35 377.70,30.35 371.96,30.35 366.20,30.35 360.44,30.35 354.67,30.35 348.92,30.35 343.19,30.35 337.49,30.35 331.83,30.35 326.19,30.35 320.59,30.35 314.99,30.35 309.39,30.35 303.74,30.35 298.03,30.35 294.10,30.35 289.04,30.35 283.83,30.35 278.41,30.35 272.75,30.35 266.79,30.35 260.48,30.35 253.76,30.35 246.58,30.35 238.92,30.35 230.73,30.35 222.01,30.35 212.77,30.35 203.06,30.35 192.95,30.35 182.58,30.35 172.11,30.35 161.76,30.35 151.78,30.35 142.43,30.35 133.99,30.35 126.67,30.35 120.64,30.35 115.98,30.35 112.68,30.35 110.59,30.35 109.52,30.35 109.15,30.35 109.12,30.35 63.26,30.35 "
     style="stroke-width: 1.07; stroke: #45AAC4; stroke-opacity: 0.70; fill: #45AAC4; fill-opacity: 0.70;"
     clip-path="url(#cpOC4yMTkxOHw3MTQuNTIxfDU1Mi42OTh8NS40Nzk0NQ==)"
     id="polyline17" />
  <polyline
     points="63.26,169.65 109.12,169.65 109.19,169.64 109.70,169.64 110.99,169.64 113.34,169.62 116.96,169.60 121.94,169.57 128.29,169.52 135.89,169.46 144.57,169.38 154.08,169.29 164.17,169.18 174.57,169.06 185.03,168.92 195.35,168.77 205.38,168.60 214.98,168.42 224.10,168.22 232.69,168.01 240.76,167.77 248.30,167.52 255.37,167.25 261.99,166.95 268.21,166.63 274.10,166.28 279.69,165.90 285.06,165.49 290.23,165.04 294.10,164.67 299.86,164.07 305.52,163.42 311.11,162.73 316.68,161.98 322.25,161.19 327.83,160.35 333.45,159.46 339.09,158.54 344.77,157.59 350.47,156.62 356.20,155.62 361.93,154.62 367.66,153.62 373.39,152.63 379.09,151.66 384.76,150.71 390.39,149.80 396.00,148.93 401.58,148.10 407.15,147.31 412.72,146.57 418.32,145.89 423.99,145.25 428.64,144.77 433.70,144.30 438.91,143.86 444.32,143.45 449.98,143.08 455.94,142.73 462.26,142.42 468.97,142.13 476.15,141.86 483.81,141.61 492.00,141.38 500.71,141.17 509.95,140.98 519.66,140.80 529.76,140.64 540.13,140.49 550.60,140.35 560.95,140.23 570.93,140.13 580.27,140.04 588.72,139.97 596.04,139.91 602.08,139.87 606.74,139.84 610.05,139.82 612.14,139.80 613.22,139.80 613.59,139.80 613.62,139.80 659.48,139.80 659.48,139.80 613.62,139.80 613.54,139.80 613.04,139.80 611.75,139.81 609.40,139.82 605.78,139.84 600.80,139.88 594.45,139.92 586.85,139.98 578.17,140.06 568.66,140.15 558.57,140.26 548.17,140.38 537.71,140.52 527.38,140.67 517.36,140.84 507.76,141.02 498.64,141.22 490.05,141.44 481.98,141.67 474.44,141.92 467.37,142.19 460.75,142.49 454.53,142.81 448.64,143.16 443.05,143.54 437.68,143.96 432.51,144.40 428.64,144.77 422.88,145.37 417.22,146.02 411.63,146.71 406.06,147.46 400.49,148.25 394.91,149.09 389.29,149.98 383.65,150.90 377.97,151.85 372.27,152.83 366.54,153.82 360.81,154.82 355.08,155.82 349.35,156.81 343.65,157.78 337.98,158.73 332.35,159.64 326.74,160.52 321.16,161.35 315.59,162.13 310.02,162.87 304.42,163.56 298.75,164.19 294.10,164.67 289.04,165.15 283.83,165.59 278.42,165.99 272.76,166.37 266.80,166.71 260.48,167.02 253.77,167.31 246.59,167.58 238.93,167.83 230.74,168.06 222.03,168.27 212.79,168.46 203.08,168.64 192.98,168.81 182.61,168.96 172.14,169.09 161.79,169.21 151.81,169.31 142.47,169.40 134.02,169.47 126.70,169.53 120.66,169.57 116.00,169.61 112.69,169.63 110.60,169.64 109.52,169.64 109.15,169.64 109.12,169.65 63.26,169.65 "
     style="stroke-width: 1.07; stroke: #45AAC4; stroke-opacity: 0.70; fill: #45AAC4; fill-opacity: 0.70;"
     clip-path="url(#cpOC4yMTkxOHw3MTQuNTIxfDU1Mi42OTh8NS40Nzk0NQ==)"
     id="polyline19" />
  <polyline
     points="63.26,348.73 109.12,348.73 109.19,348.73 109.70,348.73 110.98,348.72 113.34,348.70 116.96,348.67 121.94,348.63 128.28,348.57 135.88,348.49 144.55,348.38 154.07,348.26 164.16,348.12 174.55,347.96 185.01,347.77 195.33,347.57 205.35,347.34 214.96,347.10 224.08,346.84 232.67,346.55 240.73,346.24 248.28,345.91 255.35,345.54 261.97,345.15 268.19,344.72 274.08,344.25 279.68,343.74 285.04,343.19 290.21,342.60 294.10,342.10 299.84,341.31 305.47,340.45 311.04,339.52 316.59,338.53 322.13,337.48 327.70,336.37 333.28,335.20 338.90,333.98 344.56,332.71 350.24,331.42 355.94,330.10 361.65,328.77 367.36,327.44 373.06,326.13 378.73,324.84 384.38,323.58 390.00,322.36 395.59,321.19 401.14,320.09 406.69,319.04 412.24,318.06 417.81,317.14 423.45,316.28 428.64,315.57 433.70,314.94 438.91,314.35 444.32,313.81 449.98,313.31 455.94,312.85 462.25,312.43 468.97,312.05 476.14,311.69 483.80,311.36 491.98,311.05 500.70,310.77 509.93,310.51 519.64,310.28 529.74,310.06 540.11,309.86 550.58,309.68 560.92,309.52 570.90,309.38 580.25,309.26 588.70,309.17 596.02,309.09 602.06,309.03 606.73,308.99 610.04,308.96 612.13,308.95 613.21,308.94 613.59,308.94 613.62,308.94 659.48,308.94 659.48,298.99 613.62,298.99 613.54,298.99 613.04,298.99 611.76,299.00 609.40,299.02 605.78,299.05 600.80,299.09 594.46,299.16 586.86,299.24 578.19,299.34 568.67,299.46 558.58,299.60 548.19,299.77 537.73,299.95 527.40,300.15 517.38,300.38 507.78,300.62 498.66,300.89 490.07,301.17 482.01,301.48 474.46,301.82 467.39,302.18 460.77,302.58 454.55,303.00 448.66,303.47 443.06,303.98 437.70,304.53 432.53,305.13 428.64,305.62 422.90,306.42 417.27,307.27 411.70,308.20 406.15,309.19 400.61,310.24 395.04,311.36 389.46,312.53 383.84,313.75 378.18,315.01 372.50,316.31 366.80,317.62 361.09,318.95 355.38,320.28 349.68,321.59 344.01,322.89 338.36,324.15 332.74,325.36 327.15,326.53 321.60,327.64 316.05,328.68 310.50,329.67 304.93,330.59 299.29,331.44 294.10,332.15 289.04,332.79 283.83,333.37 278.42,333.91 272.76,334.41 266.80,334.87 260.49,335.29 253.77,335.68 246.60,336.03 238.94,336.36 230.76,336.67 222.04,336.95 212.81,337.21 203.10,337.45 193.00,337.67 182.63,337.87 172.16,338.05 161.82,338.20 151.84,338.34 142.49,338.46 134.04,338.56 126.72,338.63 120.68,338.69 116.01,338.73 112.70,338.76 110.61,338.78 109.52,338.78 109.15,338.79 109.12,338.79 63.26,338.79 "
     style="stroke-width: 1.07; stroke: #579A04; stroke-opacity: 0.70; fill: #579A04; fill-opacity: 0.70;"
     clip-path="url(#cpOC4yMTkxOHw3MTQuNTIxfDU1Mi42OTh8NS40Nzk0NQ==)"
     id="polyline21" />
  <polyline
     points="63.26,139.80 109.12,139.80 109.19,139.80 109.70,139.80 110.99,139.80 113.34,139.81 116.96,139.83 121.95,139.85 128.29,139.88 135.89,139.92 144.57,139.97 154.09,140.03 164.18,140.11 174.58,140.19 185.05,140.28 195.37,140.38 205.39,140.49 215.00,140.61 224.11,140.75 232.71,140.89 240.77,141.04 248.32,141.21 255.38,141.39 262.00,141.59 268.23,141.81 274.11,142.04 279.71,142.29 285.07,142.57 290.24,142.87 294.10,143.11 299.88,143.51 305.55,143.95 311.16,144.41 316.75,144.91 322.33,145.44 327.93,146.01 333.56,146.60 339.23,147.21 344.92,147.85 350.64,148.50 356.38,149.17 362.14,149.84 367.89,150.50 373.63,151.17 379.34,151.81 385.03,152.45 390.68,153.06 396.30,153.64 401.90,154.19 407.48,154.72 413.07,155.21 418.69,155.66 424.39,156.09 428.64,156.38 433.70,156.70 438.91,156.99 444.32,157.26 449.98,157.51 455.94,157.74 462.26,157.95 468.98,158.14 476.15,158.32 483.82,158.49 492.00,158.64 500.72,158.78 509.96,158.91 519.67,159.03 529.78,159.14 540.15,159.24 550.62,159.33 560.97,159.41 570.95,159.47 580.29,159.53 588.74,159.58 596.06,159.62 602.09,159.65 606.75,159.67 610.06,159.68 612.14,159.69 613.22,159.69 613.59,159.70 613.62,159.70 659.48,159.70 659.48,159.70 613.62,159.70 613.54,159.70 613.04,159.69 611.75,159.69 609.40,159.68 605.78,159.67 600.79,159.64 594.45,159.61 586.85,159.57 578.17,159.52 568.65,159.46 558.56,159.39 548.16,159.31 537.69,159.21 527.37,159.11 517.35,159.00 507.74,158.88 498.63,158.75 490.03,158.60 481.97,158.45 474.42,158.28 467.36,158.10 460.74,157.90 454.51,157.69 448.63,157.45 443.03,157.20 437.67,156.92 432.50,156.62 428.64,156.38 422.86,155.98 417.19,155.55 411.58,155.08 405.99,154.58 400.41,154.05 394.81,153.49 389.18,152.90 383.51,152.28 377.82,151.64 372.10,150.99 366.36,150.33 360.60,149.66 354.85,148.99 349.11,148.33 343.40,147.68 337.71,147.05 332.06,146.44 326.44,145.85 320.84,145.30 315.26,144.78 309.67,144.28 304.05,143.83 298.35,143.40 294.10,143.11 289.04,142.80 283.83,142.50 278.42,142.23 272.76,141.98 266.79,141.75 260.48,141.54 253.76,141.35 246.59,141.17 238.92,141.01 230.73,140.86 222.02,140.71 212.78,140.58 203.07,140.47 192.96,140.36 182.59,140.26 172.12,140.17 161.77,140.09 151.79,140.02 142.45,139.96 134.00,139.91 126.68,139.87 120.65,139.84 115.99,139.82 112.68,139.81 110.60,139.80 109.52,139.80 109.15,139.80 109.12,139.80 63.26,139.80 "
     style="stroke-width: 1.07; stroke: #579A04; stroke-opacity: 0.70; fill: #579A04; fill-opacity: 0.70;"
     clip-path="url(#cpOC4yMTkxOHw3MTQuNTIxfDU1Mi42OTh8NS40Nzk0NQ==)"
     id="polyline23" />
  <polyline
     points="63.26,308.94 109.12,308.94 109.19,308.94 109.70,308.94 110.99,308.93 113.34,308.93 116.97,308.92 121.95,308.91 128.29,308.90 135.90,308.87 144.58,308.85 154.10,308.82 164.19,308.78 174.59,308.74 185.05,308.70 195.38,308.65 205.40,308.59 215.01,308.53 224.12,308.46 232.72,308.39 240.78,308.31 248.33,308.23 255.39,308.14 262.01,308.04 268.23,307.93 274.12,307.82 279.72,307.69 285.08,307.55 290.25,307.40 294.10,307.28 299.89,307.08 305.57,306.86 311.19,306.63 316.79,306.38 322.38,306.11 328.00,305.83 333.64,305.53 339.31,305.22 345.01,304.91 350.75,304.58 356.50,304.25 362.26,303.91 368.02,303.58 373.77,303.24 379.50,302.92 385.19,302.60 390.85,302.30 396.48,302.01 402.09,301.73 407.68,301.47 413.28,301.22 418.92,300.99 424.63,300.78 428.64,300.65 433.70,300.49 438.91,300.34 444.33,300.21 449.99,300.08 455.95,299.97 462.26,299.86 468.98,299.76 476.16,299.68 483.82,299.59 492.01,299.52 500.73,299.45 509.97,299.38 519.68,299.32 529.78,299.27 540.16,299.22 550.63,299.17 560.98,299.13 570.96,299.10 580.30,299.07 588.75,299.04 596.07,299.03 602.09,299.01 606.75,299.00 610.06,298.99 612.15,298.99 613.22,298.99 613.59,298.99 613.62,298.99 659.48,298.99 659.48,159.70 613.62,159.70 613.54,159.70 613.04,159.70 611.75,159.70 609.40,159.70 605.77,159.71 600.79,159.72 594.44,159.74 586.84,159.76 578.16,159.78 568.64,159.81 558.55,159.85 548.15,159.89 537.68,159.94 527.36,159.99 517.34,160.04 507.73,160.10 498.62,160.17 490.02,160.24 481.96,160.32 474.41,160.40 467.35,160.49 460.73,160.59 454.51,160.70 448.62,160.82 443.02,160.94 437.66,161.08 432.49,161.23 428.64,161.35 422.85,161.55 417.17,161.77 411.55,162.00 405.95,162.25 400.36,162.52 394.74,162.80 389.10,163.10 383.43,163.41 377.73,163.73 371.99,164.05 366.24,164.39 360.48,164.72 354.72,165.06 348.97,165.39 343.24,165.71 337.55,166.03 331.89,166.33 326.26,166.63 320.65,166.90 315.06,167.17 309.46,167.41 303.82,167.64 298.11,167.85 294.10,167.99 289.04,168.15 283.83,168.29 278.41,168.43 272.75,168.55 266.79,168.67 260.48,168.77 253.76,168.87 246.58,168.96 238.92,169.04 230.73,169.12 222.01,169.19 212.77,169.25 203.06,169.31 192.96,169.37 182.58,169.42 172.11,169.46 161.76,169.50 151.78,169.53 142.44,169.56 133.99,169.59 126.67,169.61 120.65,169.62 115.99,169.63 112.68,169.64 110.59,169.64 109.52,169.64 109.15,169.65 109.12,169.65 63.26,169.65 "
     style="stroke-width: 1.07; stroke: #579A04; stroke-opacity: 0.70; fill: #579A04; fill-opacity: 0.70;"
     clip-path="url(#cpOC4yMTkxOHw3MTQuNTIxfDU1Mi42OTh8NS40Nzk0NQ==)"
     id="polyline25" />
  <polyline
     points="63.26,527.82 109.12,527.82 109.19,527.82 109.70,527.82 110.99,527.82 113.34,527.82 116.97,527.82 121.95,527.82 128.30,527.82 135.90,527.82 144.58,527.82 154.10,527.82 164.19,527.82 174.59,527.82 185.06,527.82 195.38,527.82 205.40,527.82 215.01,527.82 224.13,527.82 232.72,527.82 240.78,527.82 248.33,527.82 255.39,527.82 262.01,527.82 268.24,527.82 274.12,527.82 279.72,527.82 285.08,527.82 290.26,527.82 294.10,527.82 299.89,527.82 305.58,527.82 311.20,527.82 316.80,527.82 322.40,527.82 328.02,527.82 333.66,527.82 339.34,527.82 345.04,527.82 350.78,527.82 356.54,527.82 362.30,527.82 368.07,527.82 373.82,527.82 379.55,527.82 385.25,527.82 390.91,527.82 396.55,527.82 402.15,527.82 407.75,527.82 413.35,527.82 418.99,527.82 424.71,527.82 428.64,527.82 433.70,527.82 438.91,527.82 444.33,527.82 449.99,527.82 455.95,527.82 462.26,527.82 468.98,527.82 476.16,527.82 483.82,527.82 492.01,527.82 500.73,527.82 509.97,527.82 519.68,527.82 529.79,527.82 540.16,527.82 550.63,527.82 560.98,527.82 570.96,527.82 580.30,527.82 588.75,527.82 596.07,527.82 602.10,527.82 606.76,527.82 610.06,527.82 612.15,527.82 613.22,527.82 613.59,527.82 613.62,527.82 659.48,527.82 659.48,348.73 613.62,348.73 613.54,348.73 613.04,348.73 611.75,348.73 609.40,348.73 605.77,348.73 600.79,348.73 594.44,348.73 586.84,348.73 578.16,348.73 568.64,348.73 558.55,348.73 548.15,348.73 537.68,348.73 527.36,348.73 517.34,348.73 507.73,348.73 498.61,348.73 490.02,348.73 481.96,348.73 474.41,348.73 467.35,348.73 460.73,348.73 454.50,348.73 448.62,348.73 443.02,348.73 437.66,348.73 432.48,348.73 428.64,348.73 422.85,348.73 417.16,348.73 411.54,348.73 405.94,348.73 400.34,348.73 394.72,348.73 389.08,348.73 383.40,348.73 377.70,348.73 371.96,348.73 366.20,348.73 360.44,348.73 354.67,348.73 348.92,348.73 343.19,348.73 337.49,348.73 331.83,348.73 326.19,348.73 320.59,348.73 314.99,348.73 309.39,348.73 303.74,348.73 298.03,348.73 294.10,348.73 289.04,348.73 283.83,348.73 278.41,348.73 272.75,348.73 266.79,348.73 260.48,348.73 253.76,348.73 246.58,348.73 238.92,348.73 230.73,348.73 222.01,348.73 212.77,348.73 203.06,348.73 192.95,348.73 182.58,348.73 172.11,348.73 161.76,348.73 151.78,348.73 142.43,348.73 133.99,348.73 126.67,348.73 120.64,348.73 115.98,348.73 112.68,348.73 110.59,348.73 109.52,348.73 109.15,348.73 109.12,348.73 63.26,348.73 "
     style="stroke-width: 1.07; stroke: #B62525; stroke-opacity: 0.70; fill: #B62525; fill-opacity: 0.70;"
     clip-path="url(#cpOC4yMTkxOHw3MTQuNTIxfDU1Mi42OTh8NS40Nzk0NQ==)"
     id="polyline27" />
  <polyline
     points="63.26,169.65 109.12,169.65 109.19,169.65 109.69,169.66 110.96,169.70 113.28,169.78 116.84,169.90 121.76,170.09 128.02,170.35 135.53,170.69 144.11,171.11 153.54,171.63 163.55,172.22 173.87,172.91 184.28,173.68 194.56,174.54 204.56,175.48 214.15,176.50 223.26,177.61 231.86,178.81 239.93,180.11 247.49,181.51 254.57,183.04 261.20,184.69 267.44,186.48 273.33,188.43 278.93,190.56 284.30,192.86 289.47,195.36 294.10,197.84 299.18,200.81 304.17,203.99 309.11,207.39 314.01,211.01 318.91,214.84 323.82,218.88 328.74,223.12 333.68,227.55 338.65,232.13 343.64,236.86 348.66,241.70 353.69,246.63 358.73,251.61 363.78,256.60 368.83,261.58 373.86,266.51 378.88,271.35 383.87,276.09 388.84,280.68 393.78,285.11 398.70,289.36 403.61,293.41 408.51,297.26 413.41,300.88 418.35,304.29 423.34,307.49 428.41,310.47 428.64,310.60 433.67,313.27 438.85,315.76 444.23,318.05 449.85,320.15 455.77,322.09 462.04,323.88 468.71,325.52 475.82,327.03 483.42,328.43 491.53,329.72 500.17,330.91 509.32,332.02 518.94,333.03 528.97,333.96 539.26,334.81 549.67,335.58 559.98,336.26 569.96,336.85 579.33,337.35 587.84,337.77 595.26,338.10 601.41,338.36 606.22,338.54 609.69,338.66 611.92,338.74 613.11,338.77 613.56,338.78 613.62,338.79 659.48,338.79 659.48,308.94 613.62,308.94 613.55,308.94 613.05,308.92 611.78,308.88 609.46,308.81 605.90,308.68 600.98,308.49 594.72,308.23 587.21,307.89 578.63,307.47 569.20,306.96 559.19,306.36 548.87,305.67 538.46,304.90 528.18,304.05 518.18,303.11 508.59,302.08 499.48,300.98 490.88,299.77 482.81,298.48 475.25,297.07 468.17,295.55 461.54,293.89 455.30,292.10 449.41,290.15 443.81,288.03 438.44,285.72 433.27,283.23 428.64,280.75 423.56,277.78 418.57,274.59 413.63,271.19 408.73,267.58 403.83,263.74 398.92,259.70 394.00,255.46 389.06,251.04 384.09,246.45 379.10,241.72 374.08,236.88 369.05,231.95 364.01,226.98 358.96,221.98 353.91,217.00 348.88,212.07 343.86,207.23 338.87,202.49 333.90,197.90 328.96,193.47 324.04,189.22 319.13,185.17 314.23,181.33 309.33,177.70 304.39,174.29 299.40,171.10 294.33,168.12 294.10,167.99 289.07,165.31 283.89,162.83 278.51,160.54 272.89,158.43 266.97,156.49 260.70,154.71 254.03,153.06 246.92,151.55 239.32,150.15 231.21,148.86 222.57,147.67 213.42,146.57 203.80,145.55 193.77,144.62 183.48,143.77 173.07,143.01 162.76,142.33 152.78,141.73 143.41,141.23 134.90,140.81 127.48,140.48 121.33,140.22 116.52,140.04 113.05,139.92 110.82,139.85 109.63,139.81 109.18,139.80 109.12,139.80 63.26,139.80 "
     style="stroke-width: 1.07; stroke: #B62525; stroke-opacity: 0.70; fill: #B62525; fill-opacity: 0.70;"
     clip-path="url(#cpOC4yMTkxOHw3MTQuNTIxfDU1Mi42OTh8NS40Nzk0NQ==)"
     id="polyline29" />
  <polyline
     points="63.26,318.89 109.12,318.89 109.19,318.89 109.70,318.89 110.99,318.90 113.34,318.91 116.96,318.93 121.94,318.97 128.29,319.01 135.89,319.07 144.57,319.15 154.08,319.24 164.17,319.35 174.57,319.47 185.03,319.61 195.35,319.76 205.38,319.93 214.98,320.11 224.10,320.31 232.69,320.53 240.76,320.76 248.30,321.01 255.37,321.28 261.99,321.58 268.21,321.90 274.10,322.25 279.69,322.63 285.06,323.05 290.23,323.49 294.10,323.86 299.86,324.46 305.52,325.11 311.11,325.80 316.68,326.55 322.25,327.34 327.83,328.18 333.45,329.07 339.09,329.99 344.77,330.94 350.47,331.92 356.20,332.91 361.93,333.91 367.66,334.91 373.39,335.90 379.09,336.87 384.76,337.82 390.39,338.73 396.00,339.61 401.58,340.44 407.15,341.22 412.72,341.96 418.32,342.65 423.99,343.28 428.64,343.76 433.70,344.24 438.91,344.68 444.32,345.08 449.98,345.46 455.94,345.80 462.26,346.11 468.97,346.40 476.15,346.67 483.81,346.92 492.00,347.15 500.71,347.36 509.95,347.55 519.66,347.73 529.76,347.90 540.13,348.05 550.60,348.18 560.95,348.30 570.93,348.40 580.27,348.49 588.72,348.56 596.04,348.62 602.08,348.66 606.74,348.70 610.05,348.72 612.14,348.73 613.22,348.73 613.59,348.73 613.62,348.73 659.48,348.73 659.48,338.79 613.62,338.79 613.54,338.79 613.04,338.78 611.75,338.78 609.40,338.76 605.78,338.74 600.80,338.71 594.45,338.66 586.85,338.60 578.17,338.52 568.66,338.43 558.57,338.32 548.17,338.20 537.71,338.06 527.38,337.91 517.36,337.74 507.76,337.56 498.64,337.36 490.05,337.15 481.98,336.91 474.44,336.66 467.37,336.39 460.75,336.09 454.53,335.77 448.64,335.42 443.05,335.04 437.68,334.63 432.51,334.18 428.64,333.81 422.88,333.21 417.22,332.57 411.63,331.87 406.06,331.12 400.49,330.33 394.91,329.49 389.29,328.61 383.65,327.68 377.97,326.73 372.27,325.76 366.54,324.76 360.81,323.76 355.08,322.76 349.35,321.77 343.65,320.80 337.98,319.86 332.35,318.94 326.74,318.07 321.16,317.24 315.59,316.45 310.02,315.71 304.42,315.03 298.75,314.39 294.10,313.91 289.04,313.44 283.83,313.00 278.42,312.59 272.76,312.22 266.80,311.87 260.48,311.56 253.77,311.27 246.59,311.00 238.93,310.75 230.74,310.52 222.03,310.31 212.79,310.12 203.08,309.94 192.98,309.78 182.61,309.63 172.14,309.49 161.79,309.37 151.81,309.27 142.47,309.18 134.02,309.11 126.70,309.05 120.66,309.01 116.00,308.98 112.69,308.96 110.60,308.94 109.52,308.94 109.15,308.94 109.12,308.94 63.26,308.94 "
     style="stroke-width: 1.07; stroke: #B62525; stroke-opacity: 0.70; fill: #B62525; fill-opacity: 0.70;"
     clip-path="url(#cpOC4yMTkxOHw3MTQuNTIxfDU1Mi42OTh8NS40Nzk0NQ==)"
     id="polyline31" />
  <polyline
     points="40.32,318.89 132.05,318.89 132.05,527.82 40.32,527.82 40.32,318.89 "
     style="stroke-width: 1.07; stroke: #BEBEBE; fill: #FFFFFF;"
     clip-path="url(#cpOC4yMTkxOHw3MTQuNTIxfDU1Mi42OTh8NS40Nzk0NQ==)"
     id="polyline33" />
  <polyline
     points="40.32,169.65 132.05,169.65 132.05,318.89 40.32,318.89 40.32,169.65 "
     style="stroke-width: 1.07; stroke: #BEBEBE; fill: #FFFFFF;"
     clip-path="url(#cpOC4yMTkxOHw3MTQuNTIxfDU1Mi42OTh8NS40Nzk0NQ==)"
     id="polyline35" />
  <polyline
     points="40.32,30.35 132.05,30.35 132.05,169.65 40.32,169.65 40.32,30.35 "
     style="stroke-width: 1.07; stroke: #BEBEBE; fill: #FFFFFF;"
     clip-path="url(#cpOC4yMTkxOHw3MTQuNTIxfDU1Mi42OTh8NS40Nzk0NQ==)"
     id="polyline37" />
  <polyline
     points="590.69,308.94 682.42,308.94 682.42,527.82 590.69,527.82 590.69,308.94 "
     style="stroke-width: 1.07; stroke: #BEBEBE; fill: #FFFFFF;"
     clip-path="url(#cpOC4yMTkxOHw3MTQuNTIxfDU1Mi42OTh8NS40Nzk0NQ==)"
     id="polyline39" />
  <polyline
     points="590.69,159.70 682.42,159.70 682.42,308.94 590.69,308.94 590.69,159.70 "
     style="stroke-width: 1.07; stroke: #BEBEBE; fill: #FFFFFF;"
     clip-path="url(#cpOC4yMTkxOHw3MTQuNTIxfDU1Mi42OTh8NS40Nzk0NQ==)"
     id="polyline41" />
  <polyline
     points="590.69,30.35 682.42,30.35 682.42,159.70 590.69,159.70 590.69,30.35 "
     style="stroke-width: 1.07; stroke: #BEBEBE; fill: #FFFFFF;"
     clip-path="url(#cpOC4yMTkxOHw3MTQuNTIxfDU1Mi42OTh8NS40Nzk0NQ==)"
     id="polyline43" />
  <g
     clip-path="url(#cpOC4yMTkxOHw3MTQuNTIxfDU1Mi42OTh8NS40Nzk0NQ==)"
     id="g45"
     transform="translate(16,6)">
    <text
       x="78.550003"
       y="427.29001"
       style="font-size:22px;font-family:Arial"
       textLength="15.28px"
       lengthAdjust="spacingAndGlyphs"
       id="text47">UK</text>
  </g>
  <g
     clip-path="url(#cpOC4yMTkxOHw3MTQuNTIxfDU1Mi42OTh8NS40Nzk0NQ==)"
     id="g49"
     transform="translate(-22,2)">
    <text
       x="65.699997"
       y="248.2"
       style="font-size:22px;font-family:Arial"
       textLength="40.97px"
       lengthAdjust="spacingAndGlyphs"
       id="text51">Portugal</text>
  </g>
  <g
     clip-path="url(#cpOC4yMTkxOHw3MTQuNTIxfDU1Mi42OTh8NS40Nzk0NQ==)"
     id="g53"
     transform="translate(-12,0)">
    <text
       x="69.370003"
       y="103.94"
       style="font-size:22px;font-family:Arial"
       textLength="33.63px"
       lengthAdjust="spacingAndGlyphs"
       id="text55">Ireland</text>
  </g>
  <g
     clip-path="url(#cpOC4yMTkxOHw3MTQuNTIxfDU1Mi42OTh8NS40Nzk0NQ==)"
     id="g57"
     transform="translate(-34,6)">
    <text
       x="628.90997"
       y="422.32001"
       style="font-size:22px;font-family:Arial"
       textLength="15.28px"
       lengthAdjust="spacingAndGlyphs"
       id="text59">UK</text>
  </g>
  <g
     clip-path="url(#cpOC4yMTkxOHw3MTQuNTIxfDU1Mi42OTh8NS40Nzk0NQ==)"
     id="g61"
     transform="translate(-20,0)">
    <text
       x="616.07001"
       y="238.25"
       style="font-size:22px;font-family:Arial"
       textLength="40.97px"
       lengthAdjust="spacingAndGlyphs"
       id="text63">Portugal</text>
  </g>
  <g
     clip-path="url(#cpOC4yMTkxOHw3MTQuNTIxfDU1Mi42OTh8NS40Nzk0NQ==)"
     id="g65"
     transform="translate(-24,0)">
    <text
       x="619.73999"
       y="98.959999"
       style="font-size:22px;font-family:Arial"
       textLength="33.63px"
       lengthAdjust="spacingAndGlyphs"
       id="text67">Ireland</text>
  </g>
  <defs
     id="defs69">
    <clipPath
       id="cpMHw3MjB8NTc2fDA=">
      <rect
         x="0.00"
         y="0.00"
         width="720.00"
         height="576.00"
         id="rect72" />
    </clipPath>
  </defs>
  <g
     clip-path="url(#cpMHw3MjB8NTc2fDA=)"
     id="g74"
     transform="translate(16,-14)">
    <text
       x="66.169998"
       y="570.52002"
       style="font-weight:bold;font-size:26px;font-family:Arial;fill:#4d4d4d"
       textLength="40.04px"
       lengthAdjust="spacingAndGlyphs"
       id="text76">2010</text>
  </g>
  <g
     clip-path="url(#cpMHw3MjB8NTc2fDA=)"
     id="g78"
     transform="translate(-34,-12)">
    <text
       x="616.53003"
       y="570.52002"
       style="font-weight:bold;font-size:26px;font-family:Arial;fill:#4d4d4d"
       textLength="40.04px"
       lengthAdjust="spacingAndGlyphs"
       id="text80">2015</text>
  </g>
</svg>
