<?xml version="1.0" encoding="UTF-8" standalone="no"?>
<svg
   xmlns:dc="http://purl.org/dc/elements/1.1/"
   xmlns:cc="http://creativecommons.org/ns#"
   xmlns:rdf="http://www.w3.org/1999/02/22-rdf-syntax-ns#"
   xmlns:svg="http://www.w3.org/2000/svg"
   xmlns="http://www.w3.org/2000/svg"
   xmlns:sodipodi="http://sodipodi.sourceforge.net/DTD/sodipodi-0.dtd"
   xmlns:inkscape="http://www.inkscape.org/namespaces/inkscape"
   viewBox="0 0 720.00 576.00"
   id="svg2"
   version="1.1"
   inkscape:version="0.91 r13725"
   sodipodi:docname="12-dendrogram.svg">
  <metadata
     id="metadata236">
    <rdf:RDF>
      <cc:Work
         rdf:about="">
        <dc:format>image/svg+xml</dc:format>
        <dc:type
           rdf:resource="http://purl.org/dc/dcmitype/StillImage" />
      </cc:Work>
    </rdf:RDF>
  </metadata>
  <sodipodi:namedview
     pagecolor="#ffffff"
     bordercolor="#666666"
     borderopacity="1"
     objecttolerance="10"
     gridtolerance="10"
     guidetolerance="10"
     inkscape:pageopacity="0"
     inkscape:pageshadow="2"
     inkscape:window-width="1155"
     inkscape:window-height="565"
     id="namedview234"
     showgrid="false"
     inkscape:zoom="0.40972222"
     inkscape:cx="35.389831"
     inkscape:cy="288"
     inkscape:window-x="0"
     inkscape:window-y="0"
     inkscape:window-maximized="0"
     inkscape:current-layer="svg2" />
  <defs
     id="defs4">
    <style
       type="text/css"
       id="style6"><![CDATA[
    line, polyline, path, rect, circle {
      fill: none;
      stroke: #000000;
      stroke-linecap: round;
      stroke-linejoin: round;
      stroke-miterlimit: 10.00;
    }
  ]]></style>
  </defs>
  <rect
     width="100%"
     height="100%"
     style="stroke: none; fill: #FFFFFF;"
     id="rect8" />
  <text
     transform="translate(84.98,373.73) rotate(-90)"
     style="font-size: 12.00px; font-family: Arial;"
     textLength="36.68px"
     lengthAdjust="spacingAndGlyphs"
     id="text10">Florida</text>
  <text
     transform="translate(96.90,414.42) rotate(-90)"
     style="font-size: 12.00px; font-family: Arial;"
     textLength="77.37px"
     lengthAdjust="spacingAndGlyphs"
     id="text12">North Carolina</text>
  <polyline
     points="82.40,327.05 82.40,297.75 94.32,297.75 94.32,327.05 "
     style="stroke-width: 0.75;"
     id="polyline14" />
  <text
     transform="translate(108.81,408.28) rotate(-90)"
     style="font-size: 12.00px; font-family: Arial;"
     textLength="50.69px"
     lengthAdjust="spacingAndGlyphs"
     id="text16">California</text>
  <text
     transform="translate(120.73,431.48) rotate(-90)"
     style="font-size: 12.00px; font-family: Arial;"
     textLength="49.35px"
     lengthAdjust="spacingAndGlyphs"
     id="text18">Maryland</text>
  <text
     transform="translate(132.65,425.86) rotate(-90)"
     style="font-size: 12.00px; font-family: Arial;"
     textLength="40.69px"
     lengthAdjust="spacingAndGlyphs"
     id="text20">Arizona</text>
  <text
     transform="translate(144.57,450.52) rotate(-90)"
     style="font-size: 12.00px; font-family: Arial;"
     textLength="65.35px"
     lengthAdjust="spacingAndGlyphs"
     id="text22">New Mexico</text>
  <polyline
     points="130.07,375.17 130.07,345.86 141.99,345.86 141.99,375.17 "
     style="stroke-width: 0.75;"
     id="polyline24" />
  <polyline
     points="118.16,372.13 118.16,342.82 136.03,342.82 136.03,345.86 "
     style="stroke-width: 0.75;"
     id="polyline26" />
  <polyline
     points="106.24,347.60 106.24,318.29 127.09,318.29 127.09,342.82 "
     style="stroke-width: 0.75;"
     id="polyline28" />
  <text
     transform="translate(156.49,430.01) rotate(-90)"
     style="font-size: 12.00px; font-family: Arial;"
     textLength="50.69px"
     lengthAdjust="spacingAndGlyphs"
     id="text30">Delaware</text>
  <text
     transform="translate(168.41,429.48) rotate(-90)"
     style="font-size: 12.00px; font-family: Arial;"
     textLength="47.36px"
     lengthAdjust="spacingAndGlyphs"
     id="text32">Alabama</text>
  <text
     transform="translate(180.33,433.50) rotate(-90)"
     style="font-size: 12.00px; font-family: Arial;"
     textLength="51.38px"
     lengthAdjust="spacingAndGlyphs"
     id="text34">Louisiana</text>
  <polyline
     points="165.83,372.13 165.83,342.82 177.75,342.82 177.75,372.13 "
     style="stroke-width: 0.75;"
     id="polyline36" />
  <polyline
     points="153.91,369.32 153.91,340.01 171.79,340.01 171.79,342.82 "
     style="stroke-width: 0.75;"
     id="polyline38" />
  <text
     transform="translate(192.24,433.48) rotate(-90)"
     style="font-size: 12.00px; font-family: Arial;"
     textLength="33.35px"
     lengthAdjust="spacingAndGlyphs"
     id="text40">Illinois</text>
  <text
     transform="translate(204.16,452.14) rotate(-90)"
     style="font-size: 12.00px; font-family: Arial;"
     textLength="52.01px"
     lengthAdjust="spacingAndGlyphs"
     id="text42">New York</text>
  <polyline
     points="189.67,390.13 189.67,360.83 201.58,360.83 201.58,390.13 "
     style="stroke-width: 0.75;"
     id="polyline44" />
  <text
     transform="translate(216.08,434.36) rotate(-90)"
     style="font-size: 12.00px; font-family: Arial;"
     textLength="48.02px"
     lengthAdjust="spacingAndGlyphs"
     id="text46">Michigan</text>
  <text
     transform="translate(228.00,427.70) rotate(-90)"
     style="font-size: 12.00px; font-family: Arial;"
     textLength="41.36px"
     lengthAdjust="spacingAndGlyphs"
     id="text48">Nevada</text>
  <polyline
     points="213.50,376.34 213.50,347.03 225.42,347.03 225.42,376.34 "
     style="stroke-width: 0.75;"
     id="polyline50" />
  <polyline
     points="195.62,360.83 195.62,337.03 219.46,337.03 219.46,347.03 "
     style="stroke-width: 0.75;"
     id="polyline52" />
  <polyline
     points="162.85,340.01 162.85,321.51 207.54,321.51 207.54,337.03 "
     style="stroke-width: 0.75;"
     id="polyline54" />
  <text
     transform="translate(239.92,393.45) rotate(-90)"
     style="font-size: 12.00px; font-family: Arial;"
     textLength="36.02px"
     lengthAdjust="spacingAndGlyphs"
     id="text56">Alaska</text>
  <text
     transform="translate(251.84,428.97) rotate(-90)"
     style="font-size: 12.00px; font-family: Arial;"
     textLength="58.01px"
     lengthAdjust="spacingAndGlyphs"
     id="text58">Mississippi</text>
  <text
     transform="translate(263.75,450.35) rotate(-90)"
     style="font-size: 12.00px; font-family: Arial;"
     textLength="79.38px"
     lengthAdjust="spacingAndGlyphs"
     id="text60">South Carolina</text>
  <polyline
     points="249.26,360.97 249.26,331.66 261.18,331.66 261.18,360.97 "
     style="stroke-width: 0.75;"
     id="polyline62" />
  <polyline
     points="237.34,347.43 237.34,318.13 255.22,318.13 255.22,331.66 "
     style="stroke-width: 0.75;"
     id="polyline64" />
  <polyline
     points="185.20,321.51 185.20,296.05 246.28,296.05 246.28,318.13 "
     style="stroke-width: 0.75;"
     id="polyline66" />
  <polyline
     points="116.67,318.29 116.67,286.50 215.74,286.50 215.74,296.05 "
     style="stroke-width: 0.75;"
     id="polyline68" />
  <polyline
     points="88.36,297.75 88.36,221.41 166.20,221.41 166.20,286.50 "
     style="stroke-width: 0.75;"
     id="polyline70" />
  <text
     transform="translate(275.67,443.60) rotate(-90)"
     style="font-size: 12.00px; font-family: Arial;"
     textLength="63.37px"
     lengthAdjust="spacingAndGlyphs"
     id="text72">Washington</text>
  <text
     transform="translate(287.59,427.18) rotate(-90)"
     style="font-size: 12.00px; font-family: Arial;"
     textLength="40.03px"
     lengthAdjust="spacingAndGlyphs"
     id="text74">Oregon</text>
  <text
     transform="translate(299.51,441.35) rotate(-90)"
     style="font-size: 12.00px; font-family: Arial;"
     textLength="50.01px"
     lengthAdjust="spacingAndGlyphs"
     id="text76">Wyoming</text>
  <text
     transform="translate(311.43,452.64) rotate(-90)"
     style="font-size: 12.00px; font-family: Arial;"
     textLength="54.69px"
     lengthAdjust="spacingAndGlyphs"
     id="text78">Oklahoma</text>
  <text
     transform="translate(323.35,437.96) rotate(-90)"
     style="font-size: 12.00px; font-family: Arial;"
     textLength="40.02px"
     lengthAdjust="spacingAndGlyphs"
     id="text80">Virginia</text>
  <polyline
     points="308.85,387.95 308.85,358.64 320.77,358.64 320.77,387.95 "
     style="stroke-width: 0.75;"
     id="polyline82" />
  <polyline
     points="296.93,381.34 296.93,352.04 314.81,352.04 314.81,358.64 "
     style="stroke-width: 0.75;"
     id="polyline84" />
  <polyline
     points="285.01,377.16 285.01,347.85 305.87,347.85 305.87,352.04 "
     style="stroke-width: 0.75;"
     id="polyline86" />
  <polyline
     points="273.09,370.23 273.09,340.92 295.44,340.92 295.44,347.85 "
     style="stroke-width: 0.75;"
     id="polyline88" />
  <text
     transform="translate(335.26,438.89) rotate(-90)"
     style="font-size: 12.00px; font-family: Arial;"
     textLength="70.72px"
     lengthAdjust="spacingAndGlyphs"
     id="text90">Rhode Island</text>
  <text
     transform="translate(347.18,469.97) rotate(-90)"
     style="font-size: 12.00px; font-family: Arial;"
     textLength="80.03px"
     lengthAdjust="spacingAndGlyphs"
     id="text92">Massachusetts</text>
  <text
     transform="translate(359.10,452.62) rotate(-90)"
     style="font-size: 12.00px; font-family: Arial;"
     textLength="62.68px"
     lengthAdjust="spacingAndGlyphs"
     id="text94">New Jersey</text>
  <polyline
     points="344.60,379.94 344.60,350.63 356.52,350.63 356.52,379.94 "
     style="stroke-width: 0.75;"
     id="polyline96" />
  <polyline
     points="332.69,358.18 332.69,328.87 350.56,328.87 350.56,350.63 "
     style="stroke-width: 0.75;"
     id="polyline98" />
  <polyline
     points="284.27,340.92 284.27,320.83 341.62,320.83 341.62,328.87 "
     style="stroke-width: 0.75;"
     id="polyline100" />
  <text
     transform="translate(371.02,417.53) rotate(-90)"
     style="font-size: 12.00px; font-family: Arial;"
     textLength="44.67px"
     lengthAdjust="spacingAndGlyphs"
     id="text102">Missouri</text>
  <text
     transform="translate(382.94,437.69) rotate(-90)"
     style="font-size: 12.00px; font-family: Arial;"
     textLength="50.02px"
     lengthAdjust="spacingAndGlyphs"
     id="text104">Arkansas</text>
  <text
     transform="translate(394.86,447.04) rotate(-90)"
     style="font-size: 12.00px; font-family: Arial;"
     textLength="59.37px"
     lengthAdjust="spacingAndGlyphs"
     id="text106">Tennessee</text>
  <polyline
     points="380.36,377.68 380.36,348.37 392.28,348.37 392.28,377.68 "
     style="stroke-width: 0.75;"
     id="polyline108" />
  <polyline
     points="368.44,362.86 368.44,333.55 386.32,333.55 386.32,348.37 "
     style="stroke-width: 0.75;"
     id="polyline110" />
  <text
     transform="translate(406.77,408.18) rotate(-90)"
     style="font-size: 12.00px; font-family: Arial;"
     textLength="42.69px"
     lengthAdjust="spacingAndGlyphs"
     id="text112">Georgia</text>
  <text
     transform="translate(418.69,432.68) rotate(-90)"
     style="font-size: 12.00px; font-family: Arial;"
     textLength="48.70px"
     lengthAdjust="spacingAndGlyphs"
     id="text114">Colorado</text>
  <text
     transform="translate(430.61,416.66) rotate(-90)"
     style="font-size: 12.00px; font-family: Arial;"
     textLength="32.68px"
     lengthAdjust="spacingAndGlyphs"
     id="text116">Texas</text>
  <polyline
     points="416.11,373.99 416.11,344.68 428.03,344.68 428.03,373.99 "
     style="stroke-width: 0.75;"
     id="polyline118" />
  <polyline
     points="404.20,355.49 404.20,326.18 422.07,326.18 422.07,344.68 "
     style="stroke-width: 0.75;"
     id="polyline120" />
  <polyline
     points="377.38,333.55 377.38,316.25 413.13,316.25 413.13,326.18 "
     style="stroke-width: 0.75;"
     id="polyline122" />
  <polyline
     points="312.95,320.83 312.95,285.42 395.26,285.42 395.26,316.25 "
     style="stroke-width: 0.75;"
     id="polyline124" />
  <text
     transform="translate(442.53,412.99) rotate(-90)"
     style="font-size: 12.00px; font-family: Arial;"
     textLength="30.03px"
     lengthAdjust="spacingAndGlyphs"
     id="text126">Idaho</text>
  <text
     transform="translate(454.45,439.37) rotate(-90)"
     style="font-size: 12.00px; font-family: Arial;"
     textLength="51.36px"
     lengthAdjust="spacingAndGlyphs"
     id="text128">Nebraska</text>
  <text
     transform="translate(466.37,454.18) rotate(-90)"
     style="font-size: 12.00px; font-family: Arial;"
     textLength="49.36px"
     lengthAdjust="spacingAndGlyphs"
     id="text130">Kentucky</text>
  <text
     transform="translate(478.28,451.52) rotate(-90)"
     style="font-size: 12.00px; font-family: Arial;"
     textLength="46.70px"
     lengthAdjust="spacingAndGlyphs"
     id="text132">Montana</text>
  <polyline
     points="463.79,394.83 463.79,365.52 475.71,365.52 475.71,394.83 "
     style="stroke-width: 0.75;"
     id="polyline134" />
  <polyline
     points="451.87,378.02 451.87,348.71 469.75,348.71 469.75,365.52 "
     style="stroke-width: 0.75;"
     id="polyline136" />
  <polyline
     points="439.95,372.96 439.95,343.66 460.81,343.66 460.81,348.71 "
     style="stroke-width: 0.75;"
     id="polyline138" />
  <text
     transform="translate(490.20,424.69) rotate(-90)"
     style="font-size: 12.00px; font-family: Arial;"
     textLength="25.35px"
     lengthAdjust="spacingAndGlyphs"
     id="text140">Ohio</text>
  <text
     transform="translate(502.12,424.69) rotate(-90)"
     style="font-size: 12.00px; font-family: Arial;"
     textLength="25.35px"
     lengthAdjust="spacingAndGlyphs"
     id="text142">Utah</text>
  <polyline
     points="487.62,389.35 487.62,360.04 499.54,360.04 499.54,389.35 "
     style="stroke-width: 0.75;"
     id="polyline144" />
  <text
     transform="translate(514.04,444.01) rotate(-90)"
     style="font-size: 12.00px; font-family: Arial;"
     textLength="39.37px"
     lengthAdjust="spacingAndGlyphs"
     id="text146">Indiana</text>
  <text
     transform="translate(525.96,444.66) rotate(-90)"
     style="font-size: 12.00px; font-family: Arial;"
     textLength="40.03px"
     lengthAdjust="spacingAndGlyphs"
     id="text148">Kansas</text>
  <polyline
     points="511.46,394.64 511.46,365.33 523.38,365.33 523.38,394.64 "
     style="stroke-width: 0.75;"
     id="polyline150" />
  <text
     transform="translate(537.88,460.00) rotate(-90)"
     style="font-size: 12.00px; font-family: Arial;"
     textLength="63.37px"
     lengthAdjust="spacingAndGlyphs"
     id="text152">Connecticut</text>
  <text
     transform="translate(549.79,468.01) rotate(-90)"
     style="font-size: 12.00px; font-family: Arial;"
     textLength="71.38px"
     lengthAdjust="spacingAndGlyphs"
     id="text154">Pennsylvania</text>
  <polyline
     points="535.30,386.64 535.30,357.33 547.22,357.33 547.22,386.64 "
     style="stroke-width: 0.75;"
     id="polyline156" />
  <polyline
     points="517.42,365.33 517.42,346.93 541.26,346.93 541.26,357.33 "
     style="stroke-width: 0.75;"
     id="polyline158" />
  <polyline
     points="493.58,360.04 493.58,343.47 529.34,343.47 529.34,346.93 "
     style="stroke-width: 0.75;"
     id="polyline160" />
  <polyline
     points="450.38,343.66 450.38,332.77 511.46,332.77 511.46,343.47 "
     style="stroke-width: 0.75;"
     id="polyline162" />
  <text
     transform="translate(561.71,368.05) rotate(-90)"
     style="font-size: 12.00px; font-family: Arial;"
     textLength="36.01px"
     lengthAdjust="spacingAndGlyphs"
     id="text164">Hawaii</text>
  <text
     transform="translate(573.63,461.96) rotate(-90)"
     style="font-size: 12.00px; font-family: Arial;"
     textLength="70.69px"
     lengthAdjust="spacingAndGlyphs"
     id="text166">West Virginia</text>
  <text
     transform="translate(585.55,428.32) rotate(-90)"
     style="font-size: 12.00px; font-family: Arial;"
     textLength="32.68px"
     lengthAdjust="spacingAndGlyphs"
     id="text168">Maine</text>
  <text
     transform="translate(597.47,468.35) rotate(-90)"
     style="font-size: 12.00px; font-family: Arial;"
     textLength="72.71px"
     lengthAdjust="spacingAndGlyphs"
     id="text170">South Dakota</text>
  <polyline
     points="582.97,385.64 582.97,356.33 594.89,356.33 594.89,385.64 "
     style="stroke-width: 0.75;"
     id="polyline172" />
  <polyline
     points="571.05,381.28 571.05,351.97 588.93,351.97 588.93,356.33 "
     style="stroke-width: 0.75;"
     id="polyline174" />
  <text
     transform="translate(609.39,457.53) rotate(-90)"
     style="font-size: 12.00px; font-family: Arial;"
     textLength="70.70px"
     lengthAdjust="spacingAndGlyphs"
     id="text176">North Dakota</text>
  <text
     transform="translate(621.30,432.18) rotate(-90)"
     style="font-size: 12.00px; font-family: Arial;"
     textLength="45.35px"
     lengthAdjust="spacingAndGlyphs"
     id="text178">Vermont</text>
  <polyline
     points="606.81,376.83 606.81,347.53 618.73,347.53 618.73,376.83 "
     style="stroke-width: 0.75;"
     id="polyline180" />
  <text
     transform="translate(633.22,430.58) rotate(-90)"
     style="font-size: 12.00px; font-family: Arial;"
     textLength="55.37px"
     lengthAdjust="spacingAndGlyphs"
     id="text182">Minnesota</text>
  <text
     transform="translate(645.14,447.10) rotate(-90)"
     style="font-size: 12.00px; font-family: Arial;"
     textLength="54.68px"
     lengthAdjust="spacingAndGlyphs"
     id="text184">Wisconsin</text>
  <text
     transform="translate(657.06,433.18) rotate(-90)"
     style="font-size: 12.00px; font-family: Arial;"
     textLength="25.35px"
     lengthAdjust="spacingAndGlyphs"
     id="text186">Iowa</text>
  <text
     transform="translate(668.98,493.20) rotate(-90)"
     style="font-size: 12.00px; font-family: Arial;"
     textLength="85.36px"
     lengthAdjust="spacingAndGlyphs"
     id="text188">New Hampshire</text>
  <polyline
     points="654.48,397.84 654.48,368.53 666.40,368.53 666.40,397.84 "
     style="stroke-width: 0.75;"
     id="polyline190" />
  <polyline
     points="642.56,382.42 642.56,353.12 660.44,353.12 660.44,368.53 "
     style="stroke-width: 0.75;"
     id="polyline192" />
  <polyline
     points="630.64,365.21 630.64,335.91 651.50,335.91 651.50,353.12 "
     style="stroke-width: 0.75;"
     id="polyline194" />
  <polyline
     points="612.77,347.53 612.77,318.74 641.07,318.74 641.07,335.91 "
     style="stroke-width: 0.75;"
     id="polyline196" />
  <polyline
     points="579.99,351.97 579.99,308.32 626.92,308.32 626.92,318.74 "
     style="stroke-width: 0.75;"
     id="polyline198" />
  <polyline
     points="559.13,322.04 559.13,292.73 603.46,292.73 603.46,308.32 "
     style="stroke-width: 0.75;"
     id="polyline200" />
  <polyline
     points="480.92,332.77 480.92,266.06 581.30,266.06 581.30,292.73 "
     style="stroke-width: 0.75;"
     id="polyline202" />
  <polyline
     points="354.10,285.42 354.10,198.70 531.11,198.70 531.11,266.06 "
     style="stroke-width: 0.75;"
     id="polyline204" />
  <polyline
     points="127.28,221.41 127.28,75.47 442.60,75.47 442.60,198.70 "
     style="stroke-width: 0.75;"
     id="polyline206" />
  <line
     x1="59.04"
     y1="373.01"
     x2="59.04"
     y2="59.04"
     style="stroke-width: 0.75;"
     id="line208" />
  <line
     x1="59.04"
     y1="373.01"
     x2="51.84"
     y2="373.01"
     style="stroke-width: 0.75;"
     id="line210" />
  <line
     x1="59.04"
     y1="275.34"
     x2="51.84"
     y2="275.34"
     style="stroke-width: 0.75;"
     id="line212" />
  <line
     x1="59.04"
     y1="177.66"
     x2="51.84"
     y2="177.66"
     style="stroke-width: 0.75;"
     id="line214" />
  <line
     x1="59.04"
     y1="79.99"
     x2="51.84"
     y2="79.99"
     style="stroke-width: 0.75;"
     id="line216" />
  <text
     transform="translate(41.76,376.35) rotate(-90)"
     style="font-size: 12.00px; font-family: Arial;"
     textLength="6.67px"
     lengthAdjust="spacingAndGlyphs"
     id="text218">0</text>
  <text
     transform="translate(41.76,282.01) rotate(-90)"
     style="font-size: 12.00px; font-family: Arial;"
     textLength="13.35px"
     lengthAdjust="spacingAndGlyphs"
     id="text220">50</text>
  <text
     transform="translate(41.76,187.67) rotate(-90)"
     style="font-size: 12.00px; font-family: Arial;"
     textLength="20.02px"
     lengthAdjust="spacingAndGlyphs"
     id="text222">100</text>
  <text
     transform="translate(41.76,90.00) rotate(-90)"
     style="font-size: 12.00px; font-family: Arial;"
     textLength="20.02px"
     lengthAdjust="spacingAndGlyphs"
     id="text224">150</text>
</svg>
