<?xml version="1.0" encoding="UTF-8" standalone="no"?>
<!-- This is a Stata 14.2 generated SVG file (http://www.stata.com) -->

<svg version="1.1" width="5.50in" height="4.00in" viewBox="0 0 3960 2880" xmlns="http://www.w3.org/2000/svg">
	<desc>Stata Graph - Graph</desc>
	<rect x="0.00" y="0.00" width="3959.88" height="2880.00" style="fill:#FFFFFF;stroke:#FFFFFF;stroke-width:5.76"/>
	<rect x="390.68" y="275.48" width="3468.34" height="1683.67" style="fill:#FFFFFF;stroke:#FFFFFF;stroke-width:5.76"/>
	<line x1="390.68" y1="1895.79" x2="3859.02" y2="1895.79" style="stroke:#EAF2F3;stroke-width:8.64"/>
	<line x1="390.68" y1="1506.58" x2="3859.02" y2="1506.58" style="stroke:#EAF2F3;stroke-width:8.64"/>
	<line x1="390.68" y1="1117.25" x2="3859.02" y2="1117.25" style="stroke:#EAF2F3;stroke-width:8.64"/>
	<line x1="390.68" y1="728.04" x2="3859.02" y2="728.04" style="stroke:#EAF2F3;stroke-width:8.64"/>
	<line x1="390.68" y1="338.84" x2="3859.02" y2="338.84" style="stroke:#EAF2F3;stroke-width:8.64"/>
	<line x1="454.04" y1="1959.15" x2="454.04" y2="275.48" style="stroke:#EAF2F3;stroke-width:8.64"/>
	<line x1="1567.91" y1="1959.15" x2="1567.91" y2="275.48" style="stroke:#EAF2F3;stroke-width:8.64"/>
	<line x1="2681.79" y1="1959.15" x2="2681.79" y2="275.48" style="stroke:#EAF2F3;stroke-width:8.64"/>
	<line x1="3795.66" y1="1959.15" x2="3795.66" y2="275.48" style="stroke:#EAF2F3;stroke-width:8.64"/>
	<circle cx="3015.91" cy="1370.33" r="21.90" style="fill:#585858;stroke:#585858;stroke-width:8.64"/>
	<circle cx="3261.06" cy="1409.31" r="21.90" style="fill:#585858;stroke:#585858;stroke-width:8.64"/>
	<circle cx="3461.53" cy="1545.44" r="21.90" style="fill:#585858;stroke:#585858;stroke-width:8.64"/>
	<circle cx="3572.91" cy="1564.99" r="21.90" style="fill:#585858;stroke:#585858;stroke-width:8.64"/>
	<circle cx="3105.01" cy="1487.15" r="21.90" style="fill:#585858;stroke:#585858;stroke-width:8.64"/>
	<circle cx="3127.29" cy="1428.74" r="21.90" style="fill:#585858;stroke:#585858;stroke-width:8.64"/>
	<circle cx="3238.78" cy="1428.74" r="21.90" style="fill:#585858;stroke:#585858;stroke-width:8.64"/>
	<circle cx="3216.51" cy="1487.15" r="21.90" style="fill:#585858;stroke:#585858;stroke-width:8.64"/>
	<circle cx="1612.46" cy="1058.96" r="21.90" style="fill:#585858;stroke:#585858;stroke-width:8.64"/>
	<circle cx="1701.56" cy="1234.07" r="21.90" style="fill:#585858;stroke:#585858;stroke-width:8.64"/>
	<circle cx="855.11" cy="552.93" r="21.90" style="fill:#585858;stroke:#585858;stroke-width:8.64"/>
	<circle cx="2035.81" cy="1156.23" r="21.90" style="fill:#A9B549;stroke:#A9B549;stroke-width:8.64"/>
	<circle cx="1612.46" cy="961.57" r="21.90" style="fill:#A9B549;stroke:#A9B549;stroke-width:8.64"/>
	<circle cx="2837.71" cy="1389.76" r="21.90" style="fill:#A9B549;stroke:#A9B549;stroke-width:8.64"/>
	<circle cx="2236.29" cy="1214.64" r="21.90" style="fill:#B549A9;stroke:#B549A9;stroke-width:8.64"/>
	<circle cx="2548.14" cy="1214.64" r="21.90" style="fill:#B549A9;stroke:#B549A9;stroke-width:8.64"/>
	<circle cx="2726.34" cy="1311.91" r="21.90" style="fill:#B549A9;stroke:#B549A9;stroke-width:8.64"/>
	<circle cx="2414.49" cy="1331.34" r="21.90" style="fill:#B549A9;stroke:#B549A9;stroke-width:8.64"/>
	<circle cx="1211.51" cy="1175.66" r="21.90" style="fill:#B549A9;stroke:#B549A9;stroke-width:8.64"/>
	<circle cx="921.94" cy="1039.41" r="21.90" style="fill:#B549A9;stroke:#B549A9;stroke-width:8.64"/>
	<circle cx="1746.11" cy="1039.41" r="21.90" style="fill:#B549A9;stroke:#B549A9;stroke-width:8.64"/>
	<circle cx="1902.04" cy="1234.07" r="21.90" style="fill:#B549A9;stroke:#B549A9;stroke-width:8.64"/>
	<circle cx="2058.09" cy="1195.21" r="21.90" style="fill:#B549A9;stroke:#B549A9;stroke-width:8.64"/>
	<circle cx="2436.76" cy="1253.50" r="21.90" style="fill:#B549A9;stroke:#B549A9;stroke-width:8.64"/>
	<circle cx="2681.79" cy="1331.34" r="21.90" style="fill:#49A9B5;stroke:#49A9B5;stroke-width:8.64"/>
	<circle cx="2080.36" cy="1117.25" r="21.90" style="fill:#49A9B5;stroke:#49A9B5;stroke-width:8.64"/>
	<circle cx="1166.96" cy="455.54" r="21.90" style="fill:#49A9B5;stroke:#49A9B5;stroke-width:8.64"/>
	<circle cx="1434.26" cy="825.31" r="21.90" style="fill:#49A9B5;stroke:#49A9B5;stroke-width:8.64"/>
	<line x1="390.68" y1="1959.15" x2="390.68" y2="275.48" style="stroke:#000000;stroke-width:5.76"/>
	<line x1="390.68" y1="1895.79" x2="350.71" y2="1895.79" style="stroke:#000000;stroke-width:5.76"/>
	<text x="300.72" y="1895.79" style="font-family:'Helvetica';font-size:99.99px;fill:#000000" transform="rotate(-90 300.72,1895.79)" text-anchor="middle">0</text>
	<line x1="390.68" y1="1506.58" x2="350.71" y2="1506.58" style="stroke:#000000;stroke-width:5.76"/>
	<text x="300.72" y="1506.58" style="font-family:'Helvetica';font-size:99.99px;fill:#000000" transform="rotate(-90 300.72,1506.58)" text-anchor="middle">2</text>
	<line x1="390.68" y1="1117.25" x2="350.71" y2="1117.25" style="stroke:#000000;stroke-width:5.76"/>
	<text x="300.72" y="1117.25" style="font-family:'Helvetica';font-size:99.99px;fill:#000000" transform="rotate(-90 300.72,1117.25)" text-anchor="middle">4</text>
	<line x1="390.68" y1="728.04" x2="350.71" y2="728.04" style="stroke:#000000;stroke-width:5.76"/>
	<text x="300.72" y="728.04" style="font-family:'Helvetica';font-size:99.99px;fill:#000000" transform="rotate(-90 300.72,728.04)" text-anchor="middle">6</text>
	<line x1="390.68" y1="338.84" x2="350.71" y2="338.84" style="stroke:#000000;stroke-width:5.76"/>
	<text x="300.72" y="338.84" style="font-family:'Helvetica';font-size:99.99px;fill:#000000" transform="rotate(-90 300.72,338.84)" text-anchor="middle">8</text>
	<line x1="390.68" y1="1895.79" x2="350.71" y2="1895.79" style="stroke:#000000;stroke-width:5.76"/>
	<line x1="390.68" y1="1701.24" x2="350.71" y2="1701.24" style="stroke:#000000;stroke-width:5.76"/>
	<line x1="390.68" y1="1506.58" x2="350.71" y2="1506.58" style="stroke:#000000;stroke-width:5.76"/>
	<line x1="390.68" y1="1311.91" x2="350.71" y2="1311.91" style="stroke:#000000;stroke-width:5.76"/>
	<line x1="390.68" y1="1117.25" x2="350.71" y2="1117.25" style="stroke:#000000;stroke-width:5.76"/>
	<line x1="390.68" y1="922.71" x2="350.71" y2="922.71" style="stroke:#000000;stroke-width:5.76"/>
	<line x1="390.68" y1="728.04" x2="350.71" y2="728.04" style="stroke:#000000;stroke-width:5.76"/>
	<line x1="390.68" y1="533.38" x2="350.71" y2="533.38" style="stroke:#000000;stroke-width:5.76"/>
	<line x1="390.68" y1="338.84" x2="350.71" y2="338.84" style="stroke:#000000;stroke-width:5.76"/>
	<text x="190.71" y="1117.25" style="font-family:'Helvetica';font-size:99.99px;fill:#000000" transform="rotate(-90 190.71,1117.25)" text-anchor="middle">% cancellations and delays</text>
	<line x1="390.68" y1="1959.15" x2="3859.02" y2="1959.15" style="stroke:#000000;stroke-width:5.76"/>
	<line x1="454.04" y1="1959.15" x2="454.04" y2="1999.24" style="stroke:#000000;stroke-width:5.76"/>
	<text x="454.04" y="2089.10" style="font-family:'Helvetica';font-size:99.99px;fill:#000000" text-anchor="middle">80</text>
	<line x1="1567.91" y1="1959.15" x2="1567.91" y2="1999.24" style="stroke:#000000;stroke-width:5.76"/>
	<text x="1567.91" y="2089.10" style="font-family:'Helvetica';font-size:99.99px;fill:#000000" text-anchor="middle">85</text>
	<line x1="2681.79" y1="1959.15" x2="2681.79" y2="1999.24" style="stroke:#000000;stroke-width:5.76"/>
	<text x="2681.79" y="2089.10" style="font-family:'Helvetica';font-size:99.99px;fill:#000000" text-anchor="middle">90</text>
	<line x1="3795.66" y1="1959.15" x2="3795.66" y2="1999.24" style="stroke:#000000;stroke-width:5.76"/>
	<text x="3795.66" y="2089.10" style="font-family:'Helvetica';font-size:99.99px;fill:#000000" text-anchor="middle">95</text>
	<line x1="454.04" y1="1959.15" x2="454.04" y2="1999.24" style="stroke:#000000;stroke-width:5.76"/>
	<line x1="676.79" y1="1959.15" x2="676.79" y2="1999.24" style="stroke:#000000;stroke-width:5.76"/>
	<line x1="899.66" y1="1959.15" x2="899.66" y2="1999.24" style="stroke:#000000;stroke-width:5.76"/>
	<line x1="1122.41" y1="1959.15" x2="1122.41" y2="1999.24" style="stroke:#000000;stroke-width:5.76"/>
	<line x1="1345.16" y1="1959.15" x2="1345.16" y2="1999.24" style="stroke:#000000;stroke-width:5.76"/>
	<line x1="1567.91" y1="1959.15" x2="1567.91" y2="1999.24" style="stroke:#000000;stroke-width:5.76"/>
	<line x1="1790.66" y1="1959.15" x2="1790.66" y2="1999.24" style="stroke:#000000;stroke-width:5.76"/>
	<line x1="2013.54" y1="1959.15" x2="2013.54" y2="1999.24" style="stroke:#000000;stroke-width:5.76"/>
	<line x1="2236.29" y1="1959.15" x2="2236.29" y2="1999.24" style="stroke:#000000;stroke-width:5.76"/>
	<line x1="2459.04" y1="1959.15" x2="2459.04" y2="1999.24" style="stroke:#000000;stroke-width:5.76"/>
	<line x1="2681.79" y1="1959.15" x2="2681.79" y2="1999.24" style="stroke:#000000;stroke-width:5.76"/>
	<line x1="2904.54" y1="1959.15" x2="2904.54" y2="1999.24" style="stroke:#000000;stroke-width:5.76"/>
	<line x1="3127.29" y1="1959.15" x2="3127.29" y2="1999.24" style="stroke:#000000;stroke-width:5.76"/>
	<line x1="3350.16" y1="1959.15" x2="3350.16" y2="1999.24" style="stroke:#000000;stroke-width:5.76"/>
	<line x1="3572.91" y1="1959.15" x2="3572.91" y2="1999.24" style="stroke:#000000;stroke-width:5.76"/>
	<line x1="3795.66" y1="1959.15" x2="3795.66" y2="1999.24" style="stroke:#000000;stroke-width:5.76"/>
	<text x="2124.91" y="2199.12" style="font-family:'Helvetica';font-size:99.99px;fill:#000000" text-anchor="middle">% punctuality</text>
	<rect x="1674.09" y="2283.75" width="901.52" height="326.34" style="fill:#FFFFFF;stroke:#000000;stroke-width:5.76"/>
	<circle cx="1739.31" cy="2376.94" r="21.90" style="fill:#585858;stroke:#585858;stroke-width:8.64"/>
	<circle cx="2216.86" cy="2376.94" r="21.90" style="fill:#A9B549;stroke:#A9B549;stroke-width:8.64"/>
	<circle cx="1739.31" cy="2516.91" r="21.90" style="fill:#B549A9;stroke:#B549A9;stroke-width:8.64"/>
	<circle cx="2216.86" cy="2516.91" r="21.90" style="fill:#49A9B5;stroke:#49A9B5;stroke-width:8.64"/>
	<text x="1821.35" y="2411.97" style="font-family:'Helvetica';font-size:99.99px;fill:#000000">2013</text>
	<text x="2298.90" y="2411.97" style="font-family:'Helvetica';font-size:99.99px;fill:#000000">2014</text>
	<text x="1821.35" y="2551.93" style="font-family:'Helvetica';font-size:99.99px;fill:#000000">2015</text>
	<text x="2298.90" y="2551.93" style="font-family:'Helvetica';font-size:99.99px;fill:#000000">2016</text>
	<text x="408.00" y="2731.88" style="font-family:'Helvetica';font-size:99.99px;fill:#000000">Source: dataportal.orr.gov.uk - Not all periods had data available</text>
	<text x="2124.91" y="216.10" style="font-family:'Helvetica';font-size:139.96px;fill:#000000" text-anchor="middle">Train cancellations and delays in SE England</text>
</svg>
