<?xml version="1.0" encoding="UTF-8" standalone="no"?>
<svg
   xmlns:dc="http://purl.org/dc/elements/1.1/"
   xmlns:cc="http://creativecommons.org/ns#"
   xmlns:rdf="http://www.w3.org/1999/02/22-rdf-syntax-ns#"
   xmlns:svg="http://www.w3.org/2000/svg"
   xmlns="http://www.w3.org/2000/svg"
   xmlns:sodipodi="http://sodipodi.sourceforge.net/DTD/sodipodi-0.dtd"
   xmlns:inkscape="http://www.inkscape.org/namespaces/inkscape"
   viewBox="0 0 820 676"
   id="svg2"
   version="1.1"
   inkscape:version="0.91 r13725"
   sodipodi:docname="3-violin.svg"
   width="820"
   height="676">
  <metadata
     id="metadata106">
    <rdf:RDF>
      <cc:Work
         rdf:about="">
        <dc:format>image/svg+xml</dc:format>
        <dc:type
           rdf:resource="http://purl.org/dc/dcmitype/StillImage" />
        <dc:title></dc:title>
      </cc:Work>
    </rdf:RDF>
  </metadata>
  <sodipodi:namedview
     pagecolor="#ffffff"
     bordercolor="#666666"
     borderopacity="1"
     objecttolerance="10"
     gridtolerance="10"
     guidetolerance="10"
     inkscape:pageopacity="1"
     inkscape:pageshadow="2"
     inkscape:window-width="1170"
     inkscape:window-height="641"
     id="namedview104"
     showgrid="false"
     inkscape:zoom="0.62"
     inkscape:cx="326.909"
     inkscape:cy="337.46719"
     inkscape:window-x="0"
     inkscape:window-y="0"
     inkscape:window-maximized="0"
     inkscape:current-layer="svg2" />
  <defs
     id="defs4">
    <style
       type="text/css"
       id="style6"><![CDATA[
    line, polyline, path, rect, circle {
      fill: none;
      stroke: #000000;
      stroke-linecap: round;
      stroke-linejoin: round;
      stroke-miterlimit: 10.00;
    }
  ]]></style>
  </defs>
  <rect
     width="720"
     height="576"
     style="fill:#ffffff;stroke:none;stroke-linecap:round;stroke-linejoin:round;stroke-miterlimit:10"
     id="rect8"
     x="72.580643"
     y="22.580645" />
  <rect
     x="72.580643"
     y="22.580645"
     width="720"
     height="576"
     style="fill:#ffffff;stroke:#ffffff;stroke-width:1.07000005;stroke-linecap:round;stroke-linejoin:round;stroke-miterlimit:10"
     id="rect10" />
  <defs
     id="defs12">
    <clipPath
       id="cpMzYuMTY2OHw3MTQuNTIxfDU0NS42NTZ8NS40Nzk0NQ==">
      <rect
         x="36.169998"
         y="5.48"
         width="678.34998"
         height="540.17999"
         id="rect15"
         style="fill:none;stroke:#000000;stroke-linecap:round;stroke-linejoin:round;stroke-miterlimit:10" />
    </clipPath>
  </defs>
  <rect
     x="36.169998"
     y="5.48"
     width="678.34998"
     height="540.17999"
     style="fill:#ffffff;stroke:none;stroke-width:1.07000005;stroke-linecap:round;stroke-linejoin:round;stroke-miterlimit:10"
     clip-path="url(#cpMzYuMTY2OHw3MTQuNTIxfDU0NS42NTZ8NS40Nzk0NQ==)"
     id="rect17"
     transform="translate(72.580645,22.580645)" />
  <polyline
     points="36.17,453.12 714.52,453.12 "
     style="fill:none;stroke:#888888;stroke-width:0.5;stroke-linecap:butt;stroke-linejoin:round;stroke-miterlimit:10"
     clip-path="url(#cpMzYuMTY2OHw3MTQuNTIxfDU0NS42NTZ8NS40Nzk0NQ==)"
     id="polyline19"
     transform="translate(72.580645,22.580645)" />
  <polyline
     points="36.17,272.31 714.52,272.31 "
     style="fill:none;stroke:#888888;stroke-width:0.5;stroke-linecap:butt;stroke-linejoin:round;stroke-miterlimit:10"
     clip-path="url(#cpMzYuMTY2OHw3MTQuNTIxfDU0NS42NTZ8NS40Nzk0NQ==)"
     id="polyline21"
     transform="translate(72.580645,22.580645)" />
  <polyline
     points="36.17,91.51 714.52,91.51 "
     style="fill:none;stroke:#888888;stroke-width:0.5;stroke-linecap:butt;stroke-linejoin:round;stroke-miterlimit:10"
     clip-path="url(#cpMzYuMTY2OHw3MTQuNTIxfDU0NS42NTZ8NS40Nzk0NQ==)"
     id="polyline23"
     transform="translate(72.580645,22.580645)" />
  <polyline
     points="36.17,543.52 714.52,543.52 "
     style="fill:none;stroke:#888888;stroke-width:1;stroke-linecap:butt;stroke-linejoin:round;stroke-miterlimit:10"
     clip-path="url(#cpMzYuMTY2OHw3MTQuNTIxfDU0NS42NTZ8NS40Nzk0NQ==)"
     id="polyline25"
     transform="translate(72.580645,22.580645)" />
  <polyline
     points="36.17,362.72 714.52,362.72 "
     style="fill:none;stroke:#888888;stroke-width:1;stroke-linecap:butt;stroke-linejoin:round;stroke-miterlimit:10"
     clip-path="url(#cpMzYuMTY2OHw3MTQuNTIxfDU0NS42NTZ8NS40Nzk0NQ==)"
     id="polyline27"
     transform="translate(72.580645,22.580645)" />
  <polyline
     points="36.17,181.91 714.52,181.91 "
     style="fill:none;stroke:#888888;stroke-width:1;stroke-linecap:butt;stroke-linejoin:round;stroke-miterlimit:10"
     clip-path="url(#cpMzYuMTY2OHw3MTQuNTIxfDU0NS42NTZ8NS40Nzk0NQ==)"
     id="polyline29"
     transform="translate(72.580645,22.580645)" />
  <polyline
     points="113.61,489.28 112.34,488.38 111.04,487.48 109.73,486.58 108.39,485.69 107.04,484.79 105.69,483.89 104.34,482.99 102.99,482.09 101.66,481.19 100.34,480.29 99.05,479.40 97.78,478.50 96.55,477.60 95.35,476.70 94.21,475.80 93.11,474.90 92.06,474.00 91.06,473.10 90.13,472.21 89.27,471.31 88.47,470.41 87.73,469.51 87.06,468.61 86.45,467.71 85.92,466.81 85.47,465.91 85.08,465.02 84.75,464.12 84.48,463.22 84.28,462.32 84.15,461.42 84.08,460.52 84.05,459.62 84.08,458.72 84.16,457.83 84.29,456.93 84.46,456.03 84.67,455.13 84.91,454.23 85.18,453.33 85.49,452.43 85.83,451.53 86.19,450.64 86.57,449.74 86.97,448.84 87.39,447.94 87.82,447.04 88.27,446.14 88.74,445.24 89.21,444.34 89.70,443.45 90.20,442.55 90.72,441.65 91.24,440.75 91.77,439.85 92.32,438.95 92.87,438.05 93.44,437.16 94.02,436.26 94.62,435.36 95.22,434.46 95.83,433.56 96.46,432.66 97.10,431.76 97.75,430.86 98.41,429.97 99.08,429.07 99.76,428.17 100.45,427.27 101.15,426.37 101.86,425.47 102.57,424.57 103.29,423.67 104.01,422.78 104.74,421.88 105.47,420.98 106.20,420.08 106.92,419.18 107.65,418.28 108.37,417.38 109.08,416.48 109.79,415.59 110.49,414.69 111.17,413.79 111.84,412.89 112.50,411.99 113.14,411.09 113.76,410.19 114.36,409.29 114.94,408.40 115.49,407.50 116.01,406.60 116.52,405.70 116.99,404.80 117.44,403.90 117.86,403.00 118.25,402.10 118.62,401.21 118.97,400.31 119.29,399.41 119.59,398.51 119.86,397.61 120.12,396.71 120.36,395.81 120.59,394.92 120.80,394.02 121.00,393.12 121.20,392.22 121.38,391.32 121.56,390.42 121.74,389.52 121.91,388.62 122.08,387.73 122.25,386.83 122.42,385.93 122.59,385.03 122.75,384.13 122.91,383.23 123.08,382.33 123.24,381.43 123.40,380.54 123.55,379.64 123.71,378.74 123.86,377.84 124.00,376.94 124.15,376.04 124.29,375.14 124.43,374.24 124.57,373.35 124.71,372.45 124.85,371.55 124.99,370.65 125.13,369.75 125.28,368.85 125.43,367.95 125.58,367.05 125.75,366.16 125.92,365.26 126.10,364.36 126.29,363.46 126.48,362.56 126.69,361.66 126.90,360.76 127.13,359.86 127.36,358.97 127.60,358.07 127.85,357.17 128.10,356.27 128.36,355.37 128.62,354.47 128.88,353.57 129.13,352.67 129.39,351.78 129.65,350.88 129.89,349.98 130.14,349.08 130.37,348.18 130.60,347.28 130.82,346.38 131.02,345.49 131.22,344.59 131.40,343.69 131.57,342.79 131.74,341.89 131.88,340.99 132.02,340.09 132.14,339.19 132.26,338.30 132.36,337.40 132.45,336.50 132.54,335.60 132.61,334.70 132.68,333.80 132.73,332.90 132.79,332.00 132.83,331.11 132.87,330.21 132.90,329.31 132.93,328.41 132.95,327.51 132.97,326.61 132.99,325.71 133.01,324.81 133.02,323.92 133.03,323.02 133.04,322.12 133.04,321.22 133.05,320.32 133.05,319.42 133.06,318.52 133.06,317.62 133.06,316.73 133.06,315.83 133.06,314.93 133.06,314.03 133.06,313.13 133.06,312.23 133.06,311.33 133.06,310.43 133.06,309.54 133.05,308.64 133.05,307.74 133.04,306.84 133.04,305.94 133.03,305.04 133.02,304.14 133.01,303.25 133.00,302.35 132.99,301.45 132.97,300.55 132.95,299.65 132.93,298.75 132.91,297.85 132.88,296.95 132.85,296.06 132.81,295.16 132.78,294.26 132.73,293.36 132.69,292.46 132.64,291.56 132.58,290.66 132.53,289.76 132.47,288.87 132.40,287.97 132.33,287.07 132.26,286.17 132.18,285.27 132.10,284.37 132.02,283.47 131.94,282.57 131.86,281.68 131.78,280.78 131.70,279.88 131.62,278.98 131.54,278.08 131.47,277.18 131.40,276.28 131.34,275.38 131.28,274.49 131.23,273.59 131.19,272.69 131.15,271.79 131.13,270.89 131.11,269.99 131.10,269.09 131.10,268.19 131.11,267.30 131.13,266.40 131.16,265.50 131.19,264.60 131.24,263.70 131.29,262.80 131.35,261.90 131.41,261.01 131.48,260.11 131.55,259.21 131.63,258.31 131.71,257.41 131.79,256.51 131.87,255.61 131.95,254.71 132.03,253.82 132.11,252.92 132.19,252.02 132.27,251.12 132.34,250.22 132.41,249.32 132.47,248.42 132.53,247.52 132.59,246.63 132.65,245.73 132.69,244.83 132.74,243.93 132.78,243.03 132.82,242.13 132.85,241.23 132.88,240.33 132.91,239.44 132.93,238.54 132.95,237.64 132.97,236.74 132.99,235.84 133.00,234.94 133.01,234.04 133.02,233.14 133.03,232.25 133.04,231.35 133.05,230.45 133.05,229.55 133.06,228.65 133.06,227.75 133.06,226.85 133.06,225.95 133.07,225.06 133.07,224.16 133.07,223.26 133.07,222.36 133.07,221.46 133.07,220.56 133.07,219.66 133.07,218.77 133.07,217.87 133.07,216.97 133.07,216.07 133.07,215.17 133.07,214.27 133.07,213.37 133.07,212.47 133.07,211.58 133.07,210.68 133.07,209.78 133.07,208.88 133.07,207.98 133.07,207.08 133.07,206.18 133.07,205.28 133.07,204.39 133.07,203.49 133.07,202.59 133.07,201.69 133.07,200.79 133.07,199.89 133.07,198.99 133.07,198.09 133.07,197.20 133.07,196.30 133.07,195.40 133.07,194.50 133.07,193.60 133.07,192.70 133.07,191.80 133.07,190.90 133.07,190.01 133.07,189.11 133.07,188.21 133.07,187.31 133.07,186.41 133.07,185.51 133.07,184.61 133.07,183.71 133.07,182.82 133.07,181.92 133.07,181.02 133.07,180.12 133.07,179.22 133.07,178.32 133.07,177.42 133.07,176.53 133.07,175.63 133.07,174.73 133.07,173.83 133.07,172.93 133.07,172.03 133.07,171.13 133.07,170.23 133.07,169.34 133.07,168.44 133.07,167.54 133.07,166.64 133.07,165.74 133.07,164.84 133.07,163.94 133.07,163.04 133.07,162.15 133.07,161.25 133.07,160.35 133.07,159.45 133.07,158.55 133.07,157.65 133.07,156.75 133.07,155.85 133.07,154.96 133.07,154.06 133.07,153.16 133.07,152.26 133.07,151.36 133.07,150.46 133.07,149.56 133.07,148.66 133.07,147.77 133.07,146.87 133.07,145.97 133.07,145.07 133.07,144.17 133.07,143.27 133.07,142.37 133.07,141.47 133.07,140.58 133.07,139.68 133.07,138.78 133.07,137.88 133.07,136.98 133.07,136.08 133.07,135.18 133.07,134.28 133.07,133.39 133.07,132.49 133.07,131.59 133.07,130.69 133.07,129.79 133.07,128.89 133.07,127.99 133.07,127.10 133.07,126.20 133.07,125.30 133.07,124.40 133.07,123.50 133.07,122.60 133.07,121.70 133.07,120.80 133.07,119.91 133.07,119.01 133.07,118.11 133.07,117.21 133.07,116.31 133.07,115.41 133.07,114.51 133.07,113.61 133.07,112.72 133.07,111.82 133.07,110.92 133.07,110.02 133.07,109.12 133.07,108.22 133.07,107.32 133.07,106.42 133.07,105.53 133.07,104.63 133.07,103.73 133.07,102.83 133.07,101.93 133.07,101.03 133.07,100.13 133.07,99.23 133.07,98.34 133.07,97.44 133.07,96.54 133.07,95.64 133.07,94.74 133.07,93.84 133.07,92.94 133.07,92.04 133.07,91.15 133.07,90.25 133.07,89.35 133.07,88.45 133.07,87.55 133.07,86.65 133.07,85.75 133.07,84.86 133.07,83.96 133.07,83.06 133.07,82.16 133.07,81.26 133.07,80.36 133.07,79.46 133.07,78.56 133.07,77.67 133.07,76.77 133.07,75.87 133.07,74.97 133.07,74.07 133.07,73.17 133.06,72.27 133.06,71.37 133.06,70.48 133.05,69.58 133.05,68.68 133.04,67.78 133.04,66.88 133.03,65.98 133.02,65.08 133.01,64.18 132.99,63.29 132.98,62.39 132.96,61.49 132.94,60.59 132.92,59.69 132.89,58.79 132.87,57.89 132.83,56.99 132.80,56.10 132.76,55.20 132.71,54.30 132.67,53.40 132.62,52.50 132.56,51.60 132.50,50.70 132.44,49.80 132.37,48.91 132.30,48.01 132.22,47.11 132.15,46.21 132.07,45.31 131.99,44.41 131.91,43.51 131.82,42.62 131.74,41.72 131.66,40.82 131.59,39.92 131.51,39.02 131.44,38.12 131.37,37.22 131.31,36.32 131.26,35.43 131.21,34.53 131.17,33.63 131.14,32.73 131.12,31.83 131.10,30.93 131.10,30.03 135.05,30.03 135.04,30.93 135.03,31.83 135.01,32.73 134.98,33.63 134.94,34.53 134.89,35.43 134.84,36.32 134.78,37.22 134.71,38.12 134.64,39.02 134.56,39.92 134.49,40.82 134.41,41.72 134.32,42.62 134.24,43.51 134.16,44.41 134.08,45.31 134.00,46.21 133.92,47.11 133.85,48.01 133.78,48.91 133.71,49.80 133.65,50.70 133.59,51.60 133.53,52.50 133.48,53.40 133.43,54.30 133.39,55.20 133.35,56.10 133.32,56.99 133.28,57.89 133.26,58.79 133.23,59.69 133.21,60.59 133.19,61.49 133.17,62.39 133.16,63.29 133.14,64.18 133.13,65.08 133.12,65.98 133.11,66.88 133.11,67.78 133.10,68.68 133.10,69.58 133.09,70.48 133.09,71.37 133.09,72.27 133.08,73.17 133.08,74.07 133.08,74.97 133.08,75.87 133.08,76.77 133.08,77.67 133.08,78.56 133.08,79.46 133.08,80.36 133.08,81.26 133.08,82.16 133.08,83.06 133.07,83.96 133.07,84.86 133.07,85.75 133.07,86.65 133.07,87.55 133.07,88.45 133.07,89.35 133.07,90.25 133.07,91.15 133.07,92.04 133.07,92.94 133.07,93.84 133.07,94.74 133.07,95.64 133.07,96.54 133.07,97.44 133.07,98.34 133.07,99.23 133.07,100.13 133.07,101.03 133.07,101.93 133.07,102.83 133.07,103.73 133.07,104.63 133.07,105.53 133.07,106.42 133.07,107.32 133.07,108.22 133.07,109.12 133.07,110.02 133.07,110.92 133.07,111.82 133.07,112.72 133.07,113.61 133.07,114.51 133.07,115.41 133.07,116.31 133.07,117.21 133.07,118.11 133.07,119.01 133.07,119.91 133.07,120.80 133.07,121.70 133.07,122.60 133.07,123.50 133.07,124.40 133.07,125.30 133.07,126.20 133.07,127.10 133.07,127.99 133.07,128.89 133.07,129.79 133.07,130.69 133.07,131.59 133.07,132.49 133.07,133.39 133.07,134.28 133.07,135.18 133.07,136.08 133.07,136.98 133.07,137.88 133.07,138.78 133.07,139.68 133.07,140.58 133.07,141.47 133.07,142.37 133.07,143.27 133.07,144.17 133.07,145.07 133.07,145.97 133.07,146.87 133.07,147.77 133.07,148.66 133.07,149.56 133.07,150.46 133.07,151.36 133.07,152.26 133.07,153.16 133.07,154.06 133.07,154.96 133.07,155.85 133.07,156.75 133.07,157.65 133.07,158.55 133.07,159.45 133.07,160.35 133.07,161.25 133.07,162.15 133.07,163.04 133.07,163.94 133.07,164.84 133.07,165.74 133.07,166.64 133.07,167.54 133.07,168.44 133.07,169.34 133.07,170.23 133.07,171.13 133.07,172.03 133.07,172.93 133.07,173.83 133.07,174.73 133.07,175.63 133.07,176.53 133.07,177.42 133.07,178.32 133.07,179.22 133.07,180.12 133.07,181.02 133.07,181.92 133.07,182.82 133.07,183.71 133.07,184.61 133.07,185.51 133.07,186.41 133.07,187.31 133.07,188.21 133.07,189.11 133.07,190.01 133.07,190.90 133.07,191.80 133.07,192.70 133.07,193.60 133.07,194.50 133.07,195.40 133.07,196.30 133.07,197.20 133.07,198.09 133.07,198.99 133.07,199.89 133.07,200.79 133.07,201.69 133.07,202.59 133.07,203.49 133.07,204.39 133.07,205.28 133.07,206.18 133.07,207.08 133.07,207.98 133.07,208.88 133.07,209.78 133.07,210.68 133.07,211.58 133.07,212.47 133.07,213.37 133.07,214.27 133.07,215.17 133.08,216.07 133.08,216.97 133.08,217.87 133.08,218.77 133.08,219.66 133.08,220.56 133.08,221.46 133.08,222.36 133.08,223.26 133.08,224.16 133.08,225.06 133.08,225.95 133.09,226.85 133.09,227.75 133.09,228.65 133.10,229.55 133.10,230.45 133.11,231.35 133.12,232.25 133.13,233.14 133.14,234.04 133.15,234.94 133.16,235.84 133.18,236.74 133.20,237.64 133.22,238.54 133.24,239.44 133.27,240.33 133.30,241.23 133.33,242.13 133.37,243.03 133.41,243.93 133.45,244.83 133.50,245.73 133.56,246.63 133.61,247.52 133.68,248.42 133.74,249.32 133.81,250.22 133.88,251.12 133.96,252.02 134.04,252.92 134.12,253.82 134.20,254.71 134.28,255.61 134.36,256.51 134.44,257.41 134.52,258.31 134.60,259.21 134.67,260.11 134.74,261.01 134.80,261.90 134.86,262.80 134.91,263.70 134.96,264.60 134.99,265.50 135.02,266.40 135.04,267.30 135.05,268.19 135.05,269.09 135.04,269.99 135.02,270.89 135.00,271.79 134.96,272.69 134.92,273.59 134.87,274.49 134.81,275.38 134.75,276.28 134.68,277.18 134.61,278.08 134.53,278.98 134.45,279.88 134.37,280.78 134.29,281.68 134.21,282.57 134.12,283.47 134.04,284.37 133.97,285.27 133.89,286.17 133.82,287.07 133.75,287.97 133.68,288.87 133.62,289.76 133.56,290.66 133.51,291.56 133.46,292.46 133.41,293.36 133.37,294.26 133.34,295.16 133.30,296.06 133.27,296.95 133.24,297.85 133.22,298.75 133.20,299.65 133.18,300.55 133.16,301.45 133.15,302.35 133.14,303.25 133.13,304.14 133.12,305.04 133.11,305.94 133.10,306.84 133.10,307.74 133.09,308.64 133.09,309.54 133.09,310.43 133.09,311.33 133.09,312.23 133.08,313.13 133.08,314.03 133.08,314.93 133.08,315.83 133.09,316.73 133.09,317.62 133.09,318.52 133.09,319.42 133.10,320.32 133.10,321.22 133.11,322.12 133.12,323.02 133.13,323.92 133.14,324.81 133.16,325.71 133.17,326.61 133.19,327.51 133.22,328.41 133.25,329.31 133.28,330.21 133.32,331.11 133.36,332.00 133.41,332.90 133.47,333.80 133.54,334.70 133.61,335.60 133.69,336.50 133.79,337.40 133.89,338.30 134.01,339.19 134.13,340.09 134.27,340.99 134.41,341.89 134.58,342.79 134.75,343.69 134.93,344.59 135.13,345.49 135.33,346.38 135.55,347.28 135.78,348.18 136.01,349.08 136.25,349.98 136.50,350.88 136.76,351.78 137.01,352.67 137.27,353.57 137.53,354.47 137.79,355.37 138.05,356.27 138.30,357.17 138.55,358.07 138.79,358.97 139.02,359.86 139.24,360.76 139.46,361.66 139.67,362.56 139.86,363.46 140.05,364.36 140.23,365.26 140.40,366.16 140.56,367.05 140.72,367.95 140.87,368.85 141.02,369.75 141.16,370.65 141.30,371.55 141.44,372.45 141.58,373.35 141.72,374.24 141.86,375.14 142.00,376.04 142.14,376.94 142.29,377.84 142.44,378.74 142.60,379.64 142.75,380.54 142.91,381.43 143.07,382.33 143.23,383.23 143.40,384.13 143.56,385.03 143.73,385.93 143.90,386.83 144.07,387.73 144.24,388.62 144.41,389.52 144.58,390.42 144.77,391.32 144.95,392.22 145.15,393.12 145.35,394.02 145.56,394.92 145.79,395.81 146.03,396.71 146.29,397.61 146.56,398.51 146.86,399.41 147.18,400.31 147.53,401.21 147.89,402.10 148.29,403.00 148.71,403.90 149.15,404.80 149.63,405.70 150.14,406.60 150.66,407.50 151.21,408.40 151.79,409.29 152.39,410.19 153.01,411.09 153.65,411.99 154.30,412.89 154.97,413.79 155.66,414.69 156.36,415.59 157.07,416.48 157.78,417.38 158.50,418.28 159.23,419.18 159.95,420.08 160.68,420.98 161.41,421.88 162.14,422.78 162.86,423.67 163.58,424.57 164.29,425.47 165.00,426.37 165.70,427.27 166.39,428.17 167.07,429.07 167.74,429.97 168.40,430.86 169.05,431.76 169.69,432.66 170.32,433.56 170.93,434.46 171.53,435.36 172.12,436.26 172.71,437.16 173.27,438.05 173.83,438.95 174.38,439.85 174.91,440.75 175.43,441.65 175.95,442.55 176.45,443.45 176.94,444.34 177.41,445.24 177.88,446.14 178.33,447.04 178.76,447.94 179.18,448.84 179.58,449.74 179.96,450.64 180.32,451.53 180.66,452.43 180.97,453.33 181.24,454.23 181.48,455.13 181.69,456.03 181.86,456.93 181.99,457.83 182.07,458.72 182.09,459.62 182.07,460.52 182.00,461.42 181.87,462.32 181.67,463.22 181.40,464.12 181.07,465.02 180.68,465.91 180.22,466.81 179.70,467.71 179.09,468.61 178.42,469.51 177.68,470.41 176.88,471.31 176.02,472.21 175.08,473.10 174.09,474.00 173.04,474.90 171.94,475.80 170.80,476.70 169.60,477.60 168.37,478.50 167.10,479.40 165.81,480.29 164.49,481.19 163.16,482.09 161.81,482.99 160.46,483.89 159.11,484.79 157.76,485.69 156.42,486.58 155.10,487.48 153.81,488.38 152.54,489.28 113.61,489.28 "
     style="fill:#4682b4;stroke:#333333;stroke-width:1.07000005;stroke-linecap:round;stroke-linejoin:round;stroke-miterlimit:10"
     clip-path="url(#cpMzYuMTY2OHw3MTQuNTIxfDU0NS42NTZ8NS40Nzk0NQ==)"
     id="polyline39"
     transform="translate(72.580645,22.580645)" />
  <polyline
     points="274.75,492.90 274.28,492.71 273.80,492.53 273.31,492.35 272.82,492.16 272.32,491.98 271.82,491.79 271.31,491.61 270.80,491.43 270.28,491.24 269.76,491.06 269.23,490.87 268.70,490.69 268.17,490.51 267.63,490.32 267.09,490.14 266.54,489.95 266.00,489.77 265.44,489.59 264.89,489.40 264.33,489.22 263.77,489.03 263.20,488.85 262.64,488.67 262.07,488.48 261.50,488.30 260.93,488.11 260.35,487.93 259.78,487.75 259.20,487.56 258.62,487.38 258.04,487.19 257.46,487.01 256.88,486.83 256.30,486.64 255.72,486.46 255.14,486.27 254.56,486.09 253.98,485.91 253.40,485.72 252.83,485.54 252.25,485.35 251.68,485.17 251.10,484.99 250.53,484.80 249.96,484.62 249.39,484.43 248.83,484.25 248.26,484.07 247.70,483.88 247.15,483.70 246.59,483.51 246.04,483.33 245.50,483.15 244.95,482.96 244.41,482.78 243.88,482.59 243.34,482.41 242.82,482.23 242.29,482.04 241.78,481.86 241.26,481.67 240.75,481.49 240.25,481.31 239.75,481.12 239.26,480.94 238.77,480.75 238.29,480.57 237.82,480.39 237.35,480.20 236.88,480.02 236.42,479.83 235.97,479.65 235.53,479.47 235.09,479.28 234.65,479.10 234.23,478.91 233.81,478.73 233.40,478.55 232.99,478.36 232.59,478.18 232.20,477.99 231.81,477.81 231.44,477.63 231.07,477.44 230.70,477.26 230.35,477.07 229.99,476.89 229.65,476.71 229.32,476.52 228.99,476.34 228.67,476.15 228.35,475.97 228.05,475.79 227.75,475.60 227.46,475.42 227.18,475.23 226.90,475.05 226.63,474.87 226.37,474.68 226.12,474.50 225.87,474.31 225.63,474.13 225.40,473.95 225.18,473.76 224.96,473.58 224.75,473.39 224.55,473.21 224.35,473.03 224.17,472.84 223.99,472.66 223.82,472.47 223.65,472.29 223.50,472.11 223.35,471.92 223.20,471.74 223.07,471.55 222.94,471.37 222.82,471.19 222.71,471.00 222.60,470.82 222.51,470.63 222.42,470.45 222.33,470.27 222.26,470.08 222.19,469.90 222.13,469.71 222.08,469.53 222.03,469.35 221.99,469.16 221.96,468.98 221.94,468.79 221.92,468.61 221.91,468.43 221.91,468.24 221.91,468.06 221.92,467.87 221.94,467.69 221.97,467.51 222.00,467.32 222.04,467.14 222.08,466.95 222.14,466.77 222.20,466.59 222.26,466.40 222.33,466.22 222.42,466.03 222.50,465.85 222.59,465.67 222.69,465.48 222.79,465.30 222.91,465.11 223.02,464.93 223.15,464.75 223.27,464.56 223.41,464.38 223.55,464.19 223.69,464.01 223.84,463.83 223.99,463.64 224.15,463.46 224.32,463.27 224.48,463.09 224.66,462.91 224.83,462.72 225.01,462.54 225.20,462.35 225.39,462.17 225.58,461.99 225.77,461.80 225.97,461.62 226.17,461.43 226.37,461.25 226.58,461.07 226.79,460.88 227.00,460.70 227.21,460.51 227.42,460.33 227.64,460.15 227.85,459.96 228.07,459.78 228.29,459.59 228.50,459.41 228.72,459.23 228.94,459.04 229.16,458.86 229.37,458.67 229.59,458.49 229.81,458.31 230.02,458.12 230.24,457.94 230.45,457.75 230.66,457.57 230.87,457.39 231.08,457.20 231.29,457.02 231.49,456.83 231.70,456.65 231.90,456.47 232.10,456.28 232.29,456.10 232.49,455.92 232.68,455.73 232.87,455.55 233.05,455.36 233.24,455.18 233.42,455.00 233.59,454.81 233.77,454.63 233.94,454.44 234.11,454.26 234.28,454.08 234.44,453.89 234.60,453.71 234.76,453.52 234.92,453.34 235.07,453.16 235.22,452.97 235.37,452.79 235.52,452.60 235.66,452.42 235.81,452.24 235.95,452.05 236.09,451.87 236.22,451.68 236.36,451.50 236.49,451.32 236.63,451.13 236.76,450.95 236.89,450.76 237.02,450.58 237.15,450.40 237.28,450.21 237.41,450.03 237.53,449.84 237.66,449.66 237.79,449.48 237.92,449.29 238.05,449.11 238.18,448.92 238.31,448.74 238.45,448.56 238.58,448.37 238.72,448.19 238.85,448.00 238.99,447.82 239.13,447.64 239.28,447.45 239.42,447.27 239.57,447.08 239.72,446.90 239.88,446.72 240.03,446.53 240.19,446.35 240.36,446.16 240.52,445.98 240.69,445.80 240.87,445.61 241.05,445.43 241.23,445.24 241.42,445.06 241.61,444.88 241.80,444.69 242.00,444.51 242.20,444.32 242.41,444.14 242.62,443.96 242.84,443.77 243.06,443.59 243.29,443.40 243.52,443.22 243.76,443.04 244.00,442.85 244.25,442.67 244.50,442.48 244.76,442.30 245.02,442.12 245.29,441.93 245.56,441.75 245.84,441.56 246.12,441.38 246.41,441.20 246.71,441.01 247.00,440.83 247.31,440.64 247.61,440.46 247.93,440.28 248.25,440.09 248.57,439.91 248.90,439.72 249.23,439.54 249.56,439.36 249.91,439.17 250.25,438.99 250.60,438.80 250.95,438.62 251.31,438.44 251.67,438.25 252.04,438.07 252.41,437.88 252.78,437.70 253.16,437.52 253.54,437.33 253.92,437.15 254.30,436.96 254.69,436.78 255.08,436.60 255.48,436.41 255.87,436.23 256.27,436.04 256.67,435.86 257.07,435.68 257.47,435.49 257.87,435.31 258.28,435.12 258.68,434.94 259.09,434.76 259.49,434.57 259.90,434.39 260.31,434.20 260.71,434.02 261.12,433.84 261.52,433.65 261.92,433.47 262.33,433.28 262.73,433.10 263.13,432.92 263.52,432.73 263.92,432.55 264.31,432.36 264.70,432.18 265.09,432.00 265.48,431.81 265.86,431.63 266.24,431.44 266.62,431.26 266.99,431.08 267.36,430.89 267.72,430.71 268.08,430.52 268.44,430.34 268.79,430.16 269.14,429.97 269.48,429.79 269.82,429.60 270.16,429.42 270.49,429.24 270.81,429.05 271.13,428.87 271.44,428.68 271.75,428.50 272.05,428.32 272.35,428.13 272.64,427.95 272.93,427.76 273.21,427.58 273.48,427.40 273.75,427.21 274.02,427.03 274.28,426.84 274.53,426.66 274.78,426.48 275.02,426.29 275.25,426.11 275.49,425.92 275.71,425.74 275.93,425.56 276.15,425.37 276.36,425.19 276.56,425.00 276.76,424.82 276.96,424.64 277.15,424.45 277.33,424.27 277.52,424.08 277.69,423.90 277.87,423.72 278.03,423.53 278.20,423.35 278.36,423.16 278.51,422.98 278.67,422.80 278.81,422.61 278.96,422.43 279.10,422.24 279.24,422.06 279.38,421.88 279.51,421.69 279.64,421.51 279.77,421.32 279.89,421.14 280.02,420.96 280.13,420.77 280.25,420.59 280.37,420.40 280.48,420.22 280.60,420.04 280.71,419.85 280.81,419.67 280.92,419.48 281.03,419.30 281.13,419.12 281.24,418.93 281.34,418.75 281.44,418.56 281.54,418.38 281.64,418.20 281.74,418.01 281.84,417.83 281.94,417.64 282.03,417.46 282.13,417.28 282.22,417.09 282.32,416.91 282.42,416.72 282.51,416.54 282.60,416.36 282.70,416.17 282.79,415.99 282.89,415.81 282.98,415.62 283.07,415.44 283.17,415.25 283.26,415.07 283.35,414.89 283.45,414.70 283.54,414.52 283.63,414.33 283.72,414.15 283.82,413.97 283.91,413.78 284.00,413.60 284.09,413.41 284.18,413.23 284.27,413.05 284.36,412.86 284.45,412.68 284.54,412.49 284.63,412.31 284.72,412.13 284.81,411.94 284.90,411.76 284.99,411.57 285.08,411.39 285.16,411.21 285.25,411.02 285.34,410.84 285.42,410.65 285.51,410.47 285.59,410.29 285.68,410.10 285.76,409.92 285.84,409.73 285.93,409.55 286.01,409.37 286.09,409.18 286.17,409.00 286.25,408.81 286.32,408.63 286.40,408.45 286.48,408.26 286.55,408.08 286.63,407.89 286.70,407.71 286.78,407.53 286.85,407.34 286.92,407.16 286.99,406.97 287.07,406.79 287.14,406.61 287.20,406.42 287.27,406.24 287.34,406.05 287.41,405.87 287.47,405.69 287.54,405.50 287.60,405.32 287.67,405.13 287.73,404.95 287.79,404.77 287.86,404.58 287.92,404.40 287.98,404.21 288.04,404.03 288.10,403.85 288.16,403.66 288.22,403.48 288.28,403.29 288.34,403.11 288.40,402.93 288.46,402.74 288.51,402.56 288.57,402.37 288.63,402.19 288.69,402.01 288.75,401.82 288.80,401.64 288.86,401.45 288.92,401.27 288.98,401.09 289.03,400.90 289.09,400.72 289.15,400.53 289.21,400.35 289.26,400.17 289.32,399.98 289.38,399.80 289.44,399.61 289.50,399.43 289.56,399.25 289.62,399.06 289.68,398.88 299.50,398.88 299.56,399.06 299.62,399.25 299.68,399.43 299.74,399.61 299.79,399.80 299.85,399.98 299.91,400.17 299.97,400.35 300.03,400.53 300.08,400.72 300.14,400.90 300.20,401.09 300.26,401.27 300.31,401.45 300.37,401.64 300.43,401.82 300.49,402.01 300.54,402.19 300.60,402.37 300.66,402.56 300.72,402.74 300.78,402.93 300.84,403.11 300.89,403.29 300.95,403.48 301.01,403.66 301.07,403.85 301.13,404.03 301.19,404.21 301.26,404.40 301.32,404.58 301.38,404.77 301.44,404.95 301.51,405.13 301.57,405.32 301.64,405.50 301.70,405.69 301.77,405.87 301.83,406.05 301.90,406.24 301.97,406.42 302.04,406.61 302.11,406.79 302.18,406.97 302.25,407.16 302.32,407.34 302.40,407.53 302.47,407.71 302.54,407.89 302.62,408.08 302.70,408.26 302.77,408.45 302.85,408.63 302.93,408.81 303.01,409.00 303.09,409.18 303.17,409.37 303.25,409.55 303.33,409.73 303.41,409.92 303.50,410.10 303.58,410.29 303.67,410.47 303.75,410.65 303.84,410.84 303.92,411.02 304.01,411.21 304.10,411.39 304.19,411.57 304.27,411.76 304.36,411.94 304.45,412.13 304.54,412.31 304.63,412.49 304.72,412.68 304.81,412.86 304.90,413.05 304.99,413.23 305.08,413.41 305.18,413.60 305.27,413.78 305.36,413.97 305.45,414.15 305.54,414.33 305.64,414.52 305.73,414.70 305.82,414.89 305.91,415.07 306.01,415.25 306.10,415.44 306.19,415.62 306.29,415.81 306.38,415.99 306.48,416.17 306.57,416.36 306.66,416.54 306.76,416.72 306.85,416.91 306.95,417.09 307.05,417.28 307.14,417.46 307.24,417.64 307.34,417.83 307.44,418.01 307.53,418.20 307.63,418.38 307.73,418.56 307.84,418.75 307.94,418.93 308.04,419.12 308.15,419.30 308.25,419.48 308.36,419.67 308.47,419.85 308.58,420.04 308.69,420.22 308.81,420.40 308.92,420.59 309.04,420.77 309.16,420.96 309.28,421.14 309.41,421.32 309.53,421.51 309.66,421.69 309.80,421.88 309.93,422.06 310.07,422.24 310.21,422.43 310.36,422.61 310.51,422.80 310.66,422.98 310.82,423.16 310.98,423.35 311.14,423.53 311.31,423.72 311.48,423.90 311.66,424.08 311.84,424.27 312.03,424.45 312.22,424.64 312.41,424.82 312.61,425.00 312.82,425.19 313.03,425.37 313.24,425.56 313.46,425.74 313.69,425.92 313.92,426.11 314.16,426.29 314.40,426.48 314.65,426.66 314.90,426.84 315.16,427.03 315.42,427.21 315.69,427.40 315.97,427.58 316.25,427.76 316.53,427.95 316.83,428.13 317.12,428.32 317.43,428.50 317.73,428.68 318.05,428.87 318.37,429.05 318.69,429.24 319.02,429.42 319.35,429.60 319.69,429.79 320.03,429.97 320.38,430.16 320.73,430.34 321.09,430.52 321.45,430.71 321.82,430.89 322.18,431.08 322.56,431.26 322.93,431.44 323.31,431.63 323.70,431.81 324.08,432.00 324.47,432.18 324.86,432.36 325.25,432.55 325.65,432.73 326.05,432.92 326.45,433.10 326.85,433.28 327.25,433.47 327.65,433.65 328.06,433.84 328.46,434.02 328.87,434.20 329.28,434.39 329.68,434.57 330.09,434.76 330.49,434.94 330.90,435.12 331.30,435.31 331.70,435.49 332.11,435.68 332.51,435.86 332.91,436.04 333.30,436.23 333.70,436.41 334.09,436.60 334.48,436.78 334.87,436.96 335.26,437.15 335.64,437.33 336.02,437.52 336.39,437.70 336.77,437.88 337.14,438.07 337.50,438.25 337.86,438.44 338.22,438.62 338.57,438.80 338.92,438.99 339.27,439.17 339.61,439.36 339.95,439.54 340.28,439.72 340.61,439.91 340.93,440.09 341.25,440.28 341.56,440.46 341.87,440.64 342.17,440.83 342.47,441.01 342.76,441.20 343.05,441.38 343.33,441.56 343.61,441.75 343.88,441.93 344.15,442.12 344.41,442.30 344.67,442.48 344.92,442.67 345.17,442.85 345.41,443.04 345.65,443.22 345.88,443.40 346.11,443.59 346.33,443.77 346.55,443.96 346.76,444.14 346.97,444.32 347.18,444.51 347.37,444.69 347.57,444.88 347.76,445.06 347.94,445.24 348.13,445.43 348.30,445.61 348.48,445.80 348.65,445.98 348.82,446.16 348.98,446.35 349.14,446.53 349.30,446.72 349.45,446.90 349.60,447.08 349.75,447.27 349.90,447.45 350.04,447.64 350.18,447.82 350.32,448.00 350.46,448.19 350.59,448.37 350.73,448.56 350.86,448.74 350.99,448.92 351.12,449.11 351.25,449.29 351.38,449.48 351.51,449.66 351.64,449.84 351.77,450.03 351.90,450.21 352.03,450.40 352.16,450.58 352.29,450.76 352.42,450.95 352.55,451.13 352.68,451.32 352.82,451.50 352.95,451.68 353.09,451.87 353.23,452.05 353.37,452.24 353.51,452.42 353.65,452.60 353.80,452.79 353.95,452.97 354.10,453.16 354.26,453.34 354.41,453.52 354.57,453.71 354.73,453.89 354.90,454.08 355.06,454.26 355.23,454.44 355.41,454.63 355.58,454.81 355.76,455.00 355.94,455.18 356.12,455.36 356.31,455.55 356.50,455.73 356.69,455.92 356.88,456.10 357.08,456.28 357.28,456.47 357.48,456.65 357.68,456.83 357.89,457.02 358.09,457.20 358.30,457.39 358.51,457.57 358.72,457.75 358.94,457.94 359.15,458.12 359.37,458.31 359.58,458.49 359.80,458.67 360.02,458.86 360.24,459.04 360.45,459.23 360.67,459.41 360.89,459.59 361.11,459.78 361.32,459.96 361.54,460.15 361.75,460.33 361.97,460.51 362.18,460.70 362.39,460.88 362.59,461.07 362.80,461.25 363.00,461.43 363.20,461.62 363.40,461.80 363.60,461.99 363.79,462.17 363.98,462.35 364.16,462.54 364.34,462.72 364.52,462.91 364.69,463.09 364.86,463.27 365.02,463.46 365.18,463.64 365.34,463.83 365.49,464.01 365.63,464.19 365.77,464.38 365.90,464.56 366.03,464.75 366.15,464.93 366.27,465.11 366.38,465.30 366.48,465.48 366.58,465.67 366.67,465.85 366.76,466.03 366.84,466.22 366.91,466.40 366.98,466.59 367.04,466.77 367.09,466.95 367.14,467.14 367.18,467.32 367.21,467.51 367.23,467.69 367.25,467.87 367.27,468.06 367.27,468.24 367.27,468.43 367.26,468.61 367.24,468.79 367.22,468.98 367.18,469.16 367.14,469.35 367.10,469.53 367.04,469.71 366.98,469.90 366.92,470.08 366.84,470.27 366.76,470.45 366.67,470.63 366.57,470.82 366.46,471.00 366.35,471.19 366.23,471.37 366.10,471.55 365.97,471.74 365.83,471.92 365.68,472.11 365.52,472.29 365.36,472.47 365.19,472.66 365.01,472.84 364.82,473.03 364.63,473.21 364.42,473.39 364.22,473.58 364.00,473.76 363.77,473.95 363.54,474.13 363.30,474.31 363.06,474.50 362.80,474.68 362.54,474.87 362.28,475.05 362.00,475.23 361.71,475.42 361.42,475.60 361.12,475.79 360.82,475.97 360.51,476.15 360.19,476.34 359.86,476.52 359.52,476.71 359.18,476.89 358.83,477.07 358.47,477.26 358.11,477.44 357.74,477.63 357.36,477.81 356.97,477.99 356.58,478.18 356.18,478.36 355.78,478.55 355.37,478.73 354.94,478.91 354.52,479.10 354.09,479.28 353.65,479.47 353.20,479.65 352.75,479.83 352.29,480.02 351.83,480.20 351.36,480.39 350.88,480.57 350.40,480.75 349.91,480.94 349.42,481.12 348.92,481.31 348.42,481.49 347.91,481.67 347.40,481.86 346.88,482.04 346.36,482.23 345.83,482.41 345.30,482.59 344.76,482.78 344.22,482.96 343.68,483.15 343.13,483.33 342.58,483.51 342.03,483.70 341.47,483.88 340.91,484.07 340.35,484.25 339.78,484.43 339.21,484.62 338.64,484.80 338.07,484.99 337.50,485.17 336.92,485.35 336.35,485.54 335.77,485.72 335.19,485.91 334.61,486.09 334.03,486.27 333.45,486.46 332.87,486.64 332.29,486.83 331.71,487.01 331.13,487.19 330.55,487.38 329.97,487.56 329.40,487.75 328.82,487.93 328.25,488.11 327.68,488.30 327.10,488.48 326.54,488.67 325.97,488.85 325.41,489.03 324.85,489.22 324.29,489.40 323.73,489.59 323.18,489.77 322.63,489.95 322.08,490.14 321.54,490.32 321.01,490.51 320.47,490.69 319.94,490.87 319.42,491.06 318.89,491.24 318.38,491.43 317.86,491.61 317.36,491.79 316.86,491.98 316.36,492.16 315.87,492.35 315.38,492.53 314.90,492.71 314.42,492.90 274.75,492.90 "
     style="fill:#4682b4;stroke:#333333;stroke-width:1.07000005;stroke-linecap:round;stroke-linejoin:round;stroke-miterlimit:10"
     clip-path="url(#cpMzYuMTY2OHw3MTQuNTIxfDU0NS42NTZ8NS40Nzk0NQ==)"
     id="polyline41"
     transform="translate(72.580645,22.580645)" />
  <polyline
     points="436.10,489.28 435.42,488.86 434.73,488.45 434.05,488.03 433.36,487.61 432.67,487.19 431.99,486.78 431.30,486.36 430.62,485.94 429.94,485.52 429.26,485.11 428.59,484.69 427.93,484.27 427.27,483.85 426.61,483.44 425.97,483.02 425.33,482.60 424.70,482.18 424.08,481.77 423.47,481.35 422.87,480.93 422.28,480.51 421.70,480.10 421.13,479.68 420.57,479.26 420.01,478.84 419.47,478.43 418.94,478.01 418.42,477.59 417.91,477.17 417.42,476.76 416.93,476.34 416.44,475.92 415.98,475.50 415.52,475.09 415.06,474.67 414.62,474.25 414.19,473.83 413.77,473.42 413.35,473.00 412.94,472.58 412.54,472.16 412.15,471.75 411.77,471.33 411.39,470.91 411.03,470.49 410.67,470.08 410.32,469.66 409.97,469.24 409.64,468.82 409.31,468.41 408.99,467.99 408.68,467.57 408.37,467.15 408.08,466.74 407.79,466.32 407.51,465.90 407.24,465.48 406.98,465.07 406.73,464.65 406.49,464.23 406.26,463.81 406.04,463.39 405.82,462.98 405.62,462.56 405.43,462.14 405.25,461.72 405.07,461.31 404.91,460.89 404.77,460.47 404.62,460.05 404.50,459.64 404.38,459.22 404.27,458.80 404.17,458.38 404.09,457.97 404.02,457.55 403.95,457.13 403.90,456.71 403.86,456.30 403.82,455.88 403.80,455.46 403.79,455.04 403.79,454.63 403.79,454.21 403.81,453.79 403.84,453.37 403.87,452.96 403.92,452.54 403.97,452.12 404.04,451.70 404.11,451.29 404.19,450.87 404.28,450.45 404.38,450.03 404.49,449.62 404.61,449.20 404.74,448.78 404.87,448.36 405.02,447.95 405.17,447.53 405.34,447.11 405.51,446.69 405.69,446.28 405.89,445.86 406.09,445.44 406.30,445.02 406.52,444.61 406.75,444.19 406.99,443.77 407.24,443.35 407.50,442.94 407.77,442.52 408.05,442.10 408.34,441.68 408.64,441.27 408.95,440.85 409.27,440.43 409.60,440.01 409.93,439.60 410.28,439.18 410.64,438.76 411.00,438.34 411.37,437.93 411.75,437.51 412.13,437.09 412.52,436.67 412.92,436.26 413.32,435.84 413.73,435.42 414.14,435.00 414.56,434.59 414.98,434.17 415.40,433.75 415.83,433.33 416.25,432.92 416.68,432.50 417.11,432.08 417.54,431.66 417.96,431.25 418.39,430.83 418.81,430.41 419.23,429.99 419.65,429.58 420.07,429.16 420.48,428.74 420.89,428.32 421.29,427.91 421.69,427.49 422.08,427.07 422.47,426.65 422.85,426.24 423.23,425.82 423.60,425.40 423.96,424.98 424.32,424.57 424.67,424.15 425.02,423.73 425.36,423.31 425.70,422.90 426.03,422.48 426.35,422.06 426.67,421.64 426.99,421.23 427.30,420.81 427.60,420.39 427.90,419.97 428.20,419.56 428.49,419.14 428.78,418.72 429.07,418.30 429.36,417.89 429.64,417.47 429.92,417.05 430.20,416.63 430.47,416.22 430.75,415.80 431.02,415.38 431.29,414.96 431.57,414.55 431.84,414.13 432.11,413.71 432.38,413.29 432.65,412.88 432.92,412.46 433.20,412.04 433.47,411.62 433.74,411.21 434.01,410.79 434.29,410.37 434.56,409.95 434.84,409.54 435.11,409.12 435.39,408.70 435.67,408.28 435.95,407.87 436.22,407.45 436.50,407.03 436.78,406.61 437.06,406.20 437.34,405.78 437.62,405.36 437.89,404.94 438.17,404.52 438.45,404.11 438.73,403.69 439.00,403.27 439.28,402.85 439.56,402.44 439.83,402.02 440.10,401.60 440.38,401.18 440.65,400.77 440.92,400.35 441.19,399.93 441.45,399.51 441.72,399.10 441.98,398.68 442.25,398.26 442.51,397.84 442.77,397.43 443.02,397.01 443.28,396.59 443.53,396.17 443.79,395.76 444.04,395.34 444.29,394.92 444.53,394.50 444.78,394.09 445.02,393.67 445.26,393.25 445.50,392.83 445.74,392.42 445.97,392.00 446.21,391.58 446.44,391.16 446.67,390.75 446.90,390.33 447.12,389.91 447.34,389.49 447.56,389.08 447.78,388.66 448.00,388.24 448.21,387.82 448.42,387.41 448.63,386.99 448.83,386.57 449.03,386.15 449.23,385.74 449.42,385.32 449.61,384.90 449.80,384.48 449.98,384.07 450.16,383.65 450.33,383.23 450.50,382.81 450.67,382.40 450.83,381.98 450.98,381.56 451.13,381.14 451.28,380.73 451.41,380.31 451.55,379.89 451.68,379.47 451.80,379.06 451.92,378.64 452.03,378.22 452.13,377.80 452.23,377.39 452.32,376.97 452.41,376.55 452.49,376.13 452.57,375.72 452.64,375.30 452.70,374.88 452.76,374.46 452.81,374.05 452.86,373.63 452.90,373.21 452.93,372.79 452.97,372.38 452.99,371.96 453.01,371.54 453.03,371.12 453.05,370.71 453.06,370.29 453.07,369.87 453.07,369.45 453.07,369.04 453.07,368.62 453.06,368.20 453.06,367.78 453.05,367.37 453.04,366.95 453.02,366.53 453.01,366.11 453.00,365.70 452.98,365.28 452.96,364.86 452.95,364.44 452.93,364.03 452.91,363.61 452.89,363.19 452.88,362.77 452.86,362.36 452.84,361.94 452.83,361.52 452.81,361.10 452.80,360.69 452.78,360.27 452.77,359.85 452.76,359.43 452.75,359.02 452.74,358.60 452.73,358.18 452.72,357.76 452.71,357.35 452.70,356.93 452.70,356.51 452.69,356.09 452.69,355.68 452.69,355.26 452.68,354.84 452.68,354.42 452.68,354.01 452.69,353.59 452.69,353.17 452.69,352.75 452.70,352.34 452.71,351.92 452.72,351.50 452.73,351.08 452.74,350.67 452.75,350.25 452.76,349.83 452.78,349.41 452.80,349.00 452.82,348.58 452.84,348.16 452.86,347.74 452.89,347.33 452.91,346.91 452.94,346.49 452.97,346.07 453.01,345.66 453.04,345.24 453.08,344.82 453.12,344.40 453.16,343.98 453.20,343.57 453.24,343.15 453.29,342.73 453.34,342.31 453.39,341.90 453.44,341.48 453.49,341.06 453.55,340.64 453.61,340.23 453.66,339.81 453.72,339.39 453.78,338.97 453.85,338.56 453.91,338.14 453.97,337.72 454.04,337.30 454.10,336.89 454.17,336.47 454.23,336.05 454.30,335.63 454.36,335.22 454.43,334.80 454.49,334.38 454.56,333.96 454.62,333.55 454.68,333.13 454.75,332.71 454.81,332.29 454.87,331.88 454.93,331.46 454.98,331.04 455.04,330.62 455.10,330.21 455.15,329.79 455.20,329.37 455.25,328.95 455.30,328.54 455.35,328.12 455.39,327.70 455.44,327.28 455.48,326.87 455.52,326.45 455.56,326.03 455.59,325.61 455.63,325.20 455.66,324.78 455.69,324.36 455.72,323.94 455.75,323.53 455.77,323.11 455.80,322.69 455.82,322.27 455.84,321.86 455.86,321.44 455.88,321.02 455.90,320.60 455.92,320.19 455.93,319.77 455.95,319.35 455.96,318.93 455.97,318.52 455.99,318.10 456.00,317.68 456.01,317.26 456.01,316.85 456.02,316.43 456.03,316.01 456.04,315.59 456.04,315.18 456.05,314.76 456.05,314.34 456.06,313.92 456.06,313.51 456.06,313.09 456.06,312.67 456.07,312.25 456.07,311.84 456.07,311.42 456.07,311.00 456.07,310.58 456.07,310.17 456.07,309.75 456.07,309.33 456.07,308.91 456.07,308.50 456.07,308.08 456.06,307.66 456.06,307.24 456.06,306.83 456.05,306.41 456.05,305.99 456.04,305.57 456.04,305.16 456.03,304.74 456.03,304.32 456.02,303.90 456.01,303.49 456.00,303.07 455.99,302.65 455.98,302.23 455.97,301.82 455.95,301.40 455.94,300.98 455.93,300.56 455.91,300.15 455.89,299.73 455.87,299.31 455.86,298.89 455.83,298.48 455.81,298.06 455.79,297.64 455.76,297.22 455.74,296.81 455.71,296.39 455.68,295.97 455.65,295.55 455.61,295.14 455.58,294.72 455.54,294.30 455.50,293.88 455.46,293.47 455.42,293.05 455.38,292.63 455.34,292.21 455.29,291.80 455.24,291.38 455.19,290.96 455.14,290.54 455.09,290.13 455.04,289.71 454.99,289.29 454.93,288.87 454.88,288.46 454.82,288.04 454.76,287.62 454.71,287.20 454.65,286.79 454.59,286.37 454.54,285.95 454.48,285.53 454.42,285.11 454.37,284.70 454.31,284.28 454.26,283.86 454.21,283.44 454.15,283.03 454.11,282.61 454.06,282.19 454.01,281.77 453.97,281.36 453.93,280.94 453.89,280.52 453.86,280.10 453.82,279.69 453.79,279.27 453.77,278.85 453.74,278.43 453.72,278.02 453.71,277.60 453.70,277.18 453.69,276.76 453.68,276.35 453.68,275.93 458.52,275.93 458.52,276.35 458.51,276.76 458.50,277.18 458.49,277.60 458.48,278.02 458.46,278.43 458.43,278.85 458.41,279.27 458.38,279.69 458.34,280.10 458.31,280.52 458.27,280.94 458.23,281.36 458.19,281.77 458.14,282.19 458.09,282.61 458.05,283.03 457.99,283.44 457.94,283.86 457.89,284.28 457.83,284.70 457.78,285.11 457.72,285.53 457.67,285.95 457.61,286.37 457.55,286.79 457.49,287.20 457.44,287.62 457.38,288.04 457.32,288.46 457.27,288.87 457.21,289.29 457.16,289.71 457.11,290.13 457.06,290.54 457.01,290.96 456.96,291.38 456.91,291.80 456.86,292.21 456.82,292.63 456.78,293.05 456.74,293.47 456.70,293.88 456.66,294.30 456.62,294.72 456.59,295.14 456.55,295.55 456.52,295.97 456.49,296.39 456.46,296.81 456.44,297.22 456.41,297.64 456.39,298.06 456.37,298.48 456.35,298.89 456.33,299.31 456.31,299.73 456.29,300.15 456.27,300.56 456.26,300.98 456.25,301.40 456.23,301.82 456.22,302.23 456.21,302.65 456.20,303.07 456.19,303.49 456.18,303.90 456.17,304.32 456.17,304.74 456.16,305.16 456.16,305.57 456.15,305.99 456.15,306.41 456.14,306.83 456.14,307.24 456.14,307.66 456.13,308.08 456.13,308.50 456.13,308.91 456.13,309.33 456.13,309.75 456.13,310.17 456.13,310.58 456.13,311.00 456.13,311.42 456.13,311.84 456.13,312.25 456.14,312.67 456.14,313.09 456.14,313.51 456.14,313.92 456.15,314.34 456.15,314.76 456.16,315.18 456.16,315.59 456.17,316.01 456.18,316.43 456.19,316.85 456.20,317.26 456.20,317.68 456.22,318.10 456.23,318.52 456.24,318.93 456.25,319.35 456.27,319.77 456.28,320.19 456.30,320.60 456.32,321.02 456.34,321.44 456.36,321.86 456.38,322.27 456.40,322.69 456.43,323.11 456.45,323.53 456.48,323.94 456.51,324.36 456.54,324.78 456.57,325.20 456.61,325.61 456.64,326.03 456.68,326.45 456.72,326.87 456.76,327.28 456.81,327.70 456.85,328.12 456.90,328.54 456.95,328.95 457.00,329.37 457.05,329.79 457.10,330.21 457.16,330.62 457.22,331.04 457.27,331.46 457.33,331.88 457.39,332.29 457.45,332.71 457.52,333.13 457.58,333.55 457.64,333.96 457.71,334.38 457.77,334.80 457.84,335.22 457.90,335.63 457.97,336.05 458.03,336.47 458.10,336.89 458.16,337.30 458.23,337.72 458.29,338.14 458.35,338.56 458.42,338.97 458.48,339.39 458.54,339.81 458.59,340.23 458.65,340.64 458.71,341.06 458.76,341.48 458.81,341.90 458.86,342.31 458.91,342.73 458.96,343.15 459.00,343.57 459.04,343.98 459.08,344.40 459.12,344.82 459.16,345.24 459.19,345.66 459.23,346.07 459.26,346.49 459.29,346.91 459.31,347.33 459.34,347.74 459.36,348.16 459.38,348.58 459.40,349.00 459.42,349.41 459.44,349.83 459.45,350.25 459.46,350.67 459.47,351.08 459.48,351.50 459.49,351.92 459.50,352.34 459.51,352.75 459.51,353.17 459.51,353.59 459.52,354.01 459.52,354.42 459.52,354.84 459.51,355.26 459.51,355.68 459.51,356.09 459.50,356.51 459.50,356.93 459.49,357.35 459.48,357.76 459.47,358.18 459.47,358.60 459.45,359.02 459.44,359.43 459.43,359.85 459.42,360.27 459.40,360.69 459.39,361.10 459.37,361.52 459.36,361.94 459.34,362.36 459.32,362.77 459.31,363.19 459.29,363.61 459.27,364.03 459.25,364.44 459.24,364.86 459.22,365.28 459.20,365.70 459.19,366.11 459.18,366.53 459.16,366.95 459.15,367.37 459.14,367.78 459.14,368.20 459.13,368.62 459.13,369.04 459.13,369.45 459.13,369.87 459.14,370.29 459.15,370.71 459.17,371.12 459.19,371.54 459.21,371.96 459.23,372.38 459.27,372.79 459.30,373.21 459.34,373.63 459.39,374.05 459.44,374.46 459.50,374.88 459.56,375.30 459.63,375.72 459.71,376.13 459.79,376.55 459.88,376.97 459.97,377.39 460.07,377.80 460.17,378.22 460.28,378.64 460.40,379.06 460.52,379.47 460.65,379.89 460.79,380.31 460.92,380.73 461.07,381.14 461.22,381.56 461.37,381.98 461.53,382.40 461.70,382.81 461.87,383.23 462.04,383.65 462.22,384.07 462.40,384.48 462.59,384.90 462.78,385.32 462.97,385.74 463.17,386.15 463.37,386.57 463.57,386.99 463.78,387.41 463.99,387.82 464.20,388.24 464.42,388.66 464.64,389.08 464.86,389.49 465.08,389.91 465.30,390.33 465.53,390.75 465.76,391.16 465.99,391.58 466.23,392.00 466.46,392.42 466.70,392.83 466.94,393.25 467.18,393.67 467.42,394.09 467.67,394.50 467.91,394.92 468.16,395.34 468.41,395.76 468.67,396.17 468.92,396.59 469.18,397.01 469.43,397.43 469.69,397.84 469.95,398.26 470.22,398.68 470.48,399.10 470.75,399.51 471.01,399.93 471.28,400.35 471.55,400.77 471.82,401.18 472.10,401.60 472.37,402.02 472.64,402.44 472.92,402.85 473.20,403.27 473.47,403.69 473.75,404.11 474.03,404.52 474.31,404.94 474.58,405.36 474.86,405.78 475.14,406.20 475.42,406.61 475.70,407.03 475.98,407.45 476.26,407.87 476.53,408.28 476.81,408.70 477.09,409.12 477.36,409.54 477.64,409.95 477.91,410.37 478.19,410.79 478.46,411.21 478.73,411.62 479.00,412.04 479.28,412.46 479.55,412.88 479.82,413.29 480.09,413.71 480.36,414.13 480.63,414.55 480.91,414.96 481.18,415.38 481.45,415.80 481.73,416.22 482.00,416.63 482.28,417.05 482.56,417.47 482.84,417.89 483.13,418.30 483.42,418.72 483.71,419.14 484.00,419.56 484.30,419.97 484.60,420.39 484.90,420.81 485.21,421.23 485.53,421.64 485.85,422.06 486.17,422.48 486.50,422.90 486.84,423.31 487.18,423.73 487.53,424.15 487.88,424.57 488.24,424.98 488.60,425.40 488.97,425.82 489.35,426.24 489.73,426.65 490.12,427.07 490.51,427.49 490.91,427.91 491.31,428.32 491.72,428.74 492.13,429.16 492.55,429.58 492.97,429.99 493.39,430.41 493.81,430.83 494.24,431.25 494.66,431.66 495.09,432.08 495.52,432.50 495.95,432.92 496.37,433.33 496.80,433.75 497.22,434.17 497.64,434.59 498.06,435.00 498.47,435.42 498.88,435.84 499.28,436.26 499.68,436.67 500.07,437.09 500.45,437.51 500.83,437.93 501.20,438.34 501.56,438.76 501.92,439.18 502.27,439.60 502.60,440.01 502.93,440.43 503.25,440.85 503.56,441.27 503.86,441.68 504.15,442.10 504.43,442.52 504.70,442.94 504.96,443.35 505.21,443.77 505.45,444.19 505.68,444.61 505.90,445.02 506.11,445.44 506.31,445.86 506.51,446.28 506.69,446.69 506.86,447.11 507.03,447.53 507.18,447.95 507.33,448.36 507.46,448.78 507.59,449.20 507.71,449.62 507.82,450.03 507.92,450.45 508.01,450.87 508.09,451.29 508.16,451.70 508.23,452.12 508.28,452.54 508.33,452.96 508.36,453.37 508.39,453.79 508.41,454.21 508.41,454.63 508.41,455.04 508.40,455.46 508.38,455.88 508.34,456.30 508.30,456.71 508.25,457.13 508.18,457.55 508.11,457.97 508.03,458.38 507.93,458.80 507.82,459.22 507.70,459.64 507.58,460.05 507.43,460.47 507.29,460.89 507.13,461.31 506.95,461.72 506.77,462.14 506.58,462.56 506.38,462.98 506.16,463.39 505.94,463.81 505.71,464.23 505.47,464.65 505.22,465.07 504.96,465.48 504.69,465.90 504.41,466.32 504.12,466.74 503.83,467.15 503.52,467.57 503.21,467.99 502.89,468.41 502.56,468.82 502.23,469.24 501.88,469.66 501.53,470.08 501.17,470.49 500.81,470.91 500.43,471.33 500.05,471.75 499.66,472.16 499.26,472.58 498.85,473.00 498.43,473.42 498.01,473.83 497.58,474.25 497.14,474.67 496.68,475.09 496.22,475.50 495.76,475.92 495.27,476.34 494.78,476.76 494.29,477.17 493.78,477.59 493.26,478.01 492.73,478.43 492.19,478.84 491.63,479.26 491.07,479.68 490.50,480.10 489.92,480.51 489.33,480.93 488.73,481.35 488.12,481.77 487.50,482.18 486.87,482.60 486.23,483.02 485.59,483.44 484.93,483.85 484.27,484.27 483.61,484.69 482.94,485.11 482.26,485.52 481.58,485.94 480.90,486.36 480.21,486.78 479.53,487.19 478.84,487.61 478.15,488.03 477.47,488.45 476.78,488.86 476.10,489.28 436.10,489.28 "
     style="fill:#4682b4;stroke:#333333;stroke-width:1.07000005;stroke-linecap:round;stroke-linejoin:round;stroke-miterlimit:10"
     clip-path="url(#cpMzYuMTY2OHw3MTQuNTIxfDU0NS42NTZ8NS40Nzk0NQ==)"
     id="polyline43"
     transform="translate(72.580645,22.580645)" />
  <polyline
     points="602.38,478.43 602.00,477.94 601.62,477.44 601.24,476.95 600.85,476.45 600.46,475.96 600.08,475.46 599.69,474.97 599.30,474.47 598.91,473.97 598.51,473.48 598.12,472.98 597.73,472.49 597.34,471.99 596.95,471.50 596.56,471.00 596.17,470.51 595.79,470.01 595.40,469.52 595.02,469.02 594.63,468.53 594.25,468.03 593.88,467.53 593.50,467.04 593.13,466.54 592.76,466.05 592.39,465.55 592.03,465.06 591.67,464.56 591.32,464.07 590.96,463.57 590.62,463.08 590.27,462.58 589.93,462.09 589.60,461.59 589.27,461.10 588.94,460.60 588.62,460.10 588.31,459.61 588.00,459.11 587.69,458.62 587.39,458.12 587.10,457.63 586.81,457.13 586.53,456.64 586.25,456.14 585.98,455.65 585.72,455.15 585.46,454.66 585.21,454.16 584.96,453.66 584.72,453.17 584.49,452.67 584.27,452.18 584.04,451.68 583.83,451.19 583.63,450.69 583.43,450.20 583.23,449.70 583.04,449.21 582.86,448.71 582.69,448.22 582.52,447.72 582.36,447.22 582.21,446.73 582.06,446.23 581.92,445.74 581.79,445.24 581.66,444.75 581.54,444.25 581.43,443.76 581.32,443.26 581.22,442.77 581.12,442.27 581.04,441.78 580.96,441.28 580.88,440.79 580.81,440.29 580.75,439.79 580.69,439.30 580.64,438.80 580.60,438.31 580.56,437.81 580.53,437.32 580.50,436.82 580.48,436.33 580.47,435.83 580.46,435.34 580.45,434.84 580.46,434.35 580.47,433.85 580.48,433.35 580.50,432.86 580.53,432.36 580.56,431.87 580.60,431.37 580.64,430.88 580.69,430.38 580.74,429.89 580.80,429.39 580.87,428.90 580.94,428.40 581.01,427.91 581.09,427.41 581.18,426.92 581.27,426.42 581.36,425.92 581.46,425.43 581.57,424.93 581.68,424.44 581.80,423.94 581.92,423.45 582.04,422.95 582.17,422.46 582.31,421.96 582.45,421.47 582.59,420.97 582.74,420.48 582.90,419.98 583.05,419.48 583.22,418.99 583.38,418.49 583.55,418.00 583.73,417.50 583.91,417.01 584.09,416.51 584.27,416.02 584.46,415.52 584.65,415.03 584.85,414.53 585.05,414.04 585.25,413.54 585.45,413.05 585.66,412.55 585.86,412.05 586.08,411.56 586.29,411.06 586.50,410.57 586.72,410.07 586.94,409.58 587.16,409.08 587.38,408.59 587.60,408.09 587.82,407.60 588.05,407.10 588.27,406.61 588.50,406.11 588.72,405.61 588.94,405.12 589.17,404.62 589.39,404.13 589.62,403.63 589.84,403.14 590.07,402.64 590.29,402.15 590.51,401.65 590.73,401.16 590.95,400.66 591.17,400.17 591.39,399.67 591.61,399.18 591.82,398.68 592.04,398.18 592.25,397.69 592.46,397.19 592.67,396.70 592.88,396.20 593.09,395.71 593.29,395.21 593.50,394.72 593.70,394.22 593.90,393.73 594.10,393.23 594.30,392.74 594.50,392.24 594.70,391.74 594.90,391.25 595.09,390.75 595.29,390.26 595.48,389.76 595.68,389.27 595.87,388.77 596.06,388.28 596.25,387.78 596.45,387.29 596.64,386.79 596.83,386.30 597.02,385.80 597.21,385.31 597.41,384.81 597.60,384.31 597.79,383.82 597.99,383.32 598.18,382.83 598.37,382.33 598.57,381.84 598.76,381.34 598.96,380.85 599.16,380.35 599.36,379.86 599.55,379.36 599.75,378.87 599.95,378.37 600.15,377.87 600.36,377.38 600.56,376.88 600.76,376.39 600.97,375.89 601.17,375.40 601.38,374.90 601.58,374.41 601.79,373.91 602.00,373.42 602.21,372.92 602.42,372.43 602.62,371.93 602.83,371.43 603.04,370.94 603.25,370.44 603.46,369.95 603.67,369.45 603.88,368.96 604.09,368.46 604.30,367.97 604.51,367.47 604.71,366.98 604.92,366.48 605.13,365.99 605.33,365.49 605.54,365.00 605.74,364.50 605.94,364.00 606.14,363.51 606.34,363.01 606.54,362.52 606.74,362.02 606.93,361.53 607.12,361.03 607.32,360.54 607.51,360.04 607.69,359.55 607.88,359.05 608.06,358.56 608.25,358.06 608.43,357.56 608.60,357.07 608.78,356.57 608.95,356.08 609.12,355.58 609.29,355.09 609.46,354.59 609.62,354.10 609.79,353.60 609.95,353.11 610.10,352.61 610.26,352.12 610.41,351.62 610.56,351.13 610.71,350.63 610.85,350.13 611.00,349.64 611.14,349.14 611.27,348.65 611.41,348.15 611.54,347.66 611.67,347.16 611.80,346.67 611.93,346.17 612.05,345.68 612.17,345.18 612.29,344.69 612.41,344.19 612.52,343.69 612.63,343.20 612.74,342.70 612.85,342.21 612.95,341.71 613.05,341.22 613.15,340.72 613.25,340.23 613.34,339.73 613.43,339.24 613.52,338.74 613.61,338.25 613.69,337.75 613.77,337.26 613.85,336.76 613.93,336.26 614.00,335.77 614.07,335.27 614.14,334.78 614.21,334.28 614.27,333.79 614.33,333.29 614.39,332.80 614.45,332.30 614.50,331.81 614.55,331.31 614.60,330.82 614.64,330.32 614.68,329.82 614.72,329.33 614.76,328.83 614.79,328.34 614.82,327.84 614.85,327.35 614.87,326.85 614.89,326.36 614.91,325.86 614.93,325.37 614.94,324.87 614.95,324.38 614.96,323.88 614.96,323.39 614.96,322.89 614.96,322.39 614.96,321.90 614.95,321.40 614.94,320.91 614.93,320.41 614.91,319.92 614.90,319.42 614.88,318.93 614.85,318.43 614.83,317.94 614.80,317.44 614.77,316.95 614.74,316.45 614.71,315.95 614.68,315.46 614.64,314.96 614.60,314.47 614.56,313.97 614.52,313.48 614.47,312.98 614.43,312.49 614.38,311.99 614.34,311.50 614.29,311.00 614.24,310.51 614.19,310.01 614.14,309.51 614.08,309.02 614.03,308.52 613.98,308.03 613.93,307.53 613.88,307.04 613.82,306.54 613.77,306.05 613.72,305.55 613.67,305.06 613.61,304.56 613.56,304.07 613.51,303.57 613.47,303.08 613.42,302.58 613.37,302.08 613.32,301.59 613.28,301.09 613.24,300.60 613.19,300.10 613.15,299.61 613.12,299.11 613.08,298.62 613.04,298.12 613.01,297.63 612.98,297.13 612.95,296.64 612.93,296.14 612.90,295.64 612.88,295.15 612.86,294.65 612.84,294.16 612.83,293.66 612.81,293.17 612.80,292.67 612.79,292.18 612.79,291.68 612.78,291.19 612.78,290.69 612.79,290.20 612.79,289.70 612.80,289.21 612.81,288.71 612.82,288.21 612.83,287.72 612.85,287.22 612.87,286.73 612.89,286.23 612.91,285.74 612.94,285.24 612.96,284.75 612.99,284.25 613.03,283.76 613.06,283.26 613.10,282.77 613.14,282.27 613.18,281.77 613.22,281.28 613.26,280.78 613.31,280.29 613.35,279.79 613.40,279.30 613.45,278.80 613.50,278.31 613.55,277.81 613.61,277.32 613.66,276.82 613.72,276.33 613.77,275.83 613.83,275.34 613.89,274.84 613.95,274.34 614.01,273.85 614.07,273.35 614.13,272.86 614.19,272.36 614.25,271.87 614.31,271.37 614.37,270.88 614.43,270.38 614.49,269.89 614.55,269.39 614.61,268.90 614.66,268.40 614.72,267.90 614.78,267.41 614.83,266.91 614.89,266.42 614.94,265.92 615.00,265.43 615.05,264.93 615.10,264.44 615.15,263.94 615.20,263.45 615.24,262.95 615.29,262.46 615.33,261.96 615.37,261.47 615.41,260.97 615.45,260.47 615.49,259.98 615.52,259.48 615.56,258.99 615.59,258.49 615.62,258.00 615.65,257.50 615.67,257.01 615.70,256.51 615.72,256.02 615.74,255.52 615.75,255.03 615.77,254.53 615.78,254.03 615.80,253.54 615.81,253.04 615.81,252.55 615.82,252.05 615.83,251.56 615.83,251.06 615.83,250.57 615.83,250.07 615.83,249.58 615.82,249.08 615.82,248.59 615.81,248.09 615.80,247.59 615.79,247.10 615.78,246.60 615.77,246.11 615.76,245.61 615.75,245.12 615.73,244.62 615.72,244.13 615.70,243.63 615.68,243.14 615.67,242.64 615.65,242.15 615.63,241.65 615.62,241.16 615.60,240.66 615.58,240.16 615.56,239.67 615.54,239.17 615.53,238.68 615.51,238.18 615.49,237.69 615.48,237.19 615.46,236.70 615.45,236.20 615.43,235.71 615.42,235.21 615.41,234.72 615.40,234.22 615.39,233.72 615.38,233.23 615.37,232.73 615.36,232.24 615.36,231.74 615.35,231.25 615.35,230.75 615.35,230.26 615.35,229.76 615.35,229.27 615.36,228.77 615.36,228.28 615.37,227.78 615.38,227.29 615.38,226.79 615.40,226.29 615.41,225.80 615.42,225.30 619.80,225.30 619.82,225.80 619.83,226.29 619.84,226.79 619.85,227.29 619.86,227.78 619.86,228.28 619.87,228.77 619.87,229.27 619.87,229.76 619.87,230.26 619.87,230.75 619.87,231.25 619.87,231.74 619.86,232.24 619.86,232.73 619.85,233.23 619.84,233.72 619.83,234.22 619.82,234.72 619.81,235.21 619.79,235.71 619.78,236.20 619.76,236.70 619.75,237.19 619.73,237.69 619.72,238.18 619.70,238.68 619.68,239.17 619.66,239.67 619.65,240.16 619.63,240.66 619.61,241.16 619.59,241.65 619.58,242.15 619.56,242.64 619.54,243.14 619.52,243.63 619.51,244.13 619.49,244.62 619.48,245.12 619.47,245.61 619.45,246.11 619.44,246.60 619.43,247.10 619.42,247.59 619.41,248.09 619.41,248.59 619.40,249.08 619.40,249.58 619.40,250.07 619.40,250.57 619.40,251.06 619.40,251.56 619.40,252.05 619.41,252.55 619.42,253.04 619.43,253.54 619.44,254.03 619.46,254.53 619.47,255.03 619.49,255.52 619.51,256.02 619.53,256.51 619.55,257.01 619.58,257.50 619.61,258.00 619.64,258.49 619.67,258.99 619.70,259.48 619.74,259.98 619.77,260.47 619.81,260.97 619.85,261.47 619.89,261.96 619.94,262.46 619.98,262.95 620.03,263.45 620.08,263.94 620.13,264.44 620.18,264.93 620.23,265.43 620.28,265.92 620.34,266.42 620.39,266.91 620.45,267.41 620.50,267.90 620.56,268.40 620.62,268.90 620.68,269.39 620.74,269.89 620.80,270.38 620.86,270.88 620.92,271.37 620.98,271.87 621.04,272.36 621.10,272.86 621.16,273.35 621.22,273.85 621.28,274.34 621.34,274.84 621.39,275.34 621.45,275.83 621.51,276.33 621.56,276.82 621.62,277.32 621.67,277.81 621.72,278.31 621.77,278.80 621.82,279.30 621.87,279.79 621.92,280.29 621.96,280.78 622.01,281.28 622.05,281.77 622.09,282.27 622.13,282.77 622.16,283.26 622.20,283.76 622.23,284.25 622.26,284.75 622.29,285.24 622.32,285.74 622.34,286.23 622.36,286.73 622.38,287.22 622.39,287.72 622.41,288.21 622.42,288.71 622.43,289.21 622.44,289.70 622.44,290.20 622.44,290.69 622.44,291.19 622.44,291.68 622.43,292.18 622.42,292.67 622.41,293.17 622.40,293.66 622.39,294.16 622.37,294.65 622.35,295.15 622.33,295.64 622.30,296.14 622.27,296.64 622.24,297.13 622.21,297.63 622.18,298.12 622.15,298.62 622.11,299.11 622.07,299.61 622.03,300.10 621.99,300.60 621.95,301.09 621.90,301.59 621.86,302.08 621.81,302.58 621.76,303.08 621.71,303.57 621.66,304.07 621.61,304.56 621.56,305.06 621.51,305.55 621.46,306.05 621.40,306.54 621.35,307.04 621.30,307.53 621.25,308.03 621.19,308.52 621.14,309.02 621.09,309.51 621.04,310.01 620.99,310.51 620.94,311.00 620.89,311.50 620.84,311.99 620.80,312.49 620.75,312.98 620.71,313.48 620.67,313.97 620.63,314.47 620.59,314.96 620.55,315.46 620.52,315.95 620.48,316.45 620.45,316.95 620.42,317.44 620.40,317.94 620.37,318.43 620.35,318.93 620.33,319.42 620.31,319.92 620.30,320.41 620.29,320.91 620.28,321.40 620.27,321.90 620.27,322.39 620.26,322.89 620.27,323.39 620.27,323.88 620.28,324.38 620.29,324.87 620.30,325.37 620.32,325.86 620.33,326.36 620.36,326.85 620.38,327.35 620.41,327.84 620.44,328.34 620.47,328.83 620.51,329.33 620.54,329.82 620.59,330.32 620.63,330.82 620.68,331.31 620.73,331.81 620.78,332.30 620.83,332.80 620.89,333.29 620.95,333.79 621.02,334.28 621.08,334.78 621.15,335.27 621.22,335.77 621.30,336.26 621.37,336.76 621.45,337.26 621.53,337.75 621.62,338.25 621.70,338.74 621.79,339.24 621.88,339.73 621.98,340.23 622.07,340.72 622.17,341.22 622.28,341.71 622.38,342.21 622.49,342.70 622.59,343.20 622.71,343.69 622.82,344.19 622.94,344.69 623.05,345.18 623.18,345.68 623.30,346.17 623.42,346.67 623.55,347.16 623.68,347.66 623.82,348.15 623.95,348.65 624.09,349.14 624.23,349.64 624.37,350.13 624.52,350.63 624.67,351.13 624.82,351.62 624.97,352.12 625.12,352.61 625.28,353.11 625.44,353.60 625.60,354.10 625.77,354.59 625.93,355.09 626.10,355.58 626.27,356.08 626.45,356.57 626.62,357.07 626.80,357.56 626.98,358.06 627.16,358.56 627.35,359.05 627.53,359.55 627.72,360.04 627.91,360.54 628.10,361.03 628.29,361.53 628.49,362.02 628.69,362.52 628.88,363.01 629.08,363.51 629.29,364.00 629.49,364.50 629.69,365.00 629.89,365.49 630.10,365.99 630.31,366.48 630.51,366.98 630.72,367.47 630.93,367.97 631.14,368.46 631.35,368.96 631.55,369.45 631.76,369.95 631.97,370.44 632.18,370.94 632.39,371.43 632.60,371.93 632.81,372.43 633.02,372.92 633.23,373.42 633.43,373.91 633.64,374.41 633.85,374.90 634.05,375.40 634.26,375.89 634.46,376.39 634.67,376.88 634.87,377.38 635.07,377.87 635.27,378.37 635.47,378.87 635.67,379.36 635.87,379.86 636.07,380.35 636.27,380.85 636.46,381.34 636.66,381.84 636.85,382.33 637.05,382.83 637.24,383.32 637.43,383.82 637.63,384.31 637.82,384.81 638.01,385.31 638.20,385.80 638.39,386.30 638.59,386.79 638.78,387.29 638.97,387.78 639.16,388.28 639.36,388.77 639.55,389.27 639.74,389.76 639.94,390.26 640.13,390.75 640.33,391.25 640.53,391.74 640.72,392.24 640.92,392.74 641.12,393.23 641.32,393.73 641.52,394.22 641.73,394.72 641.93,395.21 642.14,395.71 642.35,396.20 642.56,396.70 642.77,397.19 642.98,397.69 643.19,398.18 643.40,398.68 643.62,399.18 643.84,399.67 644.05,400.17 644.27,400.66 644.49,401.16 644.71,401.65 644.94,402.15 645.16,402.64 645.38,403.14 645.61,403.63 645.83,404.13 646.06,404.62 646.28,405.12 646.51,405.61 646.73,406.11 646.96,406.61 647.18,407.10 647.40,407.60 647.63,408.09 647.85,408.59 648.07,409.08 648.29,409.58 648.51,410.07 648.72,410.57 648.94,411.06 649.15,411.56 649.36,412.05 649.57,412.55 649.78,413.05 649.98,413.54 650.18,414.04 650.38,414.53 650.57,415.03 650.77,415.52 650.95,416.02 651.14,416.51 651.32,417.01 651.50,417.50 651.67,418.00 651.84,418.49 652.01,418.99 652.17,419.48 652.33,419.98 652.48,420.48 652.63,420.97 652.78,421.47 652.92,421.96 653.05,422.46 653.18,422.95 653.31,423.45 653.43,423.94 653.54,424.44 653.66,424.93 653.76,425.43 653.86,425.92 653.96,426.42 654.05,426.92 654.13,427.41 654.22,427.91 654.29,428.40 654.36,428.90 654.43,429.39 654.48,429.89 654.54,430.38 654.59,430.88 654.63,431.37 654.67,431.87 654.70,432.36 654.72,432.86 654.74,433.35 654.76,433.85 654.77,434.35 654.77,434.84 654.77,435.34 654.76,435.83 654.75,436.33 654.73,436.82 654.70,437.32 654.67,437.81 654.63,438.31 654.58,438.80 654.53,439.30 654.48,439.79 654.42,440.29 654.35,440.79 654.27,441.28 654.19,441.78 654.10,442.27 654.01,442.77 653.91,443.26 653.80,443.76 653.68,444.25 653.56,444.75 653.44,445.24 653.30,445.74 653.16,446.23 653.01,446.73 652.86,447.22 652.70,447.72 652.53,448.22 652.36,448.71 652.18,449.21 651.99,449.70 651.80,450.20 651.60,450.69 651.39,451.19 651.18,451.68 650.96,452.18 650.73,452.67 650.50,453.17 650.26,453.66 650.02,454.16 649.77,454.66 649.51,455.15 649.24,455.65 648.97,456.14 648.70,456.64 648.41,457.13 648.13,457.63 647.83,458.12 647.53,458.62 647.23,459.11 646.92,459.61 646.60,460.10 646.28,460.60 645.96,461.10 645.63,461.59 645.29,462.09 644.95,462.58 644.61,463.08 644.26,463.57 643.91,464.07 643.55,464.56 643.19,465.06 642.83,465.55 642.47,466.05 642.10,466.54 641.72,467.04 641.35,467.53 640.97,468.03 640.59,468.53 640.21,469.02 639.82,469.52 639.44,470.01 639.05,470.51 638.66,471.00 638.27,471.50 637.88,471.99 637.49,472.49 637.10,472.98 636.71,473.48 636.32,473.97 635.93,474.47 635.54,474.97 635.15,475.46 634.76,475.96 634.37,476.45 633.99,476.95 633.60,477.44 633.22,477.94 632.84,478.43 602.38,478.43 "
     style="fill:#4682b4;stroke:#333333;stroke-width:1.07000005;stroke-linecap:round;stroke-linejoin:round;stroke-miterlimit:10"
     clip-path="url(#cpMzYuMTY2OHw3MTQuNTIxfDU0NS42NTZ8NS40Nzk0NQ==)"
     id="polyline45"
     transform="translate(72.580645,22.580645)" />
  <rect
     x="36.169998"
     y="5.48"
     width="678.34998"
     height="540.17999"
     style="fill:none;stroke:#333333;stroke-width:1.07000005;stroke-linecap:round;stroke-linejoin:round;stroke-miterlimit:10"
     clip-path="url(#cpMzYuMTY2OHw3MTQuNTIxfDU0NS42NTZ8NS40Nzk0NQ==)"
     id="rect47"
     transform="translate(72.580645,22.580645)" />
  <defs
     id="defs49">
    <clipPath
       id="cpMHw3MjB8NTc2fDA=">
      <rect
         x="0"
         y="0"
         width="720"
         height="576"
         id="rect52"
         style="fill:none;stroke:#000000;stroke-linecap:round;stroke-linejoin:round;stroke-miterlimit:10" />
    </clipPath>
  </defs>
  <g
     clip-path="url(#cpMHw3MjB8NTc2fDA=)"
     id="g54"
     transform="translate(72.580645,26.580645)">
    <text
       x="12.23"
       y="546.73999"
       style="font-size:22px;font-family:Arial;fill:#4d4d4d"
       textLength="5.01px"
       lengthAdjust="spacingAndGlyphs"
       id="text56">0</text>
  </g>
  <g
     clip-path="url(#cpMHw3MjB8NTc2fDA=)"
     id="g58"
     transform="translate(70.580645,26.580645)">
    <text
       x="15.23"
       y="365.94"
       style="font-size:22px;font-family:Arial;fill:#4d4d4d"
       textLength="5.01px"
       lengthAdjust="spacingAndGlyphs"
       id="text60">5</text>
  </g>
  <g
     clip-path="url(#cpMHw3MjB8NTc2fDA=)"
     id="g62"
     transform="translate(60.580645,28.580645)">
    <text
       x="17.219999"
       y="185.13"
       style="font-size:22px;font-family:Arial;fill:#4d4d4d"
       textLength="10.01px"
       lengthAdjust="spacingAndGlyphs"
       id="text64">10</text>
  </g>
  <polyline
     points="33.43,543.52 36.17,543.52 "
     style="fill:none;stroke:#333333;stroke-width:1.07000005;stroke-linecap:butt;stroke-linejoin:round;stroke-miterlimit:10"
     clip-path="url(#cpMHw3MjB8NTc2fDA=)"
     id="polyline66"
     transform="translate(72.580645,22.580645)" />
  <polyline
     points="33.43,362.72 36.17,362.72 "
     style="fill:none;stroke:#333333;stroke-width:1.07000005;stroke-linecap:butt;stroke-linejoin:round;stroke-miterlimit:10"
     clip-path="url(#cpMHw3MjB8NTc2fDA=)"
     id="polyline68"
     transform="translate(72.580645,22.580645)" />
  <polyline
     points="33.43,181.91 36.17,181.91 "
     style="fill:none;stroke:#333333;stroke-width:1.07000005;stroke-linecap:butt;stroke-linejoin:round;stroke-miterlimit:10"
     clip-path="url(#cpMHw3MjB8NTc2fDA=)"
     id="polyline70"
     transform="translate(72.580645,22.580645)" />
  <polyline
     points="133.07,548.40 133.07,545.66 "
     style="fill:none;stroke:#333333;stroke-width:1.07000005;stroke-linecap:butt;stroke-linejoin:round;stroke-miterlimit:10"
     clip-path="url(#cpMHw3MjB8NTc2fDA=)"
     id="polyline72"
     transform="translate(72.580645,22.580645)" />
  <polyline
     points="294.59,548.40 294.59,545.66 "
     style="fill:none;stroke:#333333;stroke-width:1.07000005;stroke-linecap:butt;stroke-linejoin:round;stroke-miterlimit:10"
     clip-path="url(#cpMHw3MjB8NTc2fDA=)"
     id="polyline74"
     transform="translate(72.580645,22.580645)" />
  <polyline
     points="456.10,548.40 456.10,545.66 "
     style="fill:none;stroke:#333333;stroke-width:1.07000005;stroke-linecap:butt;stroke-linejoin:round;stroke-miterlimit:10"
     clip-path="url(#cpMHw3MjB8NTc2fDA=)"
     id="polyline76"
     transform="translate(72.580645,22.580645)" />
  <polyline
     points="617.61,548.40 617.61,545.66 "
     style="fill:none;stroke:#333333;stroke-width:1.07000005;stroke-linecap:butt;stroke-linejoin:round;stroke-miterlimit:10"
     clip-path="url(#cpMHw3MjB8NTc2fDA=)"
     id="polyline78"
     transform="translate(72.580645,22.580645)" />
  <g
     clip-path="url(#cpMHw3MjB8NTc2fDA=)"
     id="g80"
     transform="translate(50.580645,40.580645)">
    <text
       x="117.57"
       y="557.03003"
       style="font-size:22px;font-family:Arial;fill:#4d4d4d"
       textLength="31.02px"
       lengthAdjust="spacingAndGlyphs"
       id="text82">Autumn</text>
  </g>
  <g
     clip-path="url(#cpMHw3MjB8NTc2fDA=)"
     id="g84"
     transform="translate(52.580645,40.580645)">
    <text
       x="281.57999"
       y="557.03003"
       style="font-size:22px;font-family:Arial;fill:#4d4d4d"
       textLength="26.02px"
       lengthAdjust="spacingAndGlyphs"
       id="text86">Spring</text>
  </g>
  <g
     clip-path="url(#cpMHw3MjB8NTc2fDA=)"
     id="g88"
     transform="translate(46.580645,42.580645)">
    <text
       x="439.10001"
       y="557.03003"
       style="font-size:22px;font-family:Arial;fill:#4d4d4d"
       textLength="34.00px"
       lengthAdjust="spacingAndGlyphs"
       id="text90">Summer</text>
  </g>
  <g
     clip-path="url(#cpMHw3MjB8NTc2fDA=)"
     id="g92"
     transform="translate(52.580645,44.580645)">
    <text
       x="604.60999"
       y="557.03003"
       style="font-size:22px;font-family:Arial;fill:#4d4d4d"
       textLength="26.00px"
       lengthAdjust="spacingAndGlyphs"
       id="text94">Winter</text>
  </g>
  <g
     clip-path=""
     id="g100"
     transform="translate(40.580645,232.58065)">
    <text
       transform="matrix(0,-1,1,0,13.35,300.95)"
       style="font-size:26px;font-family:Arial"
       textLength="50.77px"
       lengthAdjust="spacingAndGlyphs"
       id="text102">% trains delayed or cancelled (1997-2017)</text>
  </g>
</svg>
