<?xml version="1.0" encoding="UTF-8" standalone="no"?>
<svg
   xmlns:dc="http://purl.org/dc/elements/1.1/"
   xmlns:cc="http://creativecommons.org/ns#"
   xmlns:rdf="http://www.w3.org/1999/02/22-rdf-syntax-ns#"
   xmlns:svg="http://www.w3.org/2000/svg"
   xmlns="http://www.w3.org/2000/svg"
   xmlns:sodipodi="http://sodipodi.sourceforge.net/DTD/sodipodi-0.dtd"
   xmlns:inkscape="http://www.inkscape.org/namespaces/inkscape"
   viewBox="0 0 790 576"
   id="svg2"
   version="1.1"
   inkscape:version="0.91 r13725"
   sodipodi:docname="5-traindelays-spline.svg"
   width="790"
   height="576">
  <metadata
     id="metadata92">
    <rdf:RDF>
      <cc:Work
         rdf:about="">
        <dc:format>image/svg+xml</dc:format>
        <dc:type
           rdf:resource="http://purl.org/dc/dcmitype/StillImage" />
        <dc:title></dc:title>
      </cc:Work>
    </rdf:RDF>
  </metadata>
  <sodipodi:namedview
     pagecolor="#ffffff"
     bordercolor="#666666"
     borderopacity="1"
     objecttolerance="10"
     gridtolerance="10"
     guidetolerance="10"
     inkscape:pageopacity="1"
     inkscape:pageshadow="2"
     inkscape:window-width="1225"
     inkscape:window-height="690"
     id="namedview90"
     showgrid="false"
     inkscape:zoom="0.40972222"
     inkscape:cx="35.389831"
     inkscape:cy="288"
     inkscape:window-x="0"
     inkscape:window-y="0"
     inkscape:window-maximized="0"
     inkscape:current-layer="svg2" />
  <defs
     id="defs4">
    <style
       type="text/css"
       id="style6"><![CDATA[
    line, polyline, path, rect, circle {
      fill: none;
      stroke: #000000;
      stroke-linecap: round;
      stroke-linejoin: round;
      stroke-miterlimit: 10.00;
    }
  ]]></style>
  </defs>
  <rect
     width="720"
     height="576"
     style="fill:#ffffff;stroke:none;stroke-linecap:round;stroke-linejoin:round;stroke-miterlimit:10"
     id="rect8"
     x="60"
     y="0" />
  <defs
     id="defs10">
    <clipPath
       id="cpNTkuMDR8Njg5Ljc2fDUwMi41Nnw1OS4wNA==">
      <rect
         x="59.040001"
         y="59.040001"
         width="630.71997"
         height="443.51999"
         id="rect13"
         style="fill:none;stroke:#000000;stroke-linecap:round;stroke-linejoin:round;stroke-miterlimit:10" />
    </clipPath>
  </defs>
  <polyline
     points="82.40,372.62 85.47,372.67 88.55,372.70 91.62,372.68 94.69,372.57 97.77,372.36 100.84,372.02 103.92,371.52 106.99,370.84 110.06,369.95 113.14,368.82 116.21,367.43 119.28,365.72 122.36,363.67 125.43,361.21 128.51,358.32 131.58,354.94 134.65,351.02 137.73,346.53 140.80,341.41 143.87,335.63 146.95,329.17 150.02,322.22 153.09,314.96 156.17,307.62 159.24,300.40 162.32,293.50 165.39,287.14 168.46,281.53 171.54,276.87 174.61,273.37 177.68,271.17 180.76,270.17 183.83,270.20 186.91,271.09 189.98,272.66 193.05,274.74 196.13,277.16 199.20,279.76 202.27,282.36 205.35,284.79 208.42,286.91 211.49,288.73 214.57,290.29 217.64,291.64 220.72,292.81 223.79,293.84 226.86,294.78 229.94,295.67 233.01,296.55 236.08,297.45 239.16,298.42 242.23,299.48 245.31,300.63 248.38,301.88 251.45,303.25 254.53,304.75 257.60,306.39 260.67,308.18 263.75,310.13 266.82,312.26 269.89,314.56 272.97,317.01 276.04,319.58 279.12,322.21 282.19,324.89 285.26,327.55 288.34,330.18 291.41,332.74 294.48,335.17 297.56,337.46 300.63,339.56 303.71,341.49 306.78,343.25 309.85,344.86 312.93,346.33 316.00,347.68 319.07,348.92 322.15,350.06 325.22,351.11 328.29,352.09 331.37,353.02 334.44,353.90 337.52,354.74 340.59,355.56 343.66,356.37 346.74,357.19 349.81,358.02 352.88,358.88 355.96,359.78 359.03,360.74 362.11,361.75 365.18,362.80 368.25,363.87 371.33,364.91 374.40,365.92 377.47,366.85 380.55,367.69 383.62,368.40 386.69,368.96 389.77,369.34 392.84,369.53 395.92,369.53 398.99,369.36 402.06,369.05 405.14,368.62 408.21,368.08 411.28,367.47 414.36,366.78 417.43,366.06 420.51,365.32 423.58,364.57 426.65,363.83 429.73,363.10 432.80,362.39 435.87,361.72 438.95,361.07 442.02,360.47 445.09,359.92 448.17,359.42 451.24,358.99 454.32,358.62 457.39,358.34 460.46,358.13 463.54,358.02 466.61,357.99 469.68,358.07 472.76,358.25 475.83,358.54 478.91,358.95 481.98,359.48 485.05,360.14 488.13,360.88 491.20,361.69 494.27,362.53 497.35,363.35 500.42,364.14 503.49,364.85 506.57,365.45 509.64,365.91 512.72,366.19 515.79,366.26 518.86,366.13 521.94,365.79 525.01,365.24 528.08,364.50 531.16,363.56 534.23,362.42 537.31,361.09 540.38,359.57 543.45,357.87 546.53,355.99 549.60,353.96 552.67,351.85 555.75,349.69 558.82,347.53 561.89,345.41 564.97,343.39 568.04,341.49 571.12,339.79 574.19,338.31 577.26,337.08 580.34,336.08 583.41,335.26 586.48,334.56 589.56,333.93 592.63,333.33 595.71,332.70 598.78,332.00 601.85,331.17 604.93,330.17 608.00,328.95 611.07,327.48 614.15,325.74 617.22,323.70 620.29,321.35 623.37,318.65 626.44,315.58 629.52,312.13 632.59,308.26 635.66,303.96 638.74,299.20 641.81,294.03 644.88,288.50 647.96,282.64 651.03,276.50 654.11,270.13 657.18,263.58 660.25,256.89 663.33,250.11 666.40,243.29 "
     style="fill:none;stroke:#000000;stroke-width:1.75;stroke-linecap:round;stroke-linejoin:round;stroke-miterlimit:10"
     clip-path="url(#cpNTkuMDR8Njg5Ljc2fDUwMi41Nnw1OS4wNA==)"
     id="polyline15"
     transform="translate(60,0)" />
  <defs
     id="defs17">
    <clipPath
       id="cpMHw3MjB8NTc2fDA=">
      <rect
         x="0"
         y="0"
         width="720"
         height="576"
         id="rect20"
         style="fill:none;stroke:#000000;stroke-linecap:round;stroke-linejoin:round;stroke-miterlimit:10" />
    </clipPath>
  </defs>
  <line
     x1="174.61"
     y1="502.56"
     x2="635.65997"
     y2="502.56"
     style="fill:none;stroke:#000000;stroke-width:0.75;stroke-linecap:round;stroke-linejoin:round;stroke-miterlimit:10"
     clip-path="url(#cpMHw3MjB8NTc2fDA=)"
     id="line22"
     transform="translate(60,0)" />
  <line
     x1="174.61"
     y1="502.56"
     x2="174.61"
     y2="509.76001"
     style="fill:none;stroke:#000000;stroke-width:0.75;stroke-linecap:round;stroke-linejoin:round;stroke-miterlimit:10"
     clip-path="url(#cpMHw3MjB8NTc2fDA=)"
     id="line24"
     transform="translate(60,0)" />
  <line
     x1="328.29001"
     y1="502.56"
     x2="328.29001"
     y2="509.76001"
     style="fill:none;stroke:#000000;stroke-width:0.75;stroke-linecap:round;stroke-linejoin:round;stroke-miterlimit:10"
     clip-path="url(#cpMHw3MjB8NTc2fDA=)"
     id="line26"
     transform="translate(60,0)" />
  <line
     x1="481.98001"
     y1="502.56"
     x2="481.98001"
     y2="509.76001"
     style="fill:none;stroke:#000000;stroke-width:0.75;stroke-linecap:round;stroke-linejoin:round;stroke-miterlimit:10"
     clip-path="url(#cpMHw3MjB8NTc2fDA=)"
     id="line28"
     transform="translate(60,0)" />
  <line
     x1="635.65997"
     y1="502.56"
     x2="635.65997"
     y2="509.76001"
     style="fill:none;stroke:#000000;stroke-width:0.75;stroke-linecap:round;stroke-linejoin:round;stroke-miterlimit:10"
     clip-path="url(#cpMHw3MjB8NTc2fDA=)"
     id="line30"
     transform="translate(60,0)" />
  <g
     clip-path="url(#cpMHw3MjB8NTc2fDA=)"
     id="g32"
     transform="translate(60,12)">
    <text
       x="134.57001"
       y="528.47998"
       style="font-size:36px;font-family:Arial"
       textLength="80.09px"
       lengthAdjust="spacingAndGlyphs"
       id="text34">2000</text>
  </g>
  <g
     clip-path="url(#cpMHw3MjB8NTc2fDA=)"
     id="g36"
     transform="translate(60,12)">
    <text
       x="288.25"
       y="528.47998"
       style="font-size:36px;font-family:Arial"
       textLength="80.09px"
       lengthAdjust="spacingAndGlyphs"
       id="text38">2005</text>
  </g>
  <g
     clip-path="url(#cpMHw3MjB8NTc2fDA=)"
     id="g40"
     transform="translate(60,12)">
    <text
       x="441.94"
       y="528.47998"
       style="font-size:36px;font-family:Arial"
       textLength="80.09px"
       lengthAdjust="spacingAndGlyphs"
       id="text42">2010</text>
  </g>
  <g
     clip-path="url(#cpMHw3MjB8NTc2fDA=)"
     id="g44"
     transform="translate(60,12)">
    <text
       x="595.62"
       y="528.47998"
       style="font-size:36px;font-family:Arial"
       textLength="80.09px"
       lengthAdjust="spacingAndGlyphs"
       id="text46">2015</text>
  </g>
  <line
     x1="59.040001"
     y1="502.56"
     x2="59.040001"
     y2="59.040001"
     style="fill:none;stroke:#000000;stroke-width:0.75;stroke-linecap:round;stroke-linejoin:round;stroke-miterlimit:10"
     clip-path="url(#cpMHw3MjB8NTc2fDA=)"
     id="line48"
     transform="translate(60,0)" />
  <line
     x1="59.040001"
     y1="502.56"
     x2="51.84"
     y2="502.56"
     style="fill:none;stroke:#000000;stroke-width:0.75;stroke-linecap:round;stroke-linejoin:round;stroke-miterlimit:10"
     clip-path="url(#cpMHw3MjB8NTc2fDA=)"
     id="line50"
     transform="translate(60,0)" />
  <line
     x1="59.040001"
     y1="391.67999"
     x2="51.84"
     y2="391.67999"
     style="fill:none;stroke:#000000;stroke-width:0.75;stroke-linecap:round;stroke-linejoin:round;stroke-miterlimit:10"
     clip-path="url(#cpMHw3MjB8NTc2fDA=)"
     id="line52"
     transform="translate(60,0)" />
  <line
     x1="59.040001"
     y1="280.79999"
     x2="51.84"
     y2="280.79999"
     style="fill:none;stroke:#000000;stroke-width:0.75;stroke-linecap:round;stroke-linejoin:round;stroke-miterlimit:10"
     clip-path="url(#cpMHw3MjB8NTc2fDA=)"
     id="line54"
     transform="translate(60,0)" />
  <line
     x1="59.040001"
     y1="169.92"
     x2="51.84"
     y2="169.92"
     style="fill:none;stroke:#000000;stroke-width:0.75;stroke-linecap:round;stroke-linejoin:round;stroke-miterlimit:10"
     clip-path="url(#cpMHw3MjB8NTc2fDA=)"
     id="line56"
     transform="translate(60,0)" />
  <line
     x1="59.040001"
     y1="59.040001"
     x2="51.84"
     y2="59.040001"
     style="fill:none;stroke:#000000;stroke-width:0.75;stroke-linecap:round;stroke-linejoin:round;stroke-miterlimit:10"
     clip-path="url(#cpMHw3MjB8NTc2fDA=)"
     id="line58"
     transform="translate(60,0)" />
  <g
     clip-path="url(#cpMHw3MjB8NTc2fDA=)"
     id="g60"
     transform="translate(60,0)">
    <text
       transform="matrix(0,-1,1,0,41.76,512.57)"
       style="font-size:36px;font-family:Arial"
       textLength="20.02px"
       lengthAdjust="spacingAndGlyphs"
       id="text62">0</text>
  </g>
  <g
     clip-path="url(#cpMHw3MjB8NTc2fDA=)"
     id="g64"
     transform="translate(60,0)">
    <text
       transform="matrix(0,-1,1,0,41.76,401.69)"
       style="font-size:36px;font-family:Arial"
       textLength="20.02px"
       lengthAdjust="spacingAndGlyphs"
       id="text66">2</text>
  </g>
  <g
     clip-path="url(#cpMHw3MjB8NTc2fDA=)"
     id="g68"
     transform="translate(60,0)">
    <text
       transform="matrix(0,-1,1,0,41.76,290.81)"
       style="font-size:36px;font-family:Arial"
       textLength="20.02px"
       lengthAdjust="spacingAndGlyphs"
       id="text70">4</text>
  </g>
  <g
     clip-path="url(#cpMHw3MjB8NTc2fDA=)"
     id="g72"
     transform="translate(60,0)">
    <text
       transform="matrix(0,-1,1,0,41.76,179.93)"
       style="font-size:36px;font-family:Arial"
       textLength="20.02px"
       lengthAdjust="spacingAndGlyphs"
       id="text74">6</text>
  </g>
  <g
     clip-path="url(#cpMHw3MjB8NTc2fDA=)"
     id="g76"
     transform="translate(60,0)">
    <text
       transform="matrix(0,-1,1,0,41.76,69.05)"
       style="font-size:36px;font-family:Arial"
       textLength="20.02px"
       lengthAdjust="spacingAndGlyphs"
       id="text78">8</text>
  </g>
  <polyline
     points="59.04,502.56 689.76,502.56 689.76,59.04 59.04,59.04 59.04,502.56 "
     style="fill:none;stroke:#000000;stroke-width:0.75;stroke-linecap:round;stroke-linejoin:round;stroke-miterlimit:10"
     clip-path="url(#cpMHw3MjB8NTc2fDA=)"
     id="polyline80"
     transform="translate(60,0)" />
  <g
     clip-path="url(#cpMHw3MjB8NTc2fDA=)"
     id="g82"
     transform="translate(60,0)">
    <text
       x="178.39"
       y="42.400002"
       style="font-weight:bold;font-size:36px;font-family:Arial"
       textLength="392.03px"
       lengthAdjust="spacingAndGlyphs"
       id="text84">Smoothed with splines</text>
  </g>
  <g
     clip-path=""
     id="g86"
     transform="translate(40,0)">
    <text
       transform="matrix(0,-1,1,0,12.96,497.93)"
       style="font-size:36px;font-family:Arial"
       textLength="434.27px"
       lengthAdjust="spacingAndGlyphs"
       id="text88">% delays and cancellations</text>
  </g>
</svg>
