<?xml version="1.0" encoding="UTF-8" standalone="no"?>
<svg
   xmlns:dc="http://purl.org/dc/elements/1.1/"
   xmlns:cc="http://creativecommons.org/ns#"
   xmlns:rdf="http://www.w3.org/1999/02/22-rdf-syntax-ns#"
   xmlns:svg="http://www.w3.org/2000/svg"
   xmlns="http://www.w3.org/2000/svg"
   xmlns:sodipodi="http://sodipodi.sourceforge.net/DTD/sodipodi-0.dtd"
   xmlns:inkscape="http://www.inkscape.org/namespaces/inkscape"
   viewBox="0 0 790 576"
   id="svg2"
   version="1.1"
   inkscape:version="0.91 r13725"
   sodipodi:docname="5-traindelays-winsor-mad.svg"
   width="790"
   height="576">
  <metadata
     id="metadata102">
    <rdf:RDF>
      <cc:Work
         rdf:about="">
        <dc:format>image/svg+xml</dc:format>
        <dc:type
           rdf:resource="http://purl.org/dc/dcmitype/StillImage" />
        <dc:title></dc:title>
      </cc:Work>
    </rdf:RDF>
  </metadata>
  <sodipodi:namedview
     pagecolor="#ffffff"
     bordercolor="#666666"
     borderopacity="1"
     objecttolerance="10"
     gridtolerance="10"
     guidetolerance="10"
     inkscape:pageopacity="0"
     inkscape:pageshadow="2"
     inkscape:window-width="1049"
     inkscape:window-height="750"
     id="namedview100"
     showgrid="false"
     inkscape:zoom="0.40972222"
     inkscape:cx="133.01695"
     inkscape:cy="288"
     inkscape:window-x="0"
     inkscape:window-y="0"
     inkscape:window-maximized="0"
     inkscape:current-layer="svg2" />
  <defs
     id="defs4">
    <style
       type="text/css"
       id="style6"><![CDATA[
    line, polyline, path, rect, circle {
      fill: none;
      stroke: #000000;
      stroke-linecap: round;
      stroke-linejoin: round;
      stroke-miterlimit: 10.00;
    }
  ]]></style>
  </defs>
  <rect
     width="720"
     height="576"
     style="fill:#ffffff;stroke:none;stroke-linecap:round;stroke-linejoin:round;stroke-miterlimit:10"
     id="rect8"
     x="48"
     y="0" />
  <defs
     id="defs10">
    <clipPath
       id="cpNTkuMDR8Njg5Ljc2fDUwMi41Nnw1OS4wNA==">
      <rect
         x="59.040001"
         y="59.040001"
         width="630.71997"
         height="443.51999"
         id="rect13"
         style="fill:none;stroke:#000000;stroke-linecap:round;stroke-linejoin:round;stroke-miterlimit:10" />
    </clipPath>
  </defs>
  <polyline
     points="82.40,339.09 113.14,347.31 143.87,326.84 174.61,176.41 205.35,269.27 236.08,272.35 266.82,284.51 297.56,318.97 328.29,317.93 359.03,348.14 389.77,352.56 420.51,362.03 451.24,365.17 481.98,360.86 512.72,347.06 543.45,342.38 574.19,287.33 604.93,302.13 635.66,290.02 666.40,207.05 "
     style="fill:none;stroke:#8d8d8d;stroke-width:1.75;stroke-linecap:round;stroke-linejoin:round;stroke-miterlimit:10"
     clip-path="url(#cpNTkuMDR8Njg5Ljc2fDUwMi41Nnw1OS4wNA==)"
     id="polyline15"
     transform="translate(48,0)" />
  <defs
     id="defs17">
    <clipPath
       id="cpMHw3MjB8NTc2fDA=">
      <rect
         x="0"
         y="0"
         width="720"
         height="576"
         id="rect20"
         style="fill:none;stroke:#000000;stroke-linecap:round;stroke-linejoin:round;stroke-miterlimit:10" />
    </clipPath>
  </defs>
  <line
     x1="174.61"
     y1="502.56"
     x2="635.65997"
     y2="502.56"
     style="fill:none;stroke:#000000;stroke-width:0.75;stroke-linecap:round;stroke-linejoin:round;stroke-miterlimit:10"
     clip-path="url(#cpMHw3MjB8NTc2fDA=)"
     id="line22"
     transform="translate(48,0)" />
  <line
     x1="174.61"
     y1="502.56"
     x2="174.61"
     y2="509.76001"
     style="fill:none;stroke:#000000;stroke-width:0.75;stroke-linecap:round;stroke-linejoin:round;stroke-miterlimit:10"
     clip-path="url(#cpMHw3MjB8NTc2fDA=)"
     id="line24"
     transform="translate(48,0)" />
  <line
     x1="328.29001"
     y1="502.56"
     x2="328.29001"
     y2="509.76001"
     style="fill:none;stroke:#000000;stroke-width:0.75;stroke-linecap:round;stroke-linejoin:round;stroke-miterlimit:10"
     clip-path="url(#cpMHw3MjB8NTc2fDA=)"
     id="line26"
     transform="translate(48,0)" />
  <line
     x1="481.98001"
     y1="502.56"
     x2="481.98001"
     y2="509.76001"
     style="fill:none;stroke:#000000;stroke-width:0.75;stroke-linecap:round;stroke-linejoin:round;stroke-miterlimit:10"
     clip-path="url(#cpMHw3MjB8NTc2fDA=)"
     id="line28"
     transform="translate(48,0)" />
  <line
     x1="635.65997"
     y1="502.56"
     x2="635.65997"
     y2="509.76001"
     style="fill:none;stroke:#000000;stroke-width:0.75;stroke-linecap:round;stroke-linejoin:round;stroke-miterlimit:10"
     clip-path="url(#cpMHw3MjB8NTc2fDA=)"
     id="line30"
     transform="translate(48,0)" />
  <g
     clip-path="url(#cpMHw3MjB8NTc2fDA=)"
     id="g32"
     transform="translate(48,12)">
    <text
       x="134.57001"
       y="528.47998"
       style="font-size:36px;font-family:Arial"
       textLength="80.09px"
       lengthAdjust="spacingAndGlyphs"
       id="text34">2000</text>
  </g>
  <g
     clip-path="url(#cpMHw3MjB8NTc2fDA=)"
     id="g36"
     transform="translate(48,12)">
    <text
       x="288.25"
       y="528.47998"
       style="font-size:36px;font-family:Arial"
       textLength="80.09px"
       lengthAdjust="spacingAndGlyphs"
       id="text38">2005</text>
  </g>
  <g
     clip-path="url(#cpMHw3MjB8NTc2fDA=)"
     id="g40"
     transform="translate(48,12)">
    <text
       x="441.94"
       y="528.47998"
       style="font-size:36px;font-family:Arial"
       textLength="80.09px"
       lengthAdjust="spacingAndGlyphs"
       id="text42">2010</text>
  </g>
  <g
     clip-path="url(#cpMHw3MjB8NTc2fDA=)"
     id="g44"
     transform="translate(48,12)">
    <text
       x="595.62"
       y="528.47998"
       style="font-size:36px;font-family:Arial"
       textLength="80.09px"
       lengthAdjust="spacingAndGlyphs"
       id="text46">2015</text>
  </g>
  <line
     x1="59.040001"
     y1="502.56"
     x2="59.040001"
     y2="59.040001"
     style="fill:none;stroke:#000000;stroke-width:0.75;stroke-linecap:round;stroke-linejoin:round;stroke-miterlimit:10"
     clip-path="url(#cpMHw3MjB8NTc2fDA=)"
     id="line48"
     transform="translate(48,0)" />
  <line
     x1="59.040001"
     y1="502.56"
     x2="51.84"
     y2="502.56"
     style="fill:none;stroke:#000000;stroke-width:0.75;stroke-linecap:round;stroke-linejoin:round;stroke-miterlimit:10"
     clip-path="url(#cpMHw3MjB8NTc2fDA=)"
     id="line50"
     transform="translate(48,0)" />
  <line
     x1="59.040001"
     y1="391.67999"
     x2="51.84"
     y2="391.67999"
     style="fill:none;stroke:#000000;stroke-width:0.75;stroke-linecap:round;stroke-linejoin:round;stroke-miterlimit:10"
     clip-path="url(#cpMHw3MjB8NTc2fDA=)"
     id="line52"
     transform="translate(48,0)" />
  <line
     x1="59.040001"
     y1="280.79999"
     x2="51.84"
     y2="280.79999"
     style="fill:none;stroke:#000000;stroke-width:0.75;stroke-linecap:round;stroke-linejoin:round;stroke-miterlimit:10"
     clip-path="url(#cpMHw3MjB8NTc2fDA=)"
     id="line54"
     transform="translate(48,0)" />
  <line
     x1="59.040001"
     y1="169.92"
     x2="51.84"
     y2="169.92"
     style="fill:none;stroke:#000000;stroke-width:0.75;stroke-linecap:round;stroke-linejoin:round;stroke-miterlimit:10"
     clip-path="url(#cpMHw3MjB8NTc2fDA=)"
     id="line56"
     transform="translate(48,0)" />
  <line
     x1="59.040001"
     y1="59.040001"
     x2="51.84"
     y2="59.040001"
     style="fill:none;stroke:#000000;stroke-width:0.75;stroke-linecap:round;stroke-linejoin:round;stroke-miterlimit:10"
     clip-path="url(#cpMHw3MjB8NTc2fDA=)"
     id="line58"
     transform="translate(48,0)" />
  <g
     clip-path="url(#cpMHw3MjB8NTc2fDA=)"
     id="g60"
     transform="translate(44,0)">
    <text
       transform="matrix(0,-1,1,0,41.76,512.57)"
       style="font-size:36px;font-family:Arial"
       textLength="20.02px"
       lengthAdjust="spacingAndGlyphs"
       id="text62">0</text>
  </g>
  <g
     clip-path="url(#cpMHw3MjB8NTc2fDA=)"
     id="g64"
     transform="translate(44,0)">
    <text
       transform="matrix(0,-1,1,0,41.76,401.69)"
       style="font-size:36px;font-family:Arial"
       textLength="20.02px"
       lengthAdjust="spacingAndGlyphs"
       id="text66">2</text>
  </g>
  <g
     clip-path="url(#cpMHw3MjB8NTc2fDA=)"
     id="g68"
     transform="translate(44,0)">
    <text
       transform="matrix(0,-1,1,0,41.76,290.81)"
       style="font-size:36px;font-family:Arial"
       textLength="20.02px"
       lengthAdjust="spacingAndGlyphs"
       id="text70">4</text>
  </g>
  <g
     clip-path="url(#cpMHw3MjB8NTc2fDA=)"
     id="g72"
     transform="translate(44,0)">
    <text
       transform="matrix(0,-1,1,0,41.76,179.93)"
       style="font-size:36px;font-family:Arial"
       textLength="20.02px"
       lengthAdjust="spacingAndGlyphs"
       id="text74">6</text>
  </g>
  <g
     clip-path="url(#cpMHw3MjB8NTc2fDA=)"
     id="g76"
     transform="translate(44,0)">
    <text
       transform="matrix(0,-1,1,0,41.76,69.05)"
       style="font-size:36px;font-family:Arial"
       textLength="20.02px"
       lengthAdjust="spacingAndGlyphs"
       id="text78">8</text>
  </g>
  <polyline
     points="59.04,502.56 689.76,502.56 689.76,59.04 59.04,59.04 59.04,502.56 "
     style="fill:none;stroke:#000000;stroke-width:0.75;stroke-linecap:round;stroke-linejoin:round;stroke-miterlimit:10"
     clip-path="url(#cpMHw3MjB8NTc2fDA=)"
     id="polyline80"
     transform="translate(48,0)" />
  <g
     clip-path="url(#cpMHw3MjB8NTc2fDA=)"
     id="g82"
     transform="translate(48,0)">
    <text
       x="111.84"
       y="42.400002"
       style="font-weight:bold;font-size:36px;font-family:Arial"
       textLength="525.13px"
       lengthAdjust="spacingAndGlyphs"
       id="text84">80% Winsorised mean +/- MAD</text>
  </g>
  <g
     clip-path=""
     id="g86"
     transform="translate(26,0)">
    <text
       transform="matrix(0,-1,1,0,12.96,497.93)"
       style="font-size:36px;font-family:Arial"
       textLength="434.27px"
       lengthAdjust="spacingAndGlyphs"
       id="text88">% delays and cancellations</text>
  </g>
  <defs
     id="defs90">
    <clipPath
       id="clipPath92">
      <rect
         x="59.040001"
         y="59.040001"
         width="630.71997"
         height="443.51999"
         id="rect94"
         style="fill:none;stroke:#000000;stroke-linecap:round;stroke-linejoin:round;stroke-miterlimit:10" />
    </clipPath>
  </defs>
  <polyline
     points="82.40,371.97 113.14,371.97 143.87,376.16 174.61,283.26 205.35,310.37 236.08,313.45 266.82,317.39 297.56,343.63 328.29,359.03 359.03,364.58 389.77,369.00 420.51,386.69 451.24,389.83 481.98,385.52 512.72,371.72 543.45,367.04 574.19,344.86 604.93,335.01 635.66,314.68 666.40,248.15 "
     style="fill:none;stroke:#000000;stroke-width:2.75;stroke-linecap:round;stroke-linejoin:round;stroke-miterlimit:10"
     clip-path="url(#cpNTkuMDR8Njg5Ljc2fDUwMi41Nnw1OS4wNA==)"
     id="polyline96"
     transform="translate(48,0)" />
  <polyline
     points="82.40,404.85 113.14,396.63 143.87,425.47 174.61,390.12 205.35,351.47 236.08,354.55 266.82,350.27 297.56,368.29 328.29,400.13 359.03,381.02 389.77,385.44 420.51,411.35 451.24,414.49 481.98,410.18 512.72,396.38 543.45,391.70 574.19,402.40 604.93,367.89 635.66,339.34 666.40,289.25 "
     style="fill:none;stroke:#8d8d8d;stroke-width:1.75;stroke-linecap:round;stroke-linejoin:round;stroke-miterlimit:10"
     clip-path="url(#cpNTkuMDR8Njg5Ljc2fDUwMi41Nnw1OS4wNA==)"
     id="polyline98"
     transform="translate(48,0)" />
</svg>
